<svg width="18" height="23" viewBox="0 0 18 23" fill="none" xmlns="http://www.w3.org/2000/svg">
<path d="M12.2022 8.224V6.60756C12.2022 5.7371 11.8628 4.90233 11.2578 4.28723C10.6519 3.67214 9.83171 3.32705 8.97552 3.32705H8.76575C6.98402 3.32705 5.53902 4.79522 5.53902 6.60756V8.224C4.72605 8.2899 3.91485 8.37777 3.10538 8.48853V6.61395C3.10628 5.08812 3.70138 3.62448 4.76195 2.54449C5.82253 1.4645 7.26036 0.85573 8.76125 0.852051H8.97102C10.4718 0.855712 11.9096 1.46349 12.9703 2.54264C14.0309 3.6218 14.6278 5.08362 14.6296 6.60929V8.48386C13.8256 8.37586 13.0171 8.28982 12.2024 8.22391L12.2022 8.224ZM1.34454 10.8015C6.31601 9.84504 11.4191 9.84504 16.3905 10.8015L16.5031 10.8226C17.1027 10.9379 17.5366 11.4706 17.5357 12.0903V20.9013C17.5366 21.521 17.1027 22.0537 16.5031 22.169L15.7333 22.3164C13.4699 22.7539 11.1714 22.9754 8.86753 22.9772C6.56453 22.9772 4.26692 22.7585 2.0036 22.3237L1.23384 22.1763V22.1754C0.63512 22.061 0.201172 21.5283 0.201172 20.9077V12.0977C0.201172 11.4771 0.63512 10.9443 1.23384 10.8299L1.34454 10.8015ZM5.41045 16.634L7.62343 19.2355V19.2346C7.73057 19.3581 7.88542 19.4286 8.04747 19.4286C8.20952 19.4286 8.36348 19.3581 8.4715 19.2346L12.0619 15.242C12.2663 15.014 12.2582 14.6635 12.0439 14.4456L11.4029 13.8058C11.1904 13.5907 10.8501 13.5797 10.6259 13.782L8.02842 16.1325L6.8184 15.1696C6.59242 14.9893 6.27011 15.0094 6.06754 15.2163L5.43822 15.8579C5.23475 16.0712 5.22214 16.4062 5.41031 16.6341L5.41045 16.634Z" fill="white"/>
</svg>
