<?xml version="1.0" encoding="UTF-8"?>
<svg width="1210px" height="995px" viewBox="0 0 1210 995" version="1.1" xmlns="http://www.w3.org/2000/svg" xmlns:xlink="http://www.w3.org/1999/xlink">
    <!-- Generator: Sketch 63.1 (92452) - https://sketch.com -->
    <title>Artboard</title>
    <desc>Created with Sketch.</desc>
    <g id="Artboard" stroke="none" stroke-width="1" fill="none" fill-rule="evenodd">
        <g id="Group" transform="translate(407.000000, 65.000000)" fill="#2157E4" fill-rule="nonzero">
            <g id="logo-datalocker" transform="translate(0.552000, 0.000000)">
                <path d="M262.121,160.363 L262.121,125.2 C262.121,106.264 254.729,88.105 241.555,74.724 C228.361,61.344 210.5,53.837 191.856,53.837 L187.288,53.837 C148.489,53.837 117.023,85.775 117.023,125.2 L117.023,160.363 C99.32,161.797 81.655,163.708 64.028,166.118 L64.028,125.339 C64.048,92.146 77.006,60.307 100.101,36.813 C123.197,13.32 154.507,0.077 187.19,-0.003 L191.758,-0.003 C224.44,0.076 255.749,13.298 278.846,36.773 C301.942,60.249 314.94,92.049 314.979,125.237 L314.979,166.016 C297.471,163.667 279.866,161.795 262.124,160.361 L262.121,160.363 Z M25.684,216.434 C133.942,195.627 245.067,195.627 353.325,216.434 L355.775,216.892 C368.833,219.401 378.282,230.989 378.263029,244.47 L378.263029,436.14 C378.282,449.62 368.833,461.209 355.775,463.718 L339.013,466.924 C289.726,476.441 239.674,481.26 189.504,481.3 C139.354,481.3 89.322,476.541 40.036,467.083 L23.273,463.877 L23.273,463.857 C10.236,461.368 0.786,449.78 0.786,436.279 L0.786,244.629 C0.786,231.129 10.236,219.541 23.273,217.052 L25.684,216.434 Z M114.223,343.312 L162.413,399.903 L162.413,399.883 C164.746,402.571 168.118,404.104 171.647,404.104 C175.175,404.104 178.528,402.571 180.88,399.883 L259.065,313.029 C263.516,308.071 263.339,300.445 258.673,295.706 L244.715,281.788 C240.088,277.109 232.677,276.87 227.795,281.27 L171.232,332.402 L144.883,311.455 C139.962,307.532 132.943,307.97 128.532,312.47 L114.828,326.428 C110.397,331.068 110.122,338.355 114.22,343.313 L114.223,343.312 Z" id="Shape"></path>
            </g>
        </g>
        <path d="M45.9956841,728.648004 L45.99548,676.157861 C45.993439,674.680158 45.9760904,672.673244 45.9434343,670.137118 C45.9086012,667.431916 45.8911846,665.346293 45.8911846,663.880249 L45.8911846,663.880249 L60.364371,728.648004 L75.9870523,728.648004 L90.5647383,663.880249 C90.5647383,665.346293 90.5473217,667.431916 90.5124885,670.137118 C90.4776553,672.842319 90.4602388,674.945395 90.4602388,676.446345 L90.4602388,728.648004 L105.455923,728.648004 L105.455923,651.471229 L82.3092746,651.471229 L68.4108356,712.155003 L54.4078972,651.471229 L31,651.471229 L31,728.648004 L45.9956841,728.648004 Z M128.289073,751.738206 C134.872544,751.738206 139.261524,750.437964 141.456015,747.837481 C143.650505,745.236997 146.628742,738.526352 150.390725,727.705547 L150.390725,727.705547 L169.93214,671.576983 L154.100459,671.576983 L142.344261,713.673406 L129.908815,671.576983 L113.345638,671.576983 L134.245546,731.161223 C134.384879,731.580093 134.080089,732.731985 133.331175,734.6169 C132.582262,736.501814 131.772391,737.740971 130.901561,738.33437 C129.995898,738.962675 128.881237,739.364092 127.557576,739.538621 C126.233915,739.71315 124.840588,739.765509 123.377594,739.695697 L123.377594,739.695697 L121.496602,739.59098 L121.496602,751.528771 C123.098929,751.633489 124.300673,751.694574 125.101837,751.712027 C125.903,751.72948 126.965412,751.738206 128.289073,751.738206 Z M242.820569,728.648004 C254.454852,728.648004 263.058647,723.848453 268.631956,714.249352 C272.742271,707.128564 274.797429,698.437014 274.797429,688.174702 C274.797429,684.125626 274.309764,679.867116 273.334435,675.399171 C272.359106,670.931225 270.530364,666.777432 267.848209,662.937792 C264.504224,658.1906 260.13266,654.926905 254.733517,653.146708 C251.563698,652.099533 247.592715,651.54104 242.820569,651.471229 L242.820569,651.471229 L209.641965,651.471229 L209.641965,728.648004 L242.820569,728.648004 Z M240.103581,715.244168 L225.264646,715.244168 L225.264646,664.875065 L240.103581,664.875065 C247.418549,664.875065 252.303903,666.978141 254.759642,671.184292 C257.215381,675.390444 258.443251,681.420425 258.443251,689.274235 C258.443251,694.963885 257.624671,699.868153 255.987511,703.98704 C252.991858,711.491792 247.697215,715.244168 240.103581,715.244168 L240.103581,715.244168 Z M301.026814,664.770347 L301.026814,651 L285.92663,651 L285.92663,664.770347 L301.026814,664.770347 Z M301.026814,728.648004 L301.026814,671.576983 L285.92663,671.576983 L285.92663,728.648004 L301.026814,728.648004 Z M338.751148,752 C350.803428,752 358.954392,748.788664 363.20404,742.365993 C365.677196,738.63107 366.913774,733.081044 366.913774,725.715915 L366.913774,725.715915 L366.913774,671.576983 L352.440588,671.576983 L352.440588,679.797304 C350.211264,675.783135 347.285277,673.025575 343.662626,671.524624 C341.537802,670.651979 339.04723,670.215656 336.190909,670.215656 C328.457943,670.215656 322.484053,673.104113 318.269238,678.881026 C314.054423,684.65794 311.947016,691.787455 311.947016,700.26957 C311.947016,709.065837 314.132798,716.038275 318.504362,721.186884 C322.875926,726.335493 328.719192,728.909798 336.03416,728.909798 C340.771472,728.909798 344.620539,727.775359 347.581359,725.50648 C349.218519,724.284776 350.751178,722.45222 352.179339,720.008813 L352.179339,720.008813 L352.179339,723.673924 C352.179339,729.119233 351.587175,732.993779 350.402847,735.297564 C348.591521,738.892863 345.003704,740.690513 339.639394,740.690513 C335.842577,740.690513 333.143006,740.00985 331.54068,738.648523 C330.600184,737.880594 329.920937,736.623985 329.502938,734.878694 L329.502938,734.878694 L313.30551,734.878694 C313.793174,740.568343 316.335996,744.844306 320.933976,747.706584 C325.531956,750.568861 331.471013,752 338.751148,752 Z M339.900643,716.39606 C334.675666,716.39606 331.053015,713.987558 329.032691,709.170555 C327.918029,706.587524 327.360698,703.637982 327.360698,700.321928 C327.360698,696.482288 327.883196,693.253499 328.928191,690.635562 C330.913682,685.713841 334.518916,683.252981 339.743893,683.252981 C343.575543,683.252981 346.632155,684.666667 348.913728,687.494038 C351.195301,690.32141 352.336088,694.440297 352.336088,699.8507 C352.336088,705.610161 351.134343,709.807586 348.730854,712.442976 C346.327365,715.078365 343.383961,716.39606 339.900643,716.39606 Z M396.121396,664.770347 L396.121396,651 L381.021212,651 L381.021212,664.770347 L396.121396,664.770347 Z M396.121396,728.648004 L396.121396,671.576983 L381.021212,671.576983 L381.021212,728.648004 L396.121396,728.648004 Z M415.140312,725.768274 C417.717968,728.456022 422.524946,729.677726 429.561249,729.433385 L429.561249,729.433385 L436.614968,729.171591 L436.614968,718.019181 C436.127303,718.054087 435.630931,718.080266 435.125849,718.097719 C434.620768,718.115172 434.141812,718.123898 433.688981,718.123898 C430.658494,718.123898 428.847169,717.835925 428.255005,717.259979 C427.662841,716.684033 427.366758,715.226715 427.366758,712.888025 L427.366758,712.888025 L427.366758,682.729393 L436.614968,682.729393 L436.614968,672.10057 L427.366758,672.10057 L427.366758,656.183515 L412.632323,656.183515 L412.632323,672.10057 L404.690358,672.10057 L404.690358,682.729393 L412.632323,682.729393 L412.632323,717.862105 C412.632323,721.422499 413.46832,724.057888 415.140312,725.768274 Z M460.127365,730.428201 C464.168013,730.428201 467.790664,729.503197 470.995317,727.653188 C473.677472,726.082426 476.046128,724.180059 478.101286,721.946086 C478.205785,723.237602 478.345118,724.389494 478.519284,725.401763 C478.69345,726.414031 479.006948,727.496112 479.45978,728.648004 L479.45978,728.648004 L495.657208,728.648004 L495.657208,726.448937 C494.681879,725.995162 493.950383,725.419215 493.462718,724.721099 C492.975054,724.022983 492.678972,722.696561 492.574472,720.741835 C492.504806,718.158804 492.469972,715.959737 492.469972,714.144635 L492.469972,714.144635 L492.469972,687.965267 C492.469972,681.08882 490.049066,676.411439 485.207254,673.933126 C480.365442,671.454813 474.826967,670.215656 468.591827,670.215656 C459.012703,670.215656 452.255066,672.728875 448.318916,677.755314 C445.845761,680.966649 444.452433,685.068084 444.138935,690.059616 L444.138935,690.059616 L458.507622,690.059616 C458.855953,687.86055 459.552617,686.115258 460.597612,684.823743 C462.060606,683.078452 464.551178,682.205806 468.06933,682.205806 C471.204316,682.205806 473.58168,682.650855 475.201423,683.540954 C476.821166,684.431052 477.631038,686.045447 477.631038,688.384137 C477.631038,690.303957 476.568626,691.717643 474.443802,692.625194 C473.259474,693.148782 471.291399,693.585105 468.539578,693.934163 L468.539578,693.934163 L463.47135,694.562468 C457.723875,695.29549 453.369728,696.517194 450.408907,698.227579 C445.009764,701.369103 442.310193,706.4479 442.310193,713.463971 C442.310193,718.874374 443.990894,723.054346 447.352296,726.003888 C450.713698,728.95343 454.972054,730.428201 460.127365,730.428201 Z M464.516345,719.589943 C462.496021,719.589943 460.780487,719.022723 459.369743,717.888284 C457.958999,716.753845 457.253627,714.912563 457.253627,712.364438 C457.253627,709.50216 458.403122,707.390358 460.702112,706.029031 C462.060606,705.226197 464.307346,704.545533 467.442332,703.98704 L467.442332,703.98704 L470.786318,703.358735 C472.45831,703.044583 473.773263,702.704251 474.731175,702.33774 C475.689088,701.971229 476.638292,701.491274 477.578788,700.897875 L477.578788,700.897875 L477.578788,706.4479 C477.474288,711.439433 476.072253,714.877657 473.372681,716.762571 C470.67311,718.647486 467.720998,719.589943 464.516345,719.589943 Z M520.893848,728.648004 L520.893848,651.471229 L506.002663,651.471229 L506.002663,728.648004 L520.893848,728.648004 Z M599.529752,728.648004 C611.164034,728.648004 619.76783,723.848453 625.341139,714.249352 C629.451454,707.128564 631.506612,698.437014 631.506612,688.174702 C631.506612,684.125626 631.018947,679.867116 630.043618,675.399171 C629.068289,670.931225 627.239547,666.777432 624.557392,662.937792 C621.213407,658.1906 616.841843,654.926905 611.4427,653.146708 C608.27288,652.099533 604.301898,651.54104 599.529752,651.471229 L599.529752,651.471229 L566.351148,651.471229 L566.351148,728.648004 L599.529752,728.648004 Z M596.812764,715.244168 L581.973829,715.244168 L581.973829,664.875065 L596.812764,664.875065 C604.127732,664.875065 609.013085,666.978141 611.468825,671.184292 C613.924564,675.390444 615.152433,681.420425 615.152433,689.274235 C615.152433,694.963885 614.333854,699.868153 612.696694,703.98704 C609.701041,711.491792 604.406397,715.244168 596.812764,715.244168 L596.812764,715.244168 Z M656.377502,730.428201 C660.418151,730.428201 664.040802,729.503197 667.245455,727.653188 C669.927609,726.082426 672.296266,724.180059 674.351423,721.946086 C674.455923,723.237602 674.595256,724.389494 674.769421,725.401763 C674.943587,726.414031 675.257086,727.496112 675.709917,728.648004 L675.709917,728.648004 L691.907346,728.648004 L691.907346,726.448937 C690.932017,725.995162 690.20052,725.419215 689.712856,724.721099 C689.225191,724.022983 688.929109,722.696561 688.82461,720.741835 C688.754943,718.158804 688.72011,715.959737 688.72011,714.144635 L688.72011,714.144635 L688.72011,687.965267 C688.72011,681.08882 686.299204,676.411439 681.457392,673.933126 C676.61558,671.454813 671.077104,670.215656 664.841965,670.215656 C655.262841,670.215656 648.505204,672.728875 644.569054,677.755314 C642.095898,680.966649 640.702571,685.068084 640.389073,690.059616 L640.389073,690.059616 L654.757759,690.059616 C655.106091,687.86055 655.802755,686.115258 656.84775,684.823743 C658.310744,683.078452 660.801316,682.205806 664.319467,682.205806 C667.454454,682.205806 669.831818,682.650855 671.451561,683.540954 C673.071304,684.431052 673.881175,686.045447 673.881175,688.384137 C673.881175,690.303957 672.818763,691.717643 670.693939,692.625194 C669.509611,693.148782 667.541537,693.585105 664.789715,693.934163 L664.789715,693.934163 L659.721488,694.562468 C653.974013,695.29549 649.619865,696.517194 646.659045,698.227579 C641.259902,701.369103 638.560331,706.4479 638.560331,713.463971 C638.560331,718.874374 640.241032,723.054346 643.602433,726.003888 C646.963835,728.95343 651.222192,730.428201 656.377502,730.428201 Z M660.766483,719.589943 C658.746159,719.589943 657.030624,719.022723 655.619881,717.888284 C654.209137,716.753845 653.503765,714.912563 653.503765,712.364438 C653.503765,709.50216 654.65326,707.390358 656.95225,706.029031 C658.310744,705.226197 660.557484,704.545533 663.69247,703.98704 L663.69247,703.98704 L667.036455,703.358735 C668.708448,703.044583 670.023401,702.704251 670.981313,702.33774 C671.939226,701.971229 672.88843,701.491274 673.828926,700.897875 L673.828926,700.897875 L673.828926,706.4479 C673.724426,711.439433 672.322391,714.877657 669.622819,716.762571 C666.923248,718.647486 663.971136,719.589943 660.766483,719.589943 Z M706.537282,725.768274 C709.114937,728.456022 713.921916,729.677726 720.958219,729.433385 L720.958219,729.433385 L728.011938,729.171591 L728.011938,718.019181 C727.524273,718.054087 727.0279,718.080266 726.522819,718.097719 C726.017738,718.115172 725.538782,718.123898 725.08595,718.123898 C722.055464,718.123898 720.244138,717.835925 719.651974,717.259979 C719.05981,716.684033 718.763728,715.226715 718.763728,712.888025 L718.763728,712.888025 L718.763728,682.729393 L728.011938,682.729393 L728.011938,672.10057 L718.763728,672.10057 L718.763728,656.183515 L704.029293,656.183515 L704.029293,672.10057 L696.087328,672.10057 L696.087328,682.729393 L704.029293,682.729393 L704.029293,717.862105 C704.029293,721.422499 704.865289,724.057888 706.537282,725.768274 Z M751.524334,730.428201 C755.564983,730.428201 759.187634,729.503197 762.392287,727.653188 C765.074441,726.082426 767.443098,724.180059 769.498255,721.946086 C769.602755,723.237602 769.742088,724.389494 769.916253,725.401763 C770.090419,726.414031 770.403918,727.496112 770.856749,728.648004 L770.856749,728.648004 L787.054178,728.648004 L787.054178,726.448937 C786.078849,725.995162 785.347352,725.419215 784.859688,724.721099 C784.372023,724.022983 784.075941,722.696561 783.971442,720.741835 C783.901775,718.158804 783.866942,715.959737 783.866942,714.144635 L783.866942,687.965267 C783.866942,681.08882 781.446036,676.411439 776.604224,673.933126 C771.762412,671.454813 766.223936,670.215656 759.988797,670.215656 C750.409672,670.215656 743.652036,672.728875 739.715886,677.755314 C737.24273,680.966649 735.849403,685.068084 735.535904,690.059616 L735.535904,690.059616 L749.904591,690.059616 C750.252923,687.86055 750.949587,686.115258 751.994582,684.823743 C753.457576,683.078452 755.948148,682.205806 759.466299,682.205806 C762.601286,682.205806 764.97865,682.650855 766.598393,683.540954 C768.218136,684.431052 769.028007,686.045447 769.028007,688.384137 C769.028007,690.303957 767.965595,691.717643 765.840771,692.625194 C764.656443,693.148782 762.688369,693.585105 759.936547,693.934163 L759.936547,693.934163 L754.86832,694.562468 C749.120845,695.29549 744.766697,696.517194 741.805877,698.227579 C736.406734,701.369103 733.707163,706.4479 733.707163,713.463971 C733.707163,718.874374 735.387863,723.054346 738.749265,726.003888 C742.110667,728.95343 746.369024,730.428201 751.524334,730.428201 Z M755.913315,719.589943 C753.892991,719.589943 752.177456,719.022723 750.766713,717.888284 C749.355969,716.753845 748.650597,714.912563 748.650597,712.364438 C748.650597,709.50216 749.800092,707.390358 752.099082,706.029031 C753.457576,705.226197 755.704316,704.545533 758.839302,703.98704 L758.839302,703.98704 L762.183287,703.358735 C763.85528,703.044583 765.170233,702.704251 766.128145,702.33774 C767.086058,701.971229 768.035262,701.491274 768.975758,700.897875 L768.975758,700.897875 L768.975758,706.4479 C768.871258,711.439433 767.469223,714.877657 764.769651,716.762571 C762.07008,718.647486 759.117968,719.589943 755.913315,719.589943 Z M882.25326,728.648004 L882.25326,714.772939 L844.110927,714.772939 L844.110927,651.471229 L828.017998,651.471229 L828.017998,728.648004 L882.25326,728.648004 Z M917.783104,730.637636 C927.571227,730.637636 934.868779,727.661915 939.675758,721.710472 C944.482736,715.759029 946.886226,708.594609 946.886226,700.217211 C946.886226,691.979437 944.482736,684.841196 939.675758,678.802488 C934.868779,672.763781 927.571227,669.744427 917.783104,669.744427 C907.99498,669.744427 900.697429,672.763781 895.89045,678.802488 C891.083471,684.841196 888.679982,691.979437 888.679982,700.217211 C888.679982,708.594609 891.083471,715.759029 895.89045,721.710472 C900.697429,727.661915 907.99498,730.637636 917.783104,730.637636 Z M917.730854,718.123898 C913.376706,718.123898 910.024013,716.570589 907.672773,713.463971 C905.321534,710.357353 904.145914,705.941766 904.145914,700.217211 C904.145914,694.492656 905.321534,690.085796 907.672773,686.99663 C910.024013,683.907465 913.376706,682.362882 917.730854,682.362882 C922.085002,682.362882 925.428987,683.907465 927.76281,686.99663 C930.096633,690.085796 931.263545,694.492656 931.263545,700.217211 C931.263545,705.941766 930.096633,710.357353 927.76281,713.463971 C925.428987,716.570589 922.085002,718.123898 917.730854,718.123898 Z M981.005326,730.637636 C990.166452,730.637636 997.080839,727.373942 1001.74848,720.846553 C1004.67447,716.797477 1006.31163,712.504061 1006.65996,707.966304 L1006.65996,707.966304 L991.45528,707.966304 C991.141781,710.968205 990.253535,713.411612 988.790542,715.296527 C987.327548,717.181441 984.854392,718.123898 981.371074,718.123898 C976.459596,718.123898 973.115611,715.750302 971.339118,711.00311 C970.363789,708.454985 969.876125,705.086573 969.876125,700.897875 C969.876125,696.499741 970.363789,692.974253 971.339118,690.32141 C973.185277,685.329877 976.616345,682.834111 981.632323,682.834111 C985.150474,682.834111 987.745546,683.986003 989.417539,686.289787 C990.567034,688.000173 991.281114,689.919993 991.55978,692.049248 L991.55978,692.049248 L1006.81671,692.049248 C1005.98072,683.916191 1003.28985,678.243995 998.744123,675.032659 C994.198393,671.821324 988.355127,670.215656 981.214325,670.215656 C972.819529,670.215656 966.236058,672.93831 961.463912,678.383618 C956.691766,683.828927 954.305693,691.455849 954.305693,701.264386 C954.305693,709.955936 956.46535,717.024365 960.784665,722.469673 C965.103979,727.914982 971.8442,730.637636 981.005326,730.637636 Z M1031.53085,728.648004 L1031.53085,710.688958 L1037.69633,704.248834 L1051.33352,728.648004 L1069.30744,728.648004 L1048.61653,693.672369 L1068.52369,671.838777 L1050.07952,671.838777 L1031.53085,693.305858 L1031.53085,651.733022 L1016.90092,651.733022 L1016.90092,728.648004 L1031.53085,728.648004 Z M1099.56006,730.532919 C1108.33802,730.532919 1115.16532,727.757906 1120.04197,722.20788 C1123.17695,718.717297 1124.93603,715.279074 1125.31919,711.893209 L1125.31919,711.893209 L1110.11451,711.893209 C1109.31335,713.568688 1108.39027,714.877657 1107.34527,715.820114 C1105.42945,717.565405 1102.93887,718.438051 1099.87355,718.438051 C1096.9824,718.438051 1094.50924,717.722481 1092.45409,716.291343 C1089.07527,713.987558 1087.28136,709.973389 1087.07236,704.248834 L1087.07236,704.248834 L1126.05069,704.248834 C1126.12036,699.327112 1125.96361,695.557284 1125.58044,692.939347 C1124.91861,688.471401 1123.47303,684.544496 1121.24371,681.158631 C1118.77055,677.318991 1115.63557,674.509072 1111.83875,672.728875 C1108.04193,670.948678 1103.77487,670.05858 1099.03756,670.05858 C1091.06076,670.05858 1084.57308,672.693969 1079.57452,677.964749 C1074.57596,683.235528 1072.07668,690.810092 1072.07668,700.68844 C1072.07668,711.229998 1074.84591,718.839468 1080.38439,723.516848 C1085.92287,728.194228 1092.31475,730.532919 1099.56006,730.532919 Z M1110.58476,694.405391 L1087.43811,694.405391 C1087.92577,690.705374 1089.11881,687.773285 1091.01722,685.609124 C1092.91563,683.444963 1095.58907,682.362882 1099.03756,682.362882 C1102.20738,682.362882 1104.86341,683.383878 1107.00565,685.425868 C1109.14789,687.467859 1110.34092,690.461033 1110.58476,694.405391 L1110.58476,694.405391 Z M1150.92158,728.648004 L1150.92158,701.369103 C1150.92158,696.79644 1151.49633,693.410575 1152.64582,691.211509 C1154.70098,687.302056 1158.72421,685.34733 1164.71552,685.34733 C1165.16835,685.34733 1165.76051,685.364783 1166.49201,685.399689 C1167.22351,685.434595 1168.0595,685.504406 1169,685.609124 L1169,685.609124 L1169,670.320373 C1168.33817,670.285467 1167.91146,670.259288 1167.71988,670.241835 C1167.5283,670.224382 1167.29317,670.215656 1167.01451,670.215656 C1162.55586,670.215656 1158.93321,671.385001 1156.14656,673.723691 C1154.43973,675.119924 1152.43682,677.720408 1150.13783,681.525143 L1150.13783,681.525143 L1150.13783,671.576983 L1135.9259,671.576983 L1135.9259,728.648004 L1150.92158,728.648004 Z" id="MyDigitalDataLocker" fill="#000000" fill-rule="nonzero"></path>
        <path d="M396.498,865 C399.819333,865 402.749,864.451667 405.287,863.355 C407.825,862.258333 409.955667,860.817 411.679,859.031 C413.402333,857.245 414.702667,855.192667 415.58,852.874 C416.457333,850.555333 416.896,848.174 416.896,845.73 C416.896,841.594 415.799333,838.084667 413.606,835.202 C411.412667,832.319333 408.248,830.439333 404.112,829.562 L404.112,829.374 C407.308,828.120667 409.767667,826.193667 411.491,823.593 C413.214333,820.992333 414.076,817.906 414.076,814.334 C414.076,810.95 413.308333,808.098667 411.773,805.78 C410.237667,803.461333 408.373333,801.644 406.18,800.328 C405.177333,799.701333 403.971,799.231333 402.561,798.918 C401.151,798.604667 399.631333,798.369667 398.002,798.213 C396.372667,798.056333 394.727667,797.962333 393.067,797.931 C391.406333,797.899667 389.855333,797.884 388.414,797.884 L364.068,797.884 L364.068,865 L396.498,865 Z M390.858,826.742 L372.998,826.742 L372.998,805.404 L390.858,805.404 C392.800667,805.404 394.633667,805.513667 396.357,805.733 C398.080333,805.952333 399.6,806.438 400.916,807.19 C402.232,807.942 403.266,809.007333 404.018,810.386 C404.77,811.764667 405.146,813.644667 405.146,816.026 C405.146,819.598 404.033667,822.277 401.809,824.063 C399.584333,825.849 395.934,826.742 390.858,826.742 Z M395.37,857.48 L372.998,857.48 L372.998,834.262 L393.396,834.262 C395.276,834.262 397.093333,834.434333 398.848,834.779 C400.602667,835.123667 402.153667,835.719 403.501,836.565 C404.848333,837.411 405.929333,838.554667 406.744,839.996 C407.558667,841.437333 407.966,843.254667 407.966,845.448 C407.966,849.208 406.853667,852.153333 404.629,854.284 C402.404333,856.414667 399.318,857.48 395.37,857.48 Z M455.624,866.504 C464.084,866.504 470.601333,864.357667 475.176,860.065 C479.750667,855.772333 482.038,849.333333 482.038,840.748 L482.038,797.884 L473.108,797.884 L473.108,840.748 C473.108,846.764 471.619667,851.323 468.643,854.425 C465.666333,857.527 461.326667,859.078 455.624,859.078 C449.608,859.078 445.002,857.527 441.806,854.425 C438.61,851.323 437.012,846.764 437.012,840.748 L437.012,797.884 L428.082,797.884 L428.082,840.748 C428.082,849.709333 430.510333,856.242333 435.367,860.347 C440.223667,864.451667 446.976,866.504 455.624,866.504 Z M540.788,865 L540.788,857.48 L505.256,857.48 L505.256,797.884 L496.326,797.884 L496.326,865 L540.788,865 Z M593.052,865 L593.052,857.48 L557.52,857.48 L557.52,797.884 L548.59,797.884 L548.59,865 L593.052,865 Z M627.268,865 L651.144,797.884 L641.838,797.884 L622.474,856.07 L622.286,856.07 L603.11,797.884 L593.522,797.884 L617.116,865 L627.268,865 Z M667.594,865 L667.594,797.884 L658.664,797.884 L658.664,865 L667.594,865 Z M727.096,865 L727.096,857.48 L691.564,857.48 L691.564,797.884 L682.634,797.884 L682.634,865 L727.096,865 Z M779.36,865 L779.36,857.48 L743.828,857.48 L743.828,797.884 L734.898,797.884 L734.898,865 L779.36,865 Z M833.786,865 L833.786,857.48 L796.092,857.48 L796.092,834.262 L830.966,834.262 L830.966,826.742 L796.092,826.742 L796.092,805.404 L833.504,805.404 L833.504,797.884 L787.162,797.884 L787.162,865 L833.786,865 Z" id="BULLVILLE" fill="#6B6E76" fill-rule="nonzero"></path>
    </g>
</svg>