<svg width="1025" height="1024" viewBox="0 0 1025 1024" fill="none" xmlns="http://www.w3.org/2000/svg">
<g clip-path="url(#clip0)">
<path d="M44.5963 823.297V731.545H67.4324C75.3163 731.545 81.9089 732.7 87.2102 735.011C92.6473 737.186 96.9971 740.38 100.259 744.594C103.522 748.808 105.832 753.905 107.192 759.886C108.687 765.731 109.435 772.324 109.435 779.664C109.435 787.684 108.415 794.48 106.376 800.053C104.337 805.626 101.619 810.18 98.2204 813.714C94.8222 817.112 90.9482 819.559 86.5985 821.054C82.2487 822.55 77.7631 823.297 73.1415 823.297H44.5963ZM12.585 704.631V850.211H75.3843C86.5305 850.211 96.1815 848.376 104.337 844.706C112.629 840.9 119.493 835.735 124.931 829.21C130.504 822.685 134.649 814.938 137.368 805.966C140.087 796.995 141.446 787.208 141.446 776.605C141.446 764.508 139.747 753.973 136.349 745.002C133.086 736.031 128.465 728.554 122.484 722.574C116.639 716.593 109.638 712.107 101.483 709.117C93.4629 706.126 84.7634 704.631 75.3843 704.631H12.585Z" fill="#2F3033"/>
<path d="M155.354 777.217C155.762 770.421 157.461 764.78 160.451 760.294C163.442 755.808 167.248 752.206 171.869 749.488C176.491 746.769 181.656 744.866 187.365 743.779C193.21 742.555 199.055 741.943 204.9 741.943C210.201 741.943 215.57 742.351 221.008 743.167C226.445 743.846 231.406 745.274 235.892 747.449C240.378 749.623 244.048 752.682 246.902 756.624C249.757 760.43 251.184 765.527 251.184 771.916V826.763C251.184 831.521 251.456 836.075 251.999 840.424C252.543 844.774 253.495 848.036 254.854 850.211H225.493C224.95 848.58 224.474 846.949 224.066 845.318C223.794 843.551 223.59 841.784 223.454 840.016C218.833 844.774 213.396 848.104 207.143 850.007C200.89 851.91 194.501 852.862 187.977 852.862C182.947 852.862 178.258 852.25 173.908 851.027C169.558 849.803 165.752 847.9 162.49 845.318C159.228 842.735 156.645 839.473 154.742 835.531C152.975 831.589 152.091 826.899 152.091 821.462C152.091 815.481 153.111 810.588 155.15 806.782C157.325 802.84 160.043 799.713 163.306 797.403C166.704 795.092 170.51 793.393 174.724 792.305C179.073 791.082 183.423 790.13 187.773 789.451C192.123 788.771 196.404 788.227 200.618 787.82C204.832 787.412 208.57 786.8 211.832 785.985C215.095 785.169 217.677 784.014 219.58 782.518C221.483 780.887 222.367 778.576 222.231 775.586C222.231 772.46 221.687 770.013 220.6 768.246C219.648 766.343 218.289 764.916 216.522 763.964C214.891 762.877 212.92 762.197 210.609 761.925C208.434 761.517 206.055 761.313 203.473 761.313C197.764 761.313 193.278 762.537 190.016 764.983C186.753 767.43 184.85 771.508 184.307 777.217H155.354ZM222.231 798.626C221.008 799.713 219.444 800.597 217.541 801.277C215.774 801.82 213.803 802.296 211.628 802.704C209.59 803.112 207.415 803.451 205.104 803.723C202.793 803.995 200.482 804.335 198.171 804.743C195.997 805.151 193.822 805.694 191.647 806.374C189.608 807.054 187.773 808.005 186.142 809.228C184.647 810.316 183.423 811.743 182.472 813.51C181.52 815.277 181.044 817.52 181.044 820.239C181.044 822.821 181.52 824.996 182.472 826.763C183.423 828.53 184.714 829.958 186.346 831.045C187.977 831.997 189.88 832.676 192.055 833.084C194.23 833.492 196.472 833.696 198.783 833.696C204.492 833.696 208.91 832.744 212.036 830.841C215.163 828.938 217.473 826.695 218.969 824.113C220.464 821.394 221.347 818.676 221.619 815.957C222.027 813.238 222.231 811.064 222.231 809.432V798.626Z" fill="#2F3033"/>
<path d="M306.28 744.798V713.194H277.327V744.798H259.792V764.168H277.327V826.356C277.327 831.657 278.21 835.939 279.978 839.201C281.745 842.463 284.123 844.978 287.114 846.745C290.24 848.512 293.774 849.667 297.716 850.211C301.794 850.891 306.076 851.231 310.562 851.231C313.416 851.231 316.339 851.163 319.329 851.027C322.32 850.891 325.038 850.619 327.485 850.211V827.783C326.126 828.055 324.698 828.259 323.203 828.395C321.708 828.53 320.145 828.598 318.514 828.598C313.62 828.598 310.358 827.783 308.727 826.152C307.095 824.521 306.28 821.258 306.28 816.365V764.168H327.485V744.798H306.28Z" fill="#2F3033"/>
<path d="M335.959 777.217C336.367 770.421 338.066 764.78 341.057 760.294C344.047 755.808 347.853 752.206 352.475 749.488C357.096 746.769 362.262 744.866 367.971 743.779C373.816 742.555 379.661 741.943 385.505 741.943C390.807 741.943 396.176 742.351 401.613 743.167C407.05 743.846 412.012 745.274 416.497 747.449C420.983 749.623 424.653 752.682 427.508 756.624C430.362 760.43 431.789 765.527 431.789 771.916V826.763C431.789 831.521 432.061 836.075 432.605 840.424C433.149 844.774 434.1 848.036 435.46 850.211H406.099C405.555 848.58 405.079 846.949 404.671 845.318C404.4 843.551 404.196 841.784 404.06 840.016C399.438 844.774 394.001 848.104 387.748 850.007C381.496 851.91 375.107 852.862 368.582 852.862C363.553 852.862 358.863 852.25 354.514 851.027C350.164 849.803 346.358 847.9 343.095 845.318C339.833 842.735 337.251 839.473 335.348 835.531C333.58 831.589 332.697 826.899 332.697 821.462C332.697 815.481 333.716 810.588 335.755 806.782C337.93 802.84 340.649 799.713 343.911 797.403C347.309 795.092 351.115 793.393 355.329 792.305C359.679 791.082 364.029 790.13 368.378 789.451C372.728 788.771 377.01 788.227 381.224 787.82C385.438 787.412 389.176 786.8 392.438 785.985C395.7 785.169 398.283 784.014 400.186 782.518C402.089 780.887 402.972 778.576 402.836 775.586C402.836 772.46 402.293 770.013 401.205 768.246C400.254 766.343 398.894 764.916 397.127 763.964C395.496 762.877 393.525 762.197 391.214 761.925C389.04 761.517 386.661 761.313 384.078 761.313C378.369 761.313 373.883 762.537 370.621 764.983C367.359 767.43 365.456 771.508 364.912 777.217H335.959ZM402.836 798.626C401.613 799.713 400.05 800.597 398.147 801.277C396.38 801.82 394.409 802.296 392.234 802.704C390.195 803.112 388.02 803.451 385.709 803.723C383.399 803.995 381.088 804.335 378.777 804.743C376.602 805.151 374.427 805.694 372.252 806.374C370.213 807.054 368.378 808.005 366.747 809.228C365.252 810.316 364.029 811.743 363.077 813.51C362.126 815.277 361.65 817.52 361.65 820.239C361.65 822.821 362.126 824.996 363.077 826.763C364.029 828.53 365.32 829.958 366.951 831.045C368.582 831.997 370.485 832.676 372.66 833.084C374.835 833.492 377.078 833.696 379.389 833.696C385.098 833.696 389.515 832.744 392.642 830.841C395.768 828.938 398.079 826.695 399.574 824.113C401.069 821.394 401.953 818.676 402.225 815.957C402.633 813.238 402.836 811.064 402.836 809.432V798.626Z" fill="#2F3033"/>
<path d="M451 704.631V850.211H479.953V704.631H451Z" fill="#2F3033"/>
<path d="M524.364 797.607C524.364 793.393 524.771 789.247 525.587 785.169C526.403 781.091 527.762 777.489 529.665 774.363C531.704 771.236 534.355 768.722 537.617 766.819C540.879 764.78 544.957 763.76 549.85 763.76C554.744 763.76 558.822 764.78 562.084 766.819C565.482 768.722 568.133 771.236 570.036 774.363C572.075 777.489 573.502 781.091 574.318 785.169C575.133 789.247 575.541 793.393 575.541 797.607C575.541 801.82 575.133 805.966 574.318 810.044C573.502 813.986 572.075 817.588 570.036 820.85C568.133 823.977 565.482 826.492 562.084 828.395C558.822 830.298 554.744 831.249 549.85 831.249C544.957 831.249 540.879 830.298 537.617 828.395C534.355 826.492 531.704 823.977 529.665 820.85C527.762 817.588 526.403 813.986 525.587 810.044C524.771 805.966 524.364 801.82 524.364 797.607ZM495.411 797.607C495.411 806.034 496.702 813.646 499.285 820.443C501.867 827.239 505.537 833.084 510.295 837.978C515.053 842.735 520.762 846.405 527.422 848.988C534.083 851.57 541.559 852.862 549.85 852.862C558.142 852.862 565.618 851.57 572.279 848.988C579.075 846.405 584.852 842.735 589.61 837.978C594.367 833.084 598.037 827.239 600.62 820.443C603.203 813.646 604.494 806.034 604.494 797.607C604.494 789.179 603.203 781.567 600.62 774.77C598.037 767.838 594.367 761.993 589.61 757.236C584.852 752.342 579.075 748.604 572.279 746.021C565.618 743.303 558.142 741.943 549.85 741.943C541.559 741.943 534.083 743.303 527.422 746.021C520.762 748.604 515.053 752.342 510.295 757.236C505.537 761.993 501.867 767.838 499.285 774.77C496.702 781.567 495.411 789.179 495.411 797.607Z" fill="#2F3033"/>
<path d="M691.012 781.907H719.353C718.945 775.11 717.314 769.265 714.46 764.372C711.605 759.342 707.867 755.197 703.246 751.934C698.76 748.536 693.595 746.021 687.75 744.39C682.041 742.759 676.06 741.943 669.807 741.943C661.243 741.943 653.631 743.371 646.971 746.225C640.31 749.08 634.669 753.09 630.048 758.255C625.426 763.284 621.892 769.333 619.445 776.402C617.134 783.334 615.979 790.878 615.979 799.034C615.979 806.918 617.27 814.19 619.853 820.85C622.436 827.375 626.038 833.016 630.659 837.774C635.281 842.531 640.854 846.269 647.379 848.988C654.039 851.57 661.311 852.862 669.195 852.862C683.196 852.862 694.682 849.192 703.653 841.852C712.625 834.511 718.062 823.841 719.965 809.84H692.031C691.08 816.365 688.701 821.598 684.895 825.54C681.225 829.346 675.924 831.249 668.991 831.249C664.506 831.249 660.7 830.23 657.573 828.191C654.447 826.152 651.932 823.569 650.029 820.443C648.262 817.18 646.971 813.578 646.155 809.636C645.34 805.694 644.932 801.82 644.932 798.014C644.932 794.072 645.34 790.13 646.155 786.188C646.971 782.111 648.33 778.44 650.233 775.178C652.272 771.78 654.855 769.061 657.981 767.022C661.108 764.848 664.981 763.76 669.603 763.76C681.973 763.76 689.109 769.809 691.012 781.907Z" fill="#2F3033"/>
<path d="M734.894 704.631V850.211H763.847V813.918L775.061 803.112L804.014 850.211H839.084L794.839 783.538L834.598 744.798H800.344L763.847 782.722V704.631H734.894Z" fill="#2F3033"/>
<path d="M916.2 786.188H869.101C869.237 784.15 869.644 781.839 870.324 779.256C871.14 776.673 872.431 774.227 874.198 771.916C876.101 769.605 878.548 767.702 881.538 766.207C884.665 764.576 888.539 763.76 893.16 763.76C900.228 763.76 905.462 765.663 908.86 769.469C912.394 773.275 914.841 778.848 916.2 786.188ZM869.101 804.539H945.153C945.697 796.383 945.017 788.567 943.114 781.091C941.211 773.615 938.085 766.954 933.735 761.11C929.521 755.265 924.084 750.643 917.423 747.245C910.763 743.711 902.947 741.943 893.976 741.943C885.956 741.943 878.616 743.371 871.955 746.225C865.431 749.08 859.789 753.022 855.032 758.051C850.274 762.945 846.604 768.79 844.022 775.586C841.439 782.382 840.148 789.723 840.148 797.607C840.148 805.762 841.371 813.238 843.818 820.035C846.4 826.831 850.003 832.676 854.624 837.57C859.246 842.463 864.887 846.269 871.547 848.988C878.208 851.57 885.684 852.862 893.976 852.862C905.937 852.862 916.132 850.143 924.56 844.706C932.987 839.269 939.24 830.23 943.318 817.588H917.831C916.88 820.85 914.297 823.977 910.083 826.967C905.87 829.822 900.84 831.249 894.995 831.249C886.839 831.249 880.587 829.142 876.237 824.928C871.887 820.715 869.508 813.918 869.101 804.539Z" fill="#2F3033"/>
<path d="M958.247 744.798V850.211H987.2V802.704C987.2 797.946 987.676 793.529 988.627 789.451C989.579 785.373 991.142 781.839 993.317 778.848C995.628 775.722 998.618 773.275 1002.29 771.508C1005.96 769.741 1010.44 768.857 1015.75 768.857C1017.51 768.857 1019.35 768.993 1021.25 769.265C1023.15 769.401 1024.78 769.605 1026.14 769.877V742.963C1023.83 742.283 1021.73 741.943 1019.82 741.943C1016.15 741.943 1012.62 742.487 1009.22 743.575C1005.82 744.662 1002.63 746.225 999.637 748.264C996.647 750.167 993.996 752.546 991.685 755.4C989.375 758.119 987.54 761.109 986.18 764.372H985.773V744.798H958.247Z" fill="#2F3033"/>
<path d="M585.121 261.363V226.2C585.121 207.264 577.729 189.105 564.555 175.724C551.361 162.344 533.5 154.837 514.856 154.837H510.288C471.489 154.837 440.023 186.775 440.023 226.2V261.363C422.32 262.797 404.655 264.708 387.028 267.118V226.339C387.048 193.146 400.006 161.307 423.101 137.813C446.197 114.32 477.507 101.077 510.19 100.997H514.758C547.44 101.076 578.749 114.298 601.846 137.773C624.942 161.249 637.94 193.049 637.979 226.237V267.016C620.471 264.667 602.866 262.795 585.124 261.361L585.121 261.363ZM348.684 317.434C456.942 296.627 568.067 296.627 676.325 317.434L678.775 317.892C691.833 320.401 701.282 331.989 701.263 345.47V537.14C701.282 550.62 691.833 562.209 678.775 564.718L662.013 567.924C612.726 577.441 562.674 582.26 512.504 582.3C462.354 582.3 412.322 577.541 363.036 568.083L346.273 564.877V564.857C333.236 562.368 323.786 550.78 323.786 537.279V345.629C323.786 332.129 333.236 320.541 346.273 318.052L348.684 317.434ZM437.223 444.312L485.413 500.903V500.883C487.746 503.571 491.118 505.104 494.647 505.104C498.175 505.104 501.528 503.571 503.88 500.883L582.065 414.029C586.516 409.071 586.339 401.445 581.673 396.706L567.715 382.788C563.088 378.109 555.677 377.87 550.795 382.27L494.232 433.402L467.883 412.455C462.962 408.532 455.943 408.97 451.532 413.47L437.828 427.428C433.397 432.068 433.122 439.355 437.22 444.313L437.223 444.312Z" fill="#2157E4"/>
</g>
<defs>
<clipPath id="clip0">
<rect width="1024" height="1024" fill="white" transform="translate(0.501953)"/>
</clipPath>
</defs>
</svg>
