<svg width="1024" height="215" viewBox="0 0 1024 215" fill="none" xmlns="http://www.w3.org/2000/svg">
<g clip-path="url(#clip0)">
<path d="M253.328 174.861H298.345C330.164 174.861 349.666 156.385 349.666 122.073C349.666 89.6673 330.457 70.165 298.345 70.165H253.328V174.861ZM280.602 93.6264H293.506C312.128 93.6264 322.392 102.864 322.392 121.927C322.392 142.895 314.181 150.96 293.506 151.4H280.602V93.6264Z" fill="white"/>
<path d="M381.455 153.013C381.455 147.001 386.147 144.655 391.719 143.335C397.145 141.869 403.596 141.429 407.116 139.229C407.702 154.919 403.743 161.664 391.866 161.664C386.294 161.664 381.455 159.171 381.455 153.013ZM382.921 122.22C384.094 115.768 388.493 112.689 395.385 112.689C400.517 112.689 407.409 114.888 407.409 120.607C407.409 125.299 405.063 126.766 400.81 127.645C383.508 131.165 356.527 129.258 356.527 154.039C356.527 169.729 367.964 177.061 382.481 177.061C391.572 177.061 401.104 174.421 407.555 167.676C407.849 170.169 408.142 172.515 409.022 174.861H434.096C431.163 168.849 431.163 161.811 431.163 155.359V122.073C431.163 100.518 413.714 96.559 395.678 96.559C387.027 96.559 378.229 98.0254 371.484 101.838C364.739 105.797 360.046 112.249 359.606 122.22H382.921Z" fill="white"/>
<path d="M490.517 98.7585H475.12V75.7371H450.193V98.7585H437.582V114.888H450.193V148.761C450.193 169.436 455.618 175.594 476.88 175.594C481.425 175.594 485.971 175.008 490.517 174.861V156.532C488.317 156.532 486.118 156.825 484.065 156.825C478.639 156.825 475.12 155.506 475.12 149.494V114.888H490.517V98.7585Z" fill="white"/>
<path d="M519.502 153.013C519.502 147.001 524.194 144.655 529.766 143.335C535.192 141.869 541.644 141.429 545.163 139.229C545.749 154.919 541.79 161.664 529.913 161.664C524.341 161.664 519.502 159.171 519.502 153.013ZM520.968 122.22C522.141 115.768 526.54 112.689 533.432 112.689C538.564 112.689 545.456 114.888 545.456 120.607C545.456 125.299 543.11 126.766 538.858 127.645C521.555 131.165 494.574 129.258 494.574 154.039C494.574 169.729 506.012 177.061 520.528 177.061C529.62 177.061 539.151 174.421 545.603 167.676C545.896 170.169 546.189 172.515 547.069 174.861H572.143C569.211 168.849 569.211 161.811 569.211 155.359V122.073C569.211 100.518 551.761 96.559 533.725 96.559C525.074 96.559 516.276 98.0254 509.531 101.838C502.786 105.797 498.094 112.249 497.654 122.22H520.968Z" fill="white"/>
<path d="M583.548 174.861H608.475V70.165H583.548V174.861Z" fill="white"/>
<path d="M644.385 136.883C644.385 127.205 647.905 115.621 659.489 115.621C671.073 115.621 674.739 127.205 674.739 136.883C674.739 146.561 671.073 157.998 659.489 157.998C647.905 157.998 644.385 146.561 644.385 136.883ZM619.458 136.883C619.458 159.758 635.881 177.061 659.489 177.061C683.097 177.061 699.666 159.758 699.666 136.883C699.666 114.008 683.097 96.559 659.489 96.559C635.881 96.559 619.458 114.008 619.458 136.883Z" fill="white"/>
<path d="M783.589 126.619C781.829 106.53 764.966 96.559 746.051 96.559C721.563 96.559 706.166 113.862 706.166 138.056C706.166 161.371 723.176 177.061 746.051 177.061C766.286 177.061 782.122 165.33 784.322 144.948H760.127C758.954 153.013 754.555 157.998 745.904 157.998C735.346 157.998 731.094 147.881 731.094 138.056C731.094 127.499 733.293 115.621 747.224 115.621C753.529 115.621 759.248 120.167 759.394 126.619H783.589Z" fill="white"/>
<path d="M793.82 174.861H818.747V150.52L825.199 144.215L843.822 174.861H873.882L842.502 127.499L870.362 98.7585H841.476L818.747 124.126V70.165H793.82V174.861Z" fill="white"/>
<path d="M899.069 128.965C900.536 119.727 906.401 113.422 915.199 113.422C923.557 113.422 929.569 120.46 930.009 128.965H899.069ZM954.937 142.895C956.11 117.088 942.473 96.559 915.199 96.559C892.764 96.559 874.142 113.275 874.142 136.59C874.142 162.104 891.004 177.061 915.785 177.061C932.795 177.061 949.071 169.436 953.617 151.84H930.302C927.956 157.412 922.091 160.198 916.079 160.198C905.521 160.198 899.509 153.306 899.069 142.895H954.937Z" fill="white"/>
<path d="M965.396 174.861H990.323V137.176C990.323 127.645 996.775 119.141 1009.09 119.141C1012.46 119.141 1015.4 119.727 1018.62 120.607V97.8787C1016.72 97.4388 1014.66 97.2922 1012.76 97.2922C1002.05 97.2922 993.549 102.424 989.883 112.102H989.59V98.7585H965.396V174.861Z" fill="white"/>
<path d="M114.831 71.1094V56.1299C114.831 48.0634 111.685 40.3276 106.078 34.6276C100.464 28.9275 92.8629 25.7296 84.9286 25.7296H82.9847C66.4735 25.7296 53.0828 39.3351 53.0828 56.1299V71.1094C45.549 71.7201 38.0316 72.5344 30.5303 73.5608V56.1892C30.5387 42.0494 36.0534 28.4859 45.8817 18.4777C55.7101 8.46946 69.0344 2.82804 82.943 2.79395H84.887C98.795 2.82788 112.119 8.46012 121.948 18.4605C131.777 28.4611 137.308 42.0077 137.325 56.146V73.5176C129.874 72.5167 122.382 71.7193 114.832 71.1086L114.831 71.1094ZM14.2128 94.9954C60.2831 86.1315 107.573 86.1315 153.643 94.9954L154.686 95.1904C160.243 96.2592 164.264 101.196 164.256 106.938V188.589C164.264 194.332 160.243 199.268 154.686 200.337L147.553 201.703C126.578 205.757 105.278 207.81 83.9279 207.827C62.5861 207.827 41.2942 205.8 20.3202 201.771L13.1869 200.405V200.396C7.63857 199.336 3.61719 194.4 3.61719 188.648V107.006C3.61719 101.256 7.63857 96.3187 13.1869 95.2584L14.2128 94.9954ZM51.8913 149.045L72.3989 173.152V173.144C73.3917 174.289 74.8267 174.942 76.3284 174.942C77.8301 174.942 79.2569 174.289 80.2579 173.144L113.53 136.144C115.424 134.032 115.349 130.784 113.363 128.765L107.423 122.836C105.454 120.843 102.301 120.741 100.223 122.615L76.1519 144.397L64.9387 135.474C62.8446 133.803 59.8577 133.989 57.9805 135.906L52.1486 141.852C50.2631 143.829 50.1462 146.933 51.89 149.045L51.8913 149.045Z" fill="white"/>
</g>
<defs>
<clipPath id="clip0">
<rect width="1024" height="214.056" fill="white" transform="translate(0 0.550781)"/>
</clipPath>
</defs>
</svg>
