<svg width="1025" height="1024" viewBox="0 0 1025 1024" fill="none" xmlns="http://www.w3.org/2000/svg">
<g clip-path="url(#clip0)">
<path fill-rule="evenodd" clip-rule="evenodd" d="M989.987 369.105L1011.09 348.284V284.988L947.778 221.692H736.455L673.142 284.988V369.383V496.253L736.455 559.549H947.778L1011.09 496.253V432.679L989.987 411.58H884.464V432.679H800.046V348.284H884.464V369.105H989.987ZM103.042 559.556L124.146 538.457V453.785L229.669 559.556H314.364L335.469 538.457V369.385L440.989 475.154V538.45L462.093 559.549H546.511L567.616 538.45V475.154L673.138 369.383V284.988V242.791L652.034 221.692H567.616L546.511 242.791V284.988L504.302 327.185L462.093 284.988V242.791L440.989 221.692H356.571L335.466 242.791V242.795L314.364 221.699H229.669L208.564 242.798V327.192L103.042 221.699H18.624L-2.48047 242.798V538.457L18.624 559.556H103.042Z" fill="#2157E4"/>
<path d="M30.2558 374.444C30.2558 380.917 28.45 385.798 24.8384 389.087C21.2268 392.341 16.1849 393.968 9.7127 393.968H-1.06838V355.671H10.8391C14.7725 355.671 18.1874 356.386 21.0838 357.817C24.016 359.247 26.2687 361.357 27.8421 364.146C29.4512 366.899 30.2558 370.332 30.2558 374.444ZM23.0684 374.659C23.0684 370.082 22.0135 366.721 19.9038 364.575C17.8298 362.43 14.8082 361.357 10.8391 361.357H5.79719V388.229H9.92725C18.688 388.229 23.0684 383.706 23.0684 374.659ZM61.0326 393.968L57.5462 383.831H43.1178L39.685 393.968H32.3904L46.4433 355.51H54.2743L68.3273 393.968H61.0326ZM52.4507 368.061C52.3076 367.561 52.0931 366.881 51.807 366.023C51.521 365.165 51.2349 364.289 50.9488 363.395C50.6985 362.465 50.5019 361.697 50.3588 361.089C50.18 361.804 49.9476 362.626 49.6615 363.556C49.4112 364.486 49.1609 365.362 48.9106 366.184C48.6603 367.007 48.4815 367.632 48.3742 368.061L44.9951 377.931H55.7762L52.4507 368.061ZM83.3235 393.968H76.4579V361.464H65.4623V355.671H94.3191V361.464H83.3235V393.968ZM120.065 393.968L116.579 383.831H102.15L98.7174 393.968H91.4227L105.476 355.51H113.307L127.36 393.968H120.065ZM111.483 368.061C111.34 367.561 111.125 366.881 110.839 366.023C110.553 365.165 110.267 364.289 109.981 363.395C109.731 362.465 109.534 361.697 109.391 361.089C109.212 361.804 108.98 362.626 108.694 363.556C108.444 364.486 108.193 365.362 107.943 366.184C107.693 367.007 107.514 367.632 107.407 368.061L104.027 377.931H114.809L111.483 368.061ZM132.396 393.968V355.671H139.262V388.175H155.246V393.968H132.396ZM195.059 374.766C195.059 378.735 194.398 382.204 193.074 385.172C191.787 388.104 189.803 390.392 187.121 392.037C184.439 393.682 181.078 394.505 177.037 394.505C172.961 394.505 169.581 393.682 166.9 392.037C164.253 390.392 162.269 388.086 160.946 385.118C159.658 382.15 159.015 378.682 159.015 374.712C159.015 370.779 159.658 367.346 160.946 364.414C162.269 361.446 164.253 359.158 166.9 357.549C169.581 355.904 172.978 355.081 177.091 355.081C181.131 355.081 184.475 355.904 187.121 357.549C189.803 359.158 191.787 361.446 193.074 364.414C194.398 367.346 195.059 370.797 195.059 374.766ZM166.256 374.766C166.256 379.093 167.114 382.49 168.83 384.957C170.547 387.425 173.282 388.658 177.037 388.658C180.827 388.658 183.563 387.425 185.243 384.957C186.96 382.49 187.818 379.093 187.818 374.766C187.818 370.439 186.978 367.042 185.297 364.575C183.616 362.108 180.881 360.874 177.091 360.874C173.336 360.874 170.583 362.108 168.83 364.575C167.114 367.042 166.256 370.439 166.256 374.766ZM219.52 360.928C216.015 360.928 213.298 362.179 211.367 364.682C209.472 367.185 208.524 370.582 208.524 374.873C208.524 379.2 209.418 382.597 211.206 385.064C212.994 387.496 215.747 388.712 219.466 388.712C221.075 388.712 222.649 388.551 224.186 388.229C225.724 387.871 227.333 387.407 229.014 386.835V392.681C227.44 393.325 225.849 393.789 224.24 394.076C222.666 394.362 220.843 394.505 218.769 394.505C214.835 394.505 211.581 393.7 209.007 392.091C206.432 390.446 204.519 388.158 203.268 385.225C202.016 382.257 201.39 378.789 201.39 374.82C201.39 370.958 202.088 367.561 203.482 364.629C204.877 361.661 206.915 359.336 209.597 357.656C212.314 355.975 215.622 355.135 219.52 355.135C221.451 355.135 223.346 355.367 225.205 355.832C227.1 356.261 228.87 356.869 230.515 357.656L228.155 363.288C226.796 362.68 225.384 362.144 223.918 361.679C222.488 361.178 221.022 360.928 219.52 360.928ZM266.976 393.968H259.091L247.72 377.019L244.127 379.862V393.968H237.261V355.671H244.127V373.693C244.842 372.799 245.575 371.888 246.326 370.958C247.077 370.028 247.828 369.098 248.579 368.169L258.93 355.671H266.708L252.655 372.513L266.976 393.968ZM293.766 393.968H271.989V355.671H293.766V361.41H278.855V371.172H292.8V376.912H278.855V388.175H293.766V393.968ZM312.786 355.671C317.828 355.671 321.547 356.601 323.943 358.46C326.375 360.32 327.59 363.145 327.59 366.935C327.59 368.795 327.233 370.386 326.518 371.709C325.838 373.032 324.944 374.14 323.836 375.034C322.727 375.893 321.529 376.59 320.242 377.126L331.238 393.968H323.514L314.342 378.843H308.764V393.968H301.898V355.671H312.786ZM312.357 361.41H308.764V373.211H312.572C315.397 373.211 317.435 372.71 318.687 371.709C319.974 370.672 320.618 369.152 320.618 367.15C320.618 365.076 319.938 363.61 318.579 362.751C317.256 361.857 315.182 361.41 312.357 361.41Z" fill="#2157E4"/>
<path d="M99.0908 747.73H147.697C182.054 747.73 203.111 727.781 203.111 690.733C203.111 655.743 182.37 634.686 147.697 634.686H99.0908V747.73ZM128.539 660.018H142.472C162.579 660.018 173.662 669.992 173.662 690.575C173.662 713.215 164.796 721.923 142.472 722.398H128.539V660.018Z" fill="#2157E4"/>
<path d="M237.434 724.14C237.434 717.648 242.501 715.115 248.517 713.69C254.375 712.107 261.341 711.632 265.141 709.257C265.775 726.198 261.5 733.481 248.675 733.481C242.659 733.481 237.434 730.789 237.434 724.14ZM239.017 690.891C240.284 683.925 245.034 680.6 252.475 680.6C258.017 680.6 265.458 682.975 265.458 689.15C265.458 694.216 262.925 695.799 258.333 696.749C239.651 700.549 210.519 698.491 210.519 725.248C210.519 742.189 222.868 750.105 238.543 750.105C248.359 750.105 258.65 747.255 265.616 739.972C265.933 742.664 266.25 745.197 267.199 747.73H294.273C291.107 741.239 291.107 733.639 291.107 726.673V690.733C291.107 667.459 272.266 663.184 252.792 663.184C243.451 663.184 233.951 664.767 226.668 668.884C219.385 673.159 214.319 680.125 213.844 690.891H239.017Z" fill="#2157E4"/>
<path d="M355.193 665.559H338.569V640.702H311.653V665.559H298.037V682.975H311.653V719.548C311.653 741.872 317.511 748.522 340.468 748.522C345.377 748.522 350.285 747.889 355.193 747.73V727.939C352.818 727.939 350.443 728.256 348.226 728.256C342.368 728.256 338.569 726.831 338.569 720.34V682.975H355.193V665.559Z" fill="#2157E4"/>
<path d="M386.489 724.14C386.489 717.648 391.556 715.115 397.572 713.69C403.43 712.107 410.397 711.632 414.196 709.257C414.83 726.198 410.555 733.481 397.73 733.481C391.714 733.481 386.489 730.789 386.489 724.14ZM388.073 690.891C389.339 683.925 394.089 680.6 401.53 680.6C407.072 680.6 414.513 682.975 414.513 689.15C414.513 694.216 411.98 695.799 407.388 696.749C388.706 700.549 359.574 698.491 359.574 725.248C359.574 742.189 371.923 750.105 387.598 750.105C397.414 750.105 407.705 747.255 414.671 739.972C414.988 742.664 415.305 745.197 416.255 747.73H443.328C440.162 741.239 440.162 733.639 440.162 726.673V690.733C440.162 667.459 421.321 663.184 401.847 663.184C392.506 663.184 383.006 664.767 375.723 668.884C368.44 673.159 363.374 680.125 362.899 690.891H388.073Z" fill="#2157E4"/>
<path d="M455.642 747.73H482.557V634.686H455.642V747.73Z" fill="#2157E4"/>
<path d="M521.331 706.724C521.331 696.274 525.131 683.767 537.639 683.767C550.146 683.767 554.104 696.274 554.104 706.724C554.104 717.173 550.146 729.523 537.639 729.523C525.131 729.523 521.331 717.173 521.331 706.724ZM494.416 706.724C494.416 731.423 512.148 750.105 537.639 750.105C563.129 750.105 581.02 731.423 581.02 706.724C581.02 682.025 563.129 663.184 537.639 663.184C512.148 663.184 494.416 682.025 494.416 706.724Z" fill="#2157E4"/>
<path d="M671.634 695.641C669.734 673.95 651.527 663.184 631.103 663.184C604.662 663.184 588.038 681.867 588.038 707.99C588.038 733.164 606.404 750.105 631.103 750.105C652.952 750.105 670.051 737.439 672.426 715.432H646.302C645.035 724.14 640.286 729.523 630.945 729.523C619.545 729.523 614.954 718.598 614.954 707.99C614.954 696.591 617.328 683.767 632.369 683.767C639.177 683.767 645.352 688.675 645.51 695.641H671.634Z" fill="#2157E4"/>
<path d="M682.681 747.73H709.597V721.448L716.563 714.64L736.67 747.73H769.127L735.245 696.591L765.327 665.559H734.137L709.597 692.949V634.686H682.681V747.73Z" fill="#2157E4"/>
<path d="M796.323 698.174C797.907 688.2 804.24 681.392 813.739 681.392C822.764 681.392 829.255 688.991 829.73 698.174H796.323ZM856.645 713.215C857.912 685.35 843.188 663.184 813.739 663.184C789.515 663.184 769.408 681.233 769.408 706.407C769.408 733.956 787.615 750.105 814.372 750.105C832.738 750.105 850.312 741.872 855.22 722.873H830.047C827.513 728.889 821.18 731.898 814.689 731.898C803.29 731.898 796.798 724.456 796.323 713.215H856.645Z" fill="#2157E4"/>
<path d="M867.938 747.73H894.854V707.04C894.854 696.749 901.82 687.566 915.12 687.566C918.761 687.566 921.928 688.2 925.411 689.15V664.609C923.353 664.134 921.136 663.976 919.078 663.976C907.52 663.976 898.337 669.517 894.379 679.967H894.062V665.559H867.938V747.73Z" fill="#2157E4"/>
</g>
<defs>
<clipPath id="clip0">
<rect width="1024" height="1024" fill="white" transform="translate(0.251953)"/>
</clipPath>
</defs>
</svg>
