<svg width="1025" height="1024" viewBox="0 0 1025 1024" fill="none" xmlns="http://www.w3.org/2000/svg">
<g clip-path="url(#clip0)">
<path d="M135.884 807.202V733.399H154.252C160.594 733.399 165.897 734.328 170.161 736.187C174.535 737.936 178.033 740.506 180.657 743.895C183.282 747.285 185.14 751.385 186.234 756.196C187.436 760.897 188.038 766.2 188.038 772.104C188.038 778.555 187.218 784.022 185.578 788.505C183.938 792.988 181.751 796.651 179.017 799.493C176.284 802.227 173.168 804.195 169.669 805.398C166.17 806.6 162.562 807.202 158.845 807.202H135.884ZM110.135 711.75V828.85H160.649C169.614 828.85 177.377 827.374 183.938 824.422C190.607 821.361 196.129 817.206 200.502 811.958C204.985 806.71 208.32 800.477 210.507 793.261C212.693 786.045 213.787 778.173 213.787 769.644C213.787 759.913 212.42 751.44 209.687 744.223C207.062 737.007 203.345 730.993 198.534 726.183C193.833 721.372 188.202 717.764 181.641 715.358C175.191 712.953 168.193 711.75 160.649 711.75H110.135Z" fill="#2157E4"/>
<path d="M224.974 770.136C225.302 764.669 226.668 760.132 229.074 756.524C231.479 752.916 234.541 750.018 238.258 747.831C241.976 745.645 246.131 744.114 250.723 743.239C255.424 742.255 260.126 741.763 264.827 741.763C269.091 741.763 273.41 742.091 277.784 742.747C282.157 743.294 286.148 744.442 289.756 746.191C293.364 747.941 296.316 750.401 298.612 753.572C300.909 756.633 302.057 760.733 302.057 765.872V809.99C302.057 813.817 302.275 817.479 302.713 820.978C303.15 824.477 303.915 827.101 305.009 828.85H281.392C280.954 827.538 280.572 826.226 280.244 824.914C280.025 823.493 279.861 822.072 279.752 820.65C276.034 824.477 271.661 827.156 266.631 828.686C261.602 830.217 256.463 830.983 251.215 830.983C247.169 830.983 243.397 830.491 239.898 829.506C236.399 828.522 233.338 826.992 230.714 824.914C228.09 822.837 226.012 820.213 224.482 817.042C223.06 813.871 222.35 810.099 222.35 805.726C222.35 800.915 223.17 796.979 224.81 793.917C226.559 790.746 228.746 788.232 231.37 786.373C234.103 784.514 237.165 783.147 240.554 782.273C244.053 781.289 247.552 780.523 251.051 779.977C254.549 779.43 257.994 778.993 261.383 778.665C264.773 778.337 267.779 777.845 270.403 777.188C273.028 776.532 275.105 775.603 276.636 774.4C278.166 773.088 278.877 771.23 278.768 768.824C278.768 766.309 278.33 764.341 277.456 762.92C276.69 761.389 275.597 760.241 274.176 759.476C272.864 758.601 271.278 758.054 269.419 757.836C267.67 757.508 265.757 757.344 263.679 757.344C259.087 757.344 255.479 758.328 252.855 760.296C250.231 762.264 248.7 765.544 248.263 770.136H224.974ZM278.768 787.357C277.784 788.232 276.526 788.942 274.996 789.489C273.574 789.926 271.989 790.309 270.239 790.637C268.599 790.965 266.85 791.238 264.991 791.457C263.132 791.676 261.274 791.949 259.415 792.277C257.666 792.605 255.916 793.042 254.167 793.589C252.527 794.136 251.051 794.901 249.739 795.885C248.536 796.76 247.552 797.908 246.787 799.329C246.021 800.751 245.638 802.555 245.638 804.742C245.638 806.819 246.021 808.568 246.787 809.99C247.552 811.411 248.591 812.559 249.903 813.434C251.215 814.199 252.745 814.746 254.495 815.074C256.244 815.402 258.048 815.566 259.907 815.566C264.499 815.566 268.053 814.801 270.567 813.27C273.082 811.739 274.941 809.935 276.144 807.858C277.346 805.671 278.057 803.484 278.276 801.297C278.604 799.111 278.768 797.361 278.768 796.049V787.357Z" fill="#2157E4"/>
<path d="M346.374 744.059V718.638H323.085V744.059H308.981V759.64H323.085V809.662C323.085 813.926 323.796 817.37 325.217 819.994C326.639 822.618 328.552 824.641 330.958 826.062C333.472 827.484 336.315 828.413 339.486 828.85C342.766 829.397 346.21 829.67 349.818 829.67C352.114 829.67 354.465 829.616 356.871 829.506C359.276 829.397 361.463 829.178 363.431 828.85V810.81C362.337 811.028 361.189 811.192 359.987 811.302C358.784 811.411 357.527 811.466 356.215 811.466C352.278 811.466 349.654 810.81 348.342 809.498C347.03 808.186 346.374 805.562 346.374 801.625V759.64H363.431V744.059H346.374Z" fill="#2157E4"/>
<path d="M370.247 770.136C370.575 764.669 371.942 760.132 374.348 756.524C376.753 752.916 379.814 750.018 383.532 747.831C387.249 745.645 391.404 744.114 395.996 743.239C400.698 742.255 405.399 741.763 410.101 741.763C414.365 741.763 418.684 742.091 423.057 742.747C427.431 743.294 431.422 744.442 435.03 746.191C438.638 747.941 441.59 750.401 443.886 753.572C446.182 756.633 447.33 760.733 447.33 765.872V809.99C447.33 813.817 447.549 817.479 447.986 820.978C448.424 824.477 449.189 827.101 450.282 828.85H426.666C426.228 827.538 425.845 826.226 425.517 824.914C425.299 823.493 425.135 822.072 425.025 820.65C421.308 824.477 416.934 827.156 411.905 828.686C406.875 830.217 401.737 830.983 396.488 830.983C392.443 830.983 388.671 830.491 385.172 829.506C381.673 828.522 378.612 826.992 375.988 824.914C373.363 822.837 371.286 820.213 369.755 817.042C368.334 813.871 367.623 810.099 367.623 805.726C367.623 800.915 368.443 796.979 370.083 793.917C371.833 790.746 374.02 788.232 376.644 786.373C379.377 784.514 382.438 783.147 385.828 782.273C389.327 781.289 392.826 780.523 396.324 779.977C399.823 779.43 403.267 778.993 406.657 778.665C410.046 778.337 413.053 777.845 415.677 777.188C418.301 776.532 420.379 775.603 421.909 774.4C423.44 773.088 424.151 771.23 424.041 768.824C424.041 766.309 423.604 764.341 422.729 762.92C421.964 761.389 420.871 760.241 419.449 759.476C418.137 758.601 416.552 758.054 414.693 757.836C412.944 757.508 411.03 757.344 408.953 757.344C404.361 757.344 400.753 758.328 398.128 760.296C395.504 762.264 393.974 765.544 393.536 770.136H370.247ZM424.041 787.357C423.057 788.232 421.8 788.942 420.269 789.489C418.848 789.926 417.262 790.309 415.513 790.637C413.873 790.965 412.124 791.238 410.265 791.457C408.406 791.676 406.547 791.949 404.689 792.277C402.939 792.605 401.19 793.042 399.44 793.589C397.8 794.136 396.324 794.901 395.012 795.885C393.81 796.76 392.826 797.908 392.06 799.329C391.295 800.751 390.912 802.555 390.912 804.742C390.912 806.819 391.295 808.568 392.06 809.99C392.826 811.411 393.864 812.559 395.176 813.434C396.488 814.199 398.019 814.746 399.768 815.074C401.518 815.402 403.322 815.566 405.181 815.566C409.773 815.566 413.326 814.801 415.841 813.27C418.356 811.739 420.215 809.935 421.417 807.858C422.62 805.671 423.331 803.484 423.549 801.297C423.877 799.111 424.041 797.361 424.041 796.049V787.357Z" fill="#2157E4"/>
<path d="M462.783 711.75V828.85H486.072V711.75H462.783Z" fill="#2157E4"/>
<path d="M521.794 786.537C521.794 783.147 522.122 779.813 522.778 776.532C523.434 773.252 524.528 770.355 526.058 767.84C527.698 765.325 529.831 763.303 532.455 761.772C535.079 760.132 538.359 759.312 542.295 759.312C546.231 759.312 549.511 760.132 552.135 761.772C554.869 763.303 557.001 765.325 558.532 767.84C560.172 770.355 561.32 773.252 561.976 776.532C562.632 779.813 562.96 783.147 562.96 786.537C562.96 789.926 562.632 793.261 561.976 796.541C561.32 799.712 560.172 802.609 558.532 805.234C557.001 807.748 554.869 809.771 552.135 811.302C549.511 812.833 546.231 813.598 542.295 813.598C538.359 813.598 535.079 812.833 532.455 811.302C529.831 809.771 527.698 807.748 526.058 805.234C524.528 802.609 523.434 799.712 522.778 796.541C522.122 793.261 521.794 789.926 521.794 786.537ZM498.505 786.537C498.505 793.316 499.544 799.439 501.621 804.906C503.699 810.372 506.651 815.074 510.478 819.01C514.305 822.837 518.897 825.789 524.254 827.866C529.612 829.944 535.625 830.983 542.295 830.983C548.965 830.983 554.978 829.944 560.336 827.866C565.803 825.789 570.449 822.837 574.276 819.01C578.103 815.074 581.055 810.372 583.133 804.906C585.21 799.439 586.249 793.316 586.249 786.537C586.249 779.758 585.21 773.635 583.133 768.168C581.055 762.592 578.103 757.89 574.276 754.064C570.449 750.127 565.803 747.121 560.336 745.043C554.978 742.857 548.965 741.763 542.295 741.763C535.625 741.763 529.612 742.857 524.254 745.043C518.897 747.121 514.305 750.127 510.478 754.064C506.651 757.89 503.699 762.592 501.621 768.168C499.544 773.635 498.505 779.758 498.505 786.537Z" fill="#2157E4"/>
<path d="M655.841 773.908H678.638C678.31 768.441 676.998 763.74 674.702 759.804C672.406 755.758 669.399 752.424 665.681 749.799C662.073 747.066 657.918 745.043 653.217 743.731C648.625 742.419 643.814 741.763 638.784 741.763C631.896 741.763 625.773 742.911 620.416 745.207C615.058 747.503 610.521 750.729 606.803 754.884C603.086 758.929 600.243 763.795 598.275 769.48C596.416 775.056 595.487 781.125 595.487 787.685C595.487 794.026 596.525 799.876 598.603 805.234C600.68 810.482 603.578 815.019 607.295 818.846C611.013 822.673 615.496 825.68 620.744 827.866C626.101 829.944 631.951 830.983 638.292 830.983C649.554 830.983 658.793 828.03 666.01 822.126C673.226 816.222 677.599 807.639 679.13 796.377H656.661C655.896 801.625 653.982 805.835 650.921 809.006C647.969 812.067 643.705 813.598 638.128 813.598C634.52 813.598 631.459 812.778 628.944 811.138C626.429 809.498 624.407 807.42 622.876 804.906C621.454 802.281 620.416 799.384 619.76 796.213C619.104 793.042 618.776 789.926 618.776 786.865C618.776 783.694 619.104 780.523 619.76 777.352C620.416 774.072 621.509 771.12 623.04 768.496C624.68 765.763 626.757 763.576 629.272 761.936C631.787 760.187 634.903 759.312 638.62 759.312C648.57 759.312 654.31 764.177 655.841 773.908Z" fill="#2157E4"/>
<path d="M691.138 711.75V828.85H714.427V799.657L723.448 790.965L746.737 828.85H774.946L739.356 775.22L771.337 744.059H743.784L714.427 774.564V711.75H691.138Z" fill="#2157E4"/>
<path d="M836.976 777.352H799.09C799.2 775.712 799.528 773.854 800.074 771.776C800.73 769.699 801.769 767.731 803.19 765.872C804.721 764.013 806.689 762.483 809.095 761.28C811.609 759.968 814.726 759.312 818.443 759.312C824.129 759.312 828.338 760.843 831.071 763.904C833.914 766.965 835.882 771.448 836.976 777.352ZM799.09 792.113H860.265C860.702 785.553 860.155 779.266 858.625 773.252C857.094 767.239 854.579 761.881 851.08 757.18C847.691 752.478 843.317 748.761 837.96 746.027C832.602 743.185 826.315 741.763 819.099 741.763C812.648 741.763 806.744 742.911 801.386 745.207C796.138 747.503 791.601 750.674 787.774 754.72C783.947 758.656 780.995 763.357 778.918 768.824C776.84 774.291 775.801 780.195 775.801 786.537C775.801 793.097 776.785 799.111 778.753 804.578C780.831 810.044 783.728 814.746 787.446 818.682C791.163 822.618 795.701 825.68 801.058 827.866C806.416 829.944 812.429 830.983 819.099 830.983C828.721 830.983 836.921 828.796 843.7 824.422C850.479 820.049 855.508 812.778 858.789 802.609H838.288C837.522 805.234 835.445 807.748 832.056 810.154C828.666 812.45 824.621 813.598 819.919 813.598C813.359 813.598 808.329 811.903 804.831 808.514C801.332 805.124 799.418 799.657 799.09 792.113Z" fill="#2157E4"/>
<path d="M870.797 744.059V828.85H894.086V790.637C894.086 786.81 894.468 783.257 895.234 779.977C895.999 776.696 897.257 773.854 899.006 771.448C900.865 768.934 903.27 766.965 906.222 765.544C909.174 764.123 912.783 763.412 917.047 763.412C918.468 763.412 919.944 763.521 921.475 763.74C923.006 763.849 924.318 764.013 925.411 764.232V742.583C923.552 742.036 921.858 741.763 920.327 741.763C917.375 741.763 914.532 742.2 911.799 743.075C909.065 743.95 906.496 745.207 904.09 746.847C901.685 748.378 899.553 750.291 897.694 752.588C895.835 754.774 894.359 757.18 893.266 759.804H892.938V744.059H870.797Z" fill="#2157E4"/>
<path fill-rule="evenodd" clip-rule="evenodd" d="M1002.28 416.915L1023.57 395.916V332.077L959.709 268.238H746.575L682.719 332.077V417.195V545.153L746.575 608.992H959.709L1023.57 545.153V481.034L1002.28 459.755H895.853V481.034H810.711V395.916H895.853V416.915H1002.28ZM107.73 608.998L129.015 587.718V502.32L235.442 608.998H320.864L342.15 587.718V417.197L448.576 523.874V587.713L469.862 608.993H555.004L576.289 587.713V523.874L682.716 417.196V332.078V289.519L661.431 268.239H576.289L555.004 289.519V332.078L512.433 374.637L469.862 332.078V289.519L448.576 268.239H363.435L342.149 289.519V289.523L320.864 268.244H235.442L214.157 289.524V374.642L107.73 268.244H22.5882L1.30273 289.524V587.718L22.5882 608.998H107.73Z" fill="#2157E4"/>
<path d="M34.3239 422.813C34.3239 429.34 32.5027 434.263 28.8601 437.581C25.2176 440.863 20.1325 442.504 13.6047 442.504H2.73122V403.879H14.7408C18.7079 403.879 22.1521 404.6 25.0733 406.042C28.0306 407.485 30.3027 409.613 31.8896 412.426C33.5125 415.203 34.3239 418.665 34.3239 422.813ZM27.0749 423.029C27.0749 418.413 26.011 415.023 23.8832 412.859C21.7914 410.695 18.744 409.613 14.7408 409.613H9.65565V436.716H13.8211C22.657 436.716 27.0749 432.153 27.0749 423.029ZM65.3647 442.504L61.8483 432.28H47.2962L43.834 442.504H36.4768L50.6503 403.716H58.5484L72.7219 442.504H65.3647ZM56.7091 416.375C56.5649 415.87 56.3485 415.185 56.06 414.319C55.7714 413.454 55.4829 412.57 55.1944 411.669C54.942 410.731 54.7436 409.955 54.5993 409.342C54.419 410.064 54.1846 410.893 53.8961 411.831C53.6436 412.769 53.3912 413.652 53.1387 414.482C52.8863 415.311 52.7059 415.942 52.5977 416.375L49.1896 426.329H60.0631L56.7091 416.375ZM87.8466 442.504H80.9222V409.721H69.8323V403.879H98.9366V409.721H87.8466V442.504ZM124.903 442.504L121.387 432.28H106.835L103.373 442.504H96.0153L110.189 403.716H118.087L132.26 442.504H124.903ZM116.248 416.375C116.103 415.87 115.887 415.185 115.598 414.319C115.31 413.454 115.021 412.57 114.733 411.669C114.48 410.731 114.282 409.955 114.138 409.342C113.958 410.064 113.723 410.893 113.435 411.831C113.182 412.769 112.93 413.652 112.677 414.482C112.425 415.311 112.244 415.942 112.136 416.375L108.728 426.329H119.602L116.248 416.375ZM137.34 442.504V403.879H144.264V436.661H160.385V442.504H137.34ZM200.54 423.137C200.54 427.14 199.873 430.639 198.539 433.632C197.24 436.589 195.239 438.897 192.534 440.556C189.829 442.215 186.439 443.045 182.364 443.045C178.252 443.045 174.844 442.215 172.139 440.556C169.47 438.897 167.469 436.571 166.134 433.578C164.836 430.585 164.187 427.086 164.187 423.083C164.187 419.116 164.836 415.654 166.134 412.696C167.469 409.703 169.47 407.395 172.139 405.772C174.844 404.113 178.27 403.284 182.418 403.284C186.493 403.284 189.865 404.113 192.534 405.772C195.239 407.395 197.24 409.703 198.539 412.696C199.873 415.654 200.54 419.134 200.54 423.137ZM171.49 423.137C171.49 427.501 172.356 430.927 174.087 433.416C175.818 435.904 178.577 437.148 182.364 437.148C186.186 437.148 188.945 435.904 190.64 433.416C192.372 430.927 193.237 427.501 193.237 423.137C193.237 418.773 192.39 415.347 190.694 412.859C188.999 410.37 186.241 409.126 182.418 409.126C178.631 409.126 175.854 410.37 174.087 412.859C172.356 415.347 171.49 418.773 171.49 423.137ZM225.211 409.18C221.676 409.18 218.935 410.442 216.988 412.967C215.076 415.491 214.121 418.918 214.121 423.245C214.121 427.609 215.022 431.035 216.826 433.524C218.629 435.976 221.406 437.202 225.156 437.202C226.779 437.202 228.366 437.04 229.917 436.716C231.468 436.355 233.091 435.886 234.786 435.309V441.206C233.199 441.855 231.594 442.324 229.971 442.612C228.384 442.901 226.545 443.045 224.453 443.045C220.486 443.045 217.204 442.233 214.608 440.611C212.011 438.952 210.081 436.643 208.819 433.686C207.557 430.693 206.926 427.194 206.926 423.191C206.926 419.296 207.629 415.87 209.036 412.913C210.442 409.919 212.498 407.575 215.203 405.88C217.944 404.185 221.279 403.338 225.211 403.338C227.158 403.338 229.069 403.572 230.945 404.041C232.856 404.474 234.641 405.087 236.3 405.88L233.92 411.56C232.55 410.947 231.125 410.406 229.647 409.937C228.204 409.433 226.725 409.18 225.211 409.18ZM273.074 442.504H265.122L253.653 425.409L250.028 428.276V442.504H243.104V403.879H250.028V422.055C250.75 421.154 251.489 420.234 252.246 419.296C253.004 418.359 253.761 417.421 254.518 416.483L264.959 403.879H272.803L258.63 420.865L273.074 442.504ZM300.093 442.504H278.13V403.879H300.093V409.667H285.054V419.513H299.119V425.301H285.054V436.661H300.093V442.504ZM319.277 403.879C324.362 403.879 328.113 404.816 330.529 406.692C332.982 408.567 334.208 411.416 334.208 415.239C334.208 417.114 333.847 418.719 333.126 420.054C332.441 421.388 331.539 422.506 330.421 423.408C329.303 424.273 328.095 424.976 326.796 425.517L337.886 442.504H330.096L320.846 427.249H315.22V442.504H308.295V403.879H319.277ZM318.844 409.667H315.22V421.568H319.061C321.91 421.568 323.965 421.063 325.228 420.054C326.526 419.008 327.175 417.475 327.175 415.455C327.175 413.364 326.49 411.885 325.119 411.019C323.785 410.118 321.693 409.667 318.844 409.667Z" fill="#2157E4"/>
</g>
<defs>
<clipPath id="clip0">
<rect width="1024" height="1024" fill="white" transform="translate(0.251953)"/>
</clipPath>
</defs>
</svg>
