<svg width="1025" height="1024" viewBox="0 0 1025 1024" fill="none" xmlns="http://www.w3.org/2000/svg">
<g clip-path="url(#clip0)">
<path fill-rule="evenodd" clip-rule="evenodd" d="M989.156 398.296L1010.22 377.511V314.324L947.021 251.138H736.065L672.861 314.324V398.573V525.223L736.065 588.409H947.021L1010.22 525.223V461.759L989.156 440.697H883.817V461.759H799.546V377.511H883.817V398.296H989.156ZM103.75 588.416L124.818 567.354V482.828L230.158 588.416H314.706L335.774 567.354V398.576L441.111 504.16V567.347L462.179 588.409H546.45L567.518 567.347V504.16L672.857 398.573V314.324V272.2L651.79 251.138H567.518L546.45 272.2V314.324L504.315 356.449L462.179 314.324V272.2L441.111 251.138H356.839L335.772 272.2V272.205L314.706 251.145H230.158L209.09 272.207V356.456L103.75 251.145H19.479L-1.58887 272.207V567.354L19.479 588.416H103.75Z" fill="#2157E4"/>
<path d="M31.0912 403.724C31.0912 410.185 29.2885 415.058 25.6832 418.342C22.0779 421.59 17.0448 423.214 10.5838 423.214H-0.178597V384.984H11.7082C15.6348 384.984 19.0438 385.698 21.9351 387.126C24.8622 388.553 27.1111 390.66 28.6817 393.444C30.288 396.192 31.0912 399.619 31.0912 403.724ZM23.9163 403.938C23.9163 399.369 22.8632 396.014 20.7572 393.872C18.6868 391.73 15.6705 390.66 11.7082 390.66H6.67506V417.485H10.798C19.5435 417.485 23.9163 412.97 23.9163 403.938ZM61.8147 423.214L58.3343 413.095H43.9309L40.5041 423.214H33.2221L47.2507 384.823H55.0681L69.0967 423.214H61.8147ZM53.2476 397.353C53.1048 396.853 52.8906 396.175 52.6051 395.318C52.3195 394.461 52.0339 393.587 51.7484 392.694C51.4985 391.766 51.3022 390.999 51.1594 390.392C50.9809 391.106 50.7489 391.927 50.4633 392.855C50.2134 393.783 49.9636 394.657 49.7137 395.478C49.4638 396.299 49.2853 396.924 49.1782 397.353L45.805 407.205H56.5673L53.2476 397.353ZM84.0669 423.214H77.2132V390.767H66.2367V384.984H95.0434V390.767H84.0669V423.214ZM120.745 423.214L117.264 413.095H102.861L99.434 423.214H92.152L106.181 384.823H113.998L128.027 423.214H120.745ZM112.178 397.353C112.035 396.853 111.821 396.175 111.535 395.318C111.249 394.461 110.964 393.587 110.678 392.694C110.428 391.766 110.232 390.999 110.089 390.392C109.911 391.106 109.679 391.927 109.393 392.855C109.143 393.783 108.893 394.657 108.644 395.478C108.394 396.299 108.215 396.924 108.108 397.353L104.735 407.205H115.497L112.178 397.353ZM133.054 423.214V384.984H139.908V417.432H155.864V423.214H133.054ZM195.609 404.046C195.609 408.008 194.948 411.47 193.627 414.433C192.342 417.36 190.361 419.645 187.684 421.287C185.007 422.929 181.651 423.75 177.618 423.75C173.548 423.75 170.175 422.929 167.498 421.287C164.856 419.645 162.875 417.342 161.554 414.38C160.269 411.417 159.627 407.954 159.627 403.992C159.627 400.065 160.269 396.639 161.554 393.712C162.875 390.749 164.856 388.464 167.498 386.858C170.175 385.216 173.566 384.395 177.671 384.395C181.705 384.395 185.042 385.216 187.684 386.858C190.361 388.464 192.342 390.749 193.627 393.712C194.948 396.639 195.609 400.083 195.609 404.046ZM166.855 404.046C166.855 408.365 167.712 411.756 169.425 414.219C171.139 416.682 173.87 417.913 177.618 417.913C181.401 417.913 184.132 416.682 185.81 414.219C187.523 411.756 188.38 408.365 188.38 404.046C188.38 399.726 187.541 396.335 185.864 393.872C184.186 391.409 181.455 390.178 177.671 390.178C173.923 390.178 171.175 391.409 169.425 393.872C167.712 396.335 166.855 399.726 166.855 404.046ZM220.027 390.231C216.529 390.231 213.816 391.481 211.888 393.979C209.996 396.478 209.05 399.869 209.05 404.153C209.05 408.472 209.943 411.863 211.727 414.326C213.512 416.753 216.261 417.967 219.973 417.967C221.58 417.967 223.15 417.806 224.685 417.485C226.22 417.128 227.826 416.664 229.504 416.093V421.929C227.933 422.572 226.345 423.036 224.739 423.321C223.168 423.607 221.348 423.75 219.277 423.75C215.351 423.75 212.102 422.947 209.532 421.34C206.962 419.698 205.052 417.414 203.803 414.487C202.554 411.524 201.929 408.061 201.929 404.099C201.929 400.244 202.625 396.853 204.017 393.926C205.409 390.963 207.444 388.643 210.121 386.965C212.834 385.287 216.136 384.448 220.027 384.448C221.954 384.448 223.846 384.68 225.702 385.144C227.594 385.573 229.361 386.18 231.003 386.965L228.647 392.587C227.291 391.98 225.881 391.445 224.417 390.981C222.99 390.481 221.526 390.231 220.027 390.231ZM267.401 423.214H259.53L248.178 406.294L244.591 409.132V423.214H237.737V384.984H244.591V402.975C245.305 402.082 246.037 401.172 246.786 400.244C247.536 399.316 248.286 398.388 249.035 397.46L259.369 384.984H267.133L253.105 401.797L267.401 423.214ZM294.144 423.214H272.405V384.984H294.144V390.713H279.259V400.458H293.18V406.187H279.259V417.432H294.144V423.214ZM313.132 384.984C318.165 384.984 321.877 385.912 324.269 387.768C326.696 389.624 327.91 392.444 327.91 396.228C327.91 398.084 327.553 399.673 326.839 400.994C326.161 402.314 325.268 403.421 324.162 404.313C323.055 405.17 321.859 405.866 320.574 406.401L331.551 423.214H323.841L314.684 408.115H309.116V423.214H302.262V384.984H313.132ZM312.703 390.713H309.116V402.493H312.918C315.738 402.493 317.772 401.993 319.022 400.994C320.307 399.958 320.949 398.441 320.949 396.442C320.949 394.372 320.271 392.908 318.914 392.052C317.594 391.159 315.523 390.713 312.703 390.713Z" fill="#2157E4"/>
<path d="M25.9008 737.208V671.715H42.2013C47.8289 671.715 52.5347 672.539 56.3187 674.189C60.1998 675.741 63.3046 678.021 65.6332 681.029C67.9619 684.037 69.6113 687.676 70.5816 691.945C71.6489 696.117 72.1825 700.823 72.1825 706.062C72.1825 711.787 71.4549 716.638 69.9995 720.616C68.544 724.594 66.6035 727.845 64.1778 730.367C61.7522 732.793 58.9869 734.539 55.8821 735.607C52.7772 736.674 49.5753 737.208 46.2764 737.208H25.9008ZM3.05105 652.503V756.419H47.8774C55.8336 756.419 62.7225 755.109 68.5441 752.489C74.4627 749.773 79.3625 746.086 83.2436 741.428C87.2217 736.771 90.181 731.241 92.1215 724.837C94.0621 718.433 95.0323 711.447 95.0323 703.879C95.0323 695.244 93.8195 687.724 91.3938 681.32C89.0652 674.917 85.7663 669.58 81.4971 665.311C77.325 661.042 72.3281 657.84 66.5065 655.705C60.7819 653.571 54.5722 652.503 47.8774 652.503H3.05105ZM142.946 716.25L156.481 678.118H156.772L169.871 716.25H142.946ZM145.129 652.503L105.833 756.419H128.828L136.979 733.278H175.838L183.697 756.419H207.42L168.561 652.503H145.129ZM231.838 671.715V756.419H254.687V671.715H285.833V652.503H200.692V671.715H231.838ZM316.474 716.25L330.009 678.118H330.3L343.399 716.25H316.474ZM318.657 652.503L279.361 756.419H302.356L310.507 733.278H349.366L357.225 756.419H380.948L342.089 652.503H318.657ZM395.73 652.503V756.419H469.228V737.208H418.58V652.503H395.73ZM506.162 704.898C506.162 700.338 506.647 695.923 507.618 691.654C508.685 687.384 510.334 683.6 512.566 680.302C514.798 676.906 517.709 674.237 521.299 672.297C524.888 670.259 529.255 669.24 534.397 669.24C539.54 669.24 543.906 670.259 547.496 672.297C551.086 674.237 553.996 676.906 556.228 680.302C558.46 683.6 560.061 687.384 561.031 691.654C562.098 695.923 562.632 700.338 562.632 704.898C562.632 709.264 562.098 713.533 561.031 717.705C560.061 721.78 558.46 725.467 556.228 728.766C553.996 732.065 551.086 734.733 547.496 736.771C543.906 738.712 539.54 739.682 534.397 739.682C529.255 739.682 524.888 738.712 521.299 736.771C517.709 734.733 514.798 732.065 512.566 728.766C510.334 725.467 508.685 721.78 507.618 717.705C506.647 713.533 506.162 709.264 506.162 704.898ZM483.313 704.898C483.313 712.466 484.477 719.549 486.806 726.147C489.134 732.647 492.482 738.323 496.848 743.175C501.214 748.026 506.55 751.859 512.857 754.672C519.261 757.389 526.441 758.748 534.397 758.748C542.45 758.748 549.63 757.389 555.937 754.672C562.244 751.859 567.58 748.026 571.946 743.175C576.313 738.323 579.66 732.647 581.989 726.147C584.317 719.549 585.482 712.466 585.482 704.898C585.482 697.136 584.317 689.956 581.989 683.358C579.66 676.663 576.313 670.841 571.946 665.893C567.58 660.945 562.244 657.064 555.937 654.25C549.63 651.436 542.45 650.029 534.397 650.029C526.441 650.029 519.261 651.436 512.857 654.25C506.55 657.064 501.214 660.945 496.848 665.893C492.482 670.841 489.134 676.663 486.806 683.358C484.477 689.956 483.313 697.136 483.313 704.898ZM676.2 687.433H698.322C697.643 681.417 695.993 676.081 693.373 671.424C690.754 666.766 687.406 662.885 683.331 659.78C679.353 656.579 674.793 654.153 669.65 652.503C664.605 650.854 659.22 650.029 653.495 650.029C645.539 650.029 638.359 651.436 631.956 654.25C625.649 657.064 620.312 660.945 615.946 665.893C611.58 670.841 608.232 676.663 605.904 683.358C603.575 689.956 602.411 697.136 602.411 704.898C602.411 712.466 603.575 719.549 605.904 726.147C608.232 732.647 611.58 738.323 615.946 743.175C620.312 748.026 625.649 751.859 631.956 754.672C638.359 757.389 645.539 758.748 653.495 758.748C659.899 758.748 665.769 757.777 671.106 755.837C676.442 753.896 681.1 751.082 685.078 747.395C689.056 743.708 692.258 739.245 694.683 734.006C697.109 728.766 698.613 722.896 699.195 716.395H677.073C676.2 723.381 673.774 729.009 669.796 733.278C665.915 737.547 660.481 739.682 653.495 739.682C648.353 739.682 643.987 738.712 640.397 736.771C636.807 734.733 633.896 732.065 631.664 728.766C629.433 725.467 627.783 721.78 626.716 717.705C625.746 713.533 625.261 709.264 625.261 704.898C625.261 700.338 625.746 695.923 626.716 691.654C627.783 687.384 629.433 683.6 631.664 680.302C633.896 676.906 636.807 674.237 640.397 672.297C643.987 670.259 648.353 669.24 653.495 669.24C656.309 669.24 658.977 669.726 661.5 670.696C664.12 671.569 666.448 672.83 668.486 674.48C670.524 676.129 672.222 678.07 673.58 680.302C674.938 682.436 675.812 684.813 676.2 687.433ZM720.62 652.503V756.419H743.47V722.945L756.568 709.701L787.86 756.419H816.531L771.996 693.546L812.601 652.503H784.076L743.47 695.583V652.503H720.62ZM831.475 652.503V756.419H910.358V737.208H854.325V711.738H904.682V693.982H854.325V671.715H909.193V652.503H831.475ZM954.52 699.513V670.259H979.553C984.792 670.259 988.722 671.424 991.342 673.752C993.961 675.984 995.271 679.622 995.271 684.668C995.271 689.907 993.961 693.691 991.342 696.02C988.722 698.348 984.792 699.513 979.553 699.513H954.52ZM931.67 652.503V756.419H954.52V715.813H977.37C983.094 715.813 987.218 717.075 989.741 719.597C992.263 722.12 993.913 726.098 994.689 731.532C995.271 735.704 995.708 740.07 995.999 744.63C996.29 749.19 997.066 753.12 998.327 756.419H1021.18C1020.11 754.964 1019.29 753.217 1018.7 751.18C1018.22 749.045 1017.83 746.813 1017.54 744.485C1017.34 742.156 1017.2 739.876 1017.1 737.644C1017.01 735.413 1016.91 733.472 1016.81 731.823C1016.62 729.203 1016.23 726.583 1015.65 723.964C1015.16 721.344 1014.34 718.967 1013.17 716.832C1012.01 714.6 1010.5 712.708 1008.66 711.156C1006.82 709.507 1004.49 708.294 1001.67 707.518V707.226C1007.5 704.898 1011.67 701.502 1014.19 697.039C1016.81 692.575 1018.12 687.287 1018.12 681.175C1018.12 677.197 1017.39 673.51 1015.94 670.114C1014.58 666.621 1012.54 663.564 1009.83 660.945C1007.21 658.325 1004 656.287 1000.22 654.832C996.532 653.28 992.36 652.503 987.703 652.503H931.67Z" fill="#2157E4"/>
</g>
<defs>
<clipPath id="clip0">
<rect width="1024" height="1024" fill="white" transform="translate(0.251953)"/>
</clipPath>
</defs>
</svg>
