<svg width="94" height="33" viewBox="0 0 94 33" fill="none" xmlns="http://www.w3.org/2000/svg">
<path d="M92.0428 14.352L94.0001 12.421V6.55084L88.1283 0.680664H68.5299L62.6581 6.55084V14.3777V26.1438L68.5299 32.014H88.1283L94.0001 26.1438V20.2479L92.0428 18.2912H82.2565V20.2479H74.4274V12.421H82.2565V14.352H92.0428Z" fill="#00529F"/>
<path d="M9.78631 32.014L11.7436 30.0573V22.2046L21.5299 32.014H29.3847L31.3419 30.0573V2.63739L29.3847 0.680664H21.5299L19.5726 2.63739V10.4643L9.78631 0.680664H1.95726L0 2.63739V30.0573L1.95726 32.014H9.78631Z" fill="#00529F"/>
<path d="M62.6582 2.63739L60.7009 0.680664H52.8719L50.9146 2.63739V6.55084L47.0001 10.4643L43.0856 6.55084V2.63739L41.1283 0.680664H33.2993L31.342 2.63739V14.3777L41.1283 24.1871V30.0573L43.0856 32.014H50.9146L52.8719 30.0573V24.1871L62.6582 14.3777V6.55084V2.63739Z" fill="#00529F"/>
</svg>
