<svg width="261" height="217" viewBox="0 0 261 217" fill="none" xmlns="http://www.w3.org/2000/svg">
<g clip-path="url(#clip0)">
<path d="M57.7733 7.86308C57.6478 7.86308 57.5066 7.80032 57.4438 7.67479C56.0474 5.41532 54.9176 3.21862 54.0546 1.14744C53.9762 0.943459 54.0703 0.723789 54.2743 0.629644C54.4783 0.55119 54.698 0.645335 54.7921 0.849315C55.6237 2.88911 56.7534 5.03875 58.1185 7.25114C58.2284 7.43943 58.1813 7.67479 57.993 7.78463C57.9146 7.84739 57.8361 7.86308 57.7733 7.86308Z" fill="#E9EDF7"/>
<path d="M127.989 116.176C138.8 122.845 149.25 117.165 155.26 103.451C144.292 99.4028 129.59 102.384 127.989 116.176Z" fill="#6B67E9"/>
<path d="M127.989 116.569C127.848 116.569 127.707 116.49 127.644 116.365C127.534 116.176 127.613 115.941 127.801 115.831C129.951 114.67 133.701 113.054 137.671 111.328C142.472 109.257 147.901 106.903 151.808 104.816C151.996 104.722 152.232 104.785 152.341 104.973C152.436 105.161 152.373 105.397 152.185 105.507C148.246 107.593 142.801 109.963 137.984 112.05C134.03 113.76 130.296 115.376 128.178 116.521C128.115 116.569 128.052 116.569 127.989 116.569Z" fill="#5652CC"/>
<path d="M208.514 114.513C214.665 92.0283 235.785 86.5679 261.016 97.4102C251.397 116.584 227.94 130.988 208.514 114.513Z" fill="#362E94"/>
<path d="M208.514 114.905C208.342 114.905 208.185 114.796 208.138 114.607C208.075 114.403 208.201 114.184 208.42 114.121C212.704 112.991 219.749 110.481 227.186 107.813C236.24 104.581 246.502 100.925 254.378 98.8067C254.582 98.744 254.802 98.8695 254.865 99.0891C254.928 99.2931 254.802 99.5128 254.582 99.5756C246.737 101.678 236.491 105.334 227.453 108.566C219.984 111.234 212.939 113.744 208.609 114.89C208.577 114.89 208.546 114.905 208.514 114.905Z" fill="#20196F"/>
<path d="M126.64 113.87C142.66 110.01 146.991 95.2134 139.883 77.1691C126.122 83.5238 115.421 99.7794 126.64 113.87Z" fill="#807DFB"/>
<path d="M126.64 114.262C126.609 114.262 126.562 114.262 126.53 114.246C126.326 114.183 126.201 113.964 126.263 113.76C127.158 110.732 129.104 105.805 131.143 100.58C133.622 94.2719 136.431 87.1169 138.094 81.6252C138.157 81.4212 138.377 81.2957 138.581 81.3584C138.785 81.4212 138.91 81.6409 138.847 81.8449C137.184 87.368 134.36 94.5387 131.881 100.862C129.841 106.056 127.911 110.983 127.017 113.98C126.97 114.152 126.813 114.262 126.64 114.262Z" fill="#6B67E9"/>
<path d="M34.6609 155.513C22.9712 156.266 16.9303 147.134 17.9502 133.373C28.6356 134.801 39.3053 143.588 34.6609 155.513Z" fill="#CED3F8"/>
<path d="M40.7489 171.392C22.2024 179.787 6.74702 168.631 0 145.612C18.264 141.391 41.0156 149.143 40.7489 171.392Z" fill="#807DFB"/>
<path d="M40.7489 171.785C40.6704 171.785 40.592 171.753 40.5135 171.706C37.3597 169.447 31.7581 166.12 25.8113 162.59C18.5935 158.306 10.4187 153.442 4.59739 149.315C4.42479 149.19 4.37772 148.939 4.50325 148.766C4.62877 148.594 4.87982 148.546 5.05242 148.672C10.8423 152.783 19.0172 157.631 26.2193 161.915C32.166 165.445 37.799 168.788 40.9686 171.063C41.1412 171.188 41.1882 171.439 41.0627 171.612C40.9999 171.737 40.8744 171.785 40.7489 171.785Z" fill="#5652CC"/>
<path d="M198.739 98.1634C195.381 93.9583 190.58 80.8565 199.775 73.5133C203.933 70.1868 205.219 69.5592 207.338 69.9044C208.718 70.1241 209.754 71.0184 210.774 70.2966C212.625 68.9629 207.62 62.059 213.849 56.5672C220.079 51.0755 225.005 54.5902 226.669 53.0839C228.332 51.5776 226.888 48.3767 230.591 46.9488C234.294 45.5209 236.758 51.5619 241.763 50.3851C246.973 49.1612 256.073 49.0514 257.219 54.0096C258.38 58.9522 254.3 59.7054 252.888 62.8906C251.476 66.0758 254.002 75.7884 246.298 77.5772C238.641 79.3659 235.55 78.9109 234.279 88.6705C233.008 98.4302 224.142 102.729 219.435 101.678C214.728 100.627 215.858 103.184 218.258 104.675C220.659 106.166 216.768 108.096 213.284 107.515C209.832 106.919 202.944 103.451 198.739 98.1634Z" fill="#807DFB"/>
<path d="M197.217 100.784C197.154 100.784 197.076 100.768 197.029 100.737C196.841 100.627 196.778 100.391 196.888 100.203C210.319 76.9338 232.333 62.4198 248.463 56.5986C248.667 56.5201 248.887 56.6299 248.965 56.8339C249.044 57.0379 248.934 57.2576 248.73 57.336C232.741 63.1102 210.899 77.5143 197.562 100.595C197.484 100.721 197.358 100.784 197.217 100.784Z" fill="#6B67E9"/>
<path d="M235.095 63.628H235.079C234.859 63.6123 234.702 63.4397 234.702 63.2201C234.765 62.0119 234.31 56.7712 232.898 54.041C232.804 53.8527 232.882 53.6173 233.071 53.5075C233.259 53.4133 233.494 53.4918 233.604 53.6801C235.095 56.5829 235.55 61.9491 235.487 63.2514C235.471 63.4711 235.299 63.628 235.095 63.628Z" fill="#6B67E9"/>
<path d="M245.419 65.6521C245.325 65.6521 245.231 65.6208 245.168 65.558C244.164 64.6793 240.257 62.2786 238.452 61.7451C238.248 61.6824 238.123 61.4627 238.186 61.2587C238.248 61.0547 238.468 60.9292 238.672 60.992C240.586 61.5412 244.603 64.0203 245.67 64.9617C245.827 65.103 245.858 65.354 245.717 65.5109C245.639 65.6051 245.529 65.6521 245.419 65.6521Z" fill="#6B67E9"/>
<path d="M221.365 72.964C221.35 72.964 221.334 72.964 221.318 72.964C221.098 72.9327 220.957 72.7444 220.973 72.5247C221.146 71.2224 221.648 67.2369 218.902 62.0276C218.808 61.8393 218.87 61.6039 219.074 61.4941C219.263 61.3999 219.498 61.4627 219.608 61.6667C222.464 67.0957 221.93 71.2694 221.757 72.6345C221.726 72.8228 221.554 72.964 221.365 72.964Z" fill="#6B67E9"/>
<path d="M235.942 73.215C235.879 73.215 235.801 73.1994 235.738 73.1523C233.51 71.7715 228.191 69.1511 226.512 69.057C226.292 69.0413 226.135 68.8687 226.135 68.649C226.151 68.4294 226.324 68.2725 226.543 68.2725C228.41 68.3666 233.902 71.0811 236.146 72.4776C236.334 72.5874 236.381 72.8385 236.271 73.0111C236.209 73.1523 236.083 73.215 235.942 73.215Z" fill="#6B67E9"/>
<path d="M218.839 85.1557C218.776 85.1557 218.698 85.14 218.635 85.093C218.321 84.9047 217.992 84.685 217.647 84.4653C215.921 83.3513 213.787 81.9548 211.7 81.6881C211.48 81.6567 211.339 81.4684 211.355 81.2487C211.386 81.0291 211.574 80.8878 211.794 80.9035C214.053 81.2017 216.281 82.6452 218.07 83.8063C218.415 84.026 218.745 84.2457 219.043 84.434C219.231 84.5438 219.278 84.7948 219.169 84.9674C219.106 85.093 218.965 85.1557 218.839 85.1557Z" fill="#6B67E9"/>
<path d="M206.836 87.1171C206.804 87.1171 206.773 87.1171 206.741 87.1014C206.537 87.0387 206.412 86.8347 206.459 86.615C207.071 84.2928 206.585 79.664 205.376 76.2905C205.298 76.0865 205.408 75.8668 205.612 75.7884C205.816 75.7099 206.035 75.8198 206.114 76.0237C207.369 79.5071 207.855 84.3555 207.212 86.8033C207.165 86.9916 207.008 87.1171 206.836 87.1171Z" fill="#6B67E9"/>
<path d="M188.352 66.3581C188.32 66.3581 188.289 66.3581 188.258 66.3424C188.054 66.2953 187.928 66.0757 187.975 65.8717C188.038 65.6363 194.252 42.3512 214.932 24.401C215.089 24.2598 215.34 24.2755 215.481 24.4324C215.622 24.5893 215.607 24.8404 215.45 24.9816C194.942 42.7749 188.791 65.8403 188.728 66.06C188.697 66.2483 188.524 66.3581 188.352 66.3581Z" fill="#DDE2F8"/>
<path d="M215.873 29.4535C214.665 29.4535 213.08 28.4336 212.327 27.1783C212.217 26.99 212.28 26.7546 212.468 26.6448C212.657 26.535 212.892 26.5977 213.002 26.786C213.614 27.8216 215.01 28.7317 215.936 28.6846C216.281 28.6689 216.517 28.512 216.658 28.2139C216.783 27.9315 216.736 27.7745 216.674 27.6647C216.328 26.9429 214.618 26.5036 213.896 26.331L213.755 26.2996C213.551 26.2525 213.426 26.0329 213.473 25.8289C213.52 25.6249 213.739 25.4994 213.943 25.5465L214.085 25.5778C215.057 25.8289 216.878 26.2996 217.38 27.3352C217.552 27.7118 217.552 28.1354 217.364 28.5591C217.113 29.124 216.611 29.4535 215.968 29.4848C215.936 29.4535 215.905 29.4535 215.873 29.4535Z" fill="#DDE2F8"/>
<path d="M208.844 31.2108C208.781 31.2108 208.703 31.1951 208.64 31.1637C207.871 30.7244 206.067 28.7317 206.067 27.241C206.067 26.6605 206.333 26.1898 206.835 25.8916C207.479 25.5151 208.012 25.6563 208.342 25.8446C209.581 26.535 210.099 28.9827 210.115 29.8928C210.115 30.1124 209.942 30.285 209.723 30.285C209.519 30.2694 209.33 30.1124 209.33 29.8928C209.315 28.9984 208.765 26.9743 207.95 26.5193C207.808 26.4408 207.573 26.3624 207.228 26.5663C206.977 26.7232 206.851 26.9272 206.851 27.241C206.851 28.3708 208.405 30.1281 209.032 30.489C209.22 30.5989 209.283 30.8342 209.173 31.0225C209.111 31.148 208.969 31.2108 208.844 31.2108Z" fill="#DDE2F8"/>
<path d="M210.036 37.6283C208.922 37.6283 207.95 36.2318 207.008 34.8824C206.71 34.4431 206.412 34.0351 206.145 33.7213C206.004 33.5487 206.035 33.3134 206.192 33.1721C206.365 33.0309 206.6 33.0623 206.741 33.2192C207.024 33.5644 207.322 33.9881 207.636 34.4431C208.342 35.463 209.315 36.8595 210.021 36.8595C210.24 36.8595 210.476 36.6869 210.695 36.3417C210.994 35.8866 211.072 35.4473 210.899 35.008C210.476 33.8939 208.593 32.9525 207.4 32.6387C207.196 32.5916 207.071 32.3719 207.118 32.1679C207.165 31.964 207.385 31.8384 207.589 31.8855C208.499 32.1209 210.978 33.0937 211.621 34.7255C211.888 35.4002 211.778 36.1063 211.339 36.781C210.962 37.3459 210.507 37.644 210.005 37.6597C210.052 37.6283 210.052 37.6283 210.036 37.6283Z" fill="#DDE2F8"/>
<path d="M202.207 39.1974C202.05 39.1974 201.909 39.1033 201.846 38.962C201.265 37.5656 200.057 36.7183 198.99 35.9808C197.719 35.0864 196.401 34.1764 197.374 32.6073C197.735 32.011 198.268 31.7443 198.943 31.8228C200.92 32.0581 203.572 35.5415 203.995 36.8438C204.058 37.0478 203.948 37.2674 203.744 37.3459C203.54 37.4087 203.321 37.2988 203.242 37.0948C202.866 35.9651 200.402 32.7956 198.833 32.6073C198.472 32.5602 198.237 32.7014 198.033 33.0153C197.499 33.8782 197.97 34.3176 199.429 35.3375C200.528 36.1063 201.893 37.0635 202.568 38.6639C202.646 38.8679 202.552 39.0876 202.348 39.1817C202.317 39.1817 202.254 39.1974 202.207 39.1974Z" fill="#DDE2F8"/>
<path d="M206.898 47.0114C204.89 47.0114 200.512 45.5051 199.273 42.6337C199.194 42.4297 199.273 42.21 199.477 42.1159C199.681 42.0217 199.9 42.1159 199.994 42.3199C200.983 44.595 204.388 45.9758 206.38 46.1955C207.275 46.2896 207.604 46.1327 207.636 46.0856C207.793 45.6777 207.636 45.1913 207.212 44.6264C205.863 42.869 202.254 41.1744 200.747 41.3313C200.528 41.347 200.34 41.1901 200.324 40.9861C200.308 40.7665 200.465 40.5782 200.669 40.5625C202.583 40.3742 206.396 42.3042 207.84 44.1714C208.609 45.1599 208.561 45.9287 208.373 46.3995C208.216 46.8074 207.761 47.0271 207.008 47.0428C206.961 47.0114 206.93 47.0114 206.898 47.0114Z" fill="#DDE2F8"/>
<path d="M196.323 48.2039H196.307C192.071 47.9842 189.23 44.5323 188.446 43.481C188.101 43.0103 187.301 41.8491 187.442 41.3157C187.473 41.2058 187.552 41.0332 187.787 40.9234C188.775 40.437 192.871 41.1744 194.095 41.7079C195.475 42.3042 196.668 42.822 198.096 45.2383C198.206 45.4266 198.143 45.662 197.955 45.7718C197.766 45.8817 197.531 45.8189 197.421 45.6306C196.134 43.4339 195.146 43.0103 193.796 42.4297C192.573 41.8962 189.058 41.3784 188.258 41.5981C188.571 42.6337 191.819 47.1997 196.37 47.435C196.589 47.4507 196.746 47.6233 196.746 47.843C196.699 48.047 196.527 48.2039 196.323 48.2039Z" fill="#DDE2F8"/>
<path d="M204.137 56.8966C202.772 56.8966 200.277 55.7041 199.398 55.2177C197.782 54.3233 194.048 51.9854 194.016 51.9697C193.828 51.8598 193.781 51.6088 193.891 51.4362C194 51.2479 194.251 51.2008 194.424 51.3107C194.455 51.3264 198.158 53.6643 199.775 54.543C201.705 55.6099 203.964 56.3003 204.356 56.0963C204.482 55.6099 204.309 55.0608 203.886 54.4959C202.065 52.0638 196.37 50.0711 195.287 50.0397C195.067 50.0397 194.895 49.8514 194.911 49.6317C194.911 49.4121 195.083 49.2395 195.318 49.2552C196.731 49.3022 202.63 51.4989 204.529 54.0252C205.109 54.8097 205.313 55.5785 205.125 56.316C205.062 56.5357 204.906 56.7083 204.686 56.8181C204.529 56.8809 204.341 56.8966 204.137 56.8966Z" fill="#DDE2F8"/>
<path d="M192.635 55.2491C192.604 55.2491 192.573 55.2491 192.541 55.2334C192.4 55.202 189.011 54.3076 187.3 53.3662C185.888 52.5816 182.468 49.4435 182.703 48.5805C183.017 47.388 188.634 48.8316 188.697 48.8472C190.941 49.4278 192.682 51.6873 193.718 53.0367C193.844 53.2093 193.812 53.4603 193.64 53.5859C193.467 53.7114 193.216 53.68 193.09 53.5074C192.118 52.2365 190.486 50.1182 188.493 49.6004C186.594 49.114 184.319 48.8159 183.566 48.8786C184.084 49.6789 186.265 51.8913 187.677 52.6758C189.309 53.5859 192.698 54.4645 192.73 54.4802C192.933 54.5273 193.059 54.747 193.012 54.9509C192.965 55.1235 192.808 55.2491 192.635 55.2491Z" fill="#DDE2F8"/>
<path d="M198.017 63.0159C196.95 63.0159 195.224 62.3255 193.404 61.541L193.09 61.3998C191.568 60.7565 190.815 59.8778 190.439 59.2502C190.329 59.0619 190.392 58.8265 190.58 58.7167C190.768 58.6068 191.004 58.6696 191.113 58.8579C191.364 59.2815 191.992 60.0975 193.389 60.678L193.702 60.8192C197.17 62.2942 198.127 62.3726 198.315 62.1686C198.378 61.9019 198.3 61.6195 198.064 61.29C196.841 59.5954 192.259 57.9792 191.396 57.9164C191.176 57.9008 191.019 57.7125 191.035 57.4928C191.051 57.2731 191.239 57.1162 191.459 57.1319C192.588 57.2104 197.327 58.8893 198.708 60.8349C199.084 61.3527 199.21 61.8705 199.084 62.3726C199.022 62.608 198.88 62.7806 198.661 62.8904C198.472 62.9689 198.268 63.0159 198.017 63.0159Z" fill="#DDE2F8"/>
<path d="M188.979 64.2712C188.854 64.2712 188.744 64.2242 188.666 64.1143C188.242 63.5495 187.128 62.9846 186.249 62.5139C185.763 62.2628 185.339 62.0431 185.072 61.8549C184.916 61.7293 184.868 61.5097 184.963 61.3371C185.308 60.7565 185.983 60.3956 186.861 60.3172C188.085 60.223 189.387 60.7094 190.031 61.5097C190.172 61.6823 190.141 61.9333 189.968 62.0588C189.795 62.2001 189.56 62.1687 189.419 61.9961C188.932 61.3998 187.897 61.0233 186.924 61.086C186.5 61.1174 186.155 61.2429 185.904 61.4155C186.108 61.5254 186.359 61.6509 186.61 61.7921C187.567 62.2942 188.775 62.9061 189.293 63.6122C189.419 63.7848 189.387 64.0359 189.215 64.1614C189.152 64.2555 189.058 64.2712 188.979 64.2712Z" fill="#DDE2F8"/>
<path d="M40.4351 173.197C40.6391 184.902 31.2246 190.519 17.5423 188.856C19.4723 178.249 28.7455 168.003 40.4351 173.197Z" fill="#423EAF"/>
<path d="M214.979 165.602C214.885 165.602 214.806 165.571 214.728 165.508C214.555 165.367 214.54 165.132 214.665 164.959C219.294 159.295 237.809 142.976 249.326 135.617C249.514 135.507 249.75 135.554 249.875 135.743C249.985 135.931 249.938 136.166 249.75 136.292C238.28 143.619 219.875 159.828 215.261 165.477C215.199 165.555 215.089 165.602 214.979 165.602Z" fill="#FCBA06"/>
<path d="M249.232 134.99C249.232 134.095 249.954 133.389 250.832 133.389C251.727 133.389 252.433 134.111 252.433 134.99C252.433 135.884 251.711 136.59 250.832 136.59C249.954 136.59 249.232 135.868 249.232 134.99Z" stroke="#FCBA06" stroke-width="0.784538" stroke-linecap="round" stroke-linejoin="round"/>
<path d="M234.922 137.171C234.922 136.308 235.612 135.617 236.475 135.617C237.338 135.617 238.029 136.308 238.029 137.171C238.029 138.034 237.338 138.724 236.475 138.724C235.612 138.724 234.922 138.034 234.922 137.171Z" stroke="#FCBA06" stroke-width="0.784538" stroke-linecap="round" stroke-linejoin="round"/>
<path d="M234.53 153.191C234.53 152.218 235.314 151.418 236.303 151.418C237.291 151.418 238.076 152.202 238.076 153.191C238.076 154.164 237.291 154.964 236.303 154.964C235.314 154.964 234.53 154.179 234.53 153.191Z" stroke="#FCBA06" stroke-width="0.784538" stroke-linecap="round" stroke-linejoin="round"/>
<path d="M221.632 149.268C221.632 148.138 222.542 147.228 223.672 147.228C224.801 147.228 225.711 148.138 225.711 149.268C225.711 150.398 224.801 151.308 223.672 151.308C222.542 151.308 221.632 150.398 221.632 149.268Z" stroke="#FCBA06" stroke-width="0.784538" stroke-linecap="round" stroke-linejoin="round"/>
<path d="M249.703 140.466C249.703 139.728 250.299 139.132 251.036 139.132C251.774 139.132 252.37 139.728 252.37 140.466C252.37 141.203 251.774 141.799 251.036 141.799C250.299 141.799 249.703 141.203 249.703 140.466Z" stroke="#FCBA06" stroke-width="0.784538" stroke-linecap="round" stroke-linejoin="round"/>
<path d="M243.301 140.67C243.144 140.67 242.987 140.575 242.94 140.419C242.862 140.215 242.971 139.995 243.175 139.916C244.274 139.508 246.753 139.665 248.997 139.838C249.295 139.854 249.546 139.885 249.734 139.885C249.954 139.901 250.111 140.089 250.095 140.293C250.079 140.513 249.891 140.67 249.687 140.654C249.499 140.638 249.232 140.623 248.934 140.591C247.49 140.481 244.478 140.246 243.442 140.623C243.395 140.67 243.348 140.67 243.301 140.67Z" fill="#FCBA06"/>
<path d="M235.126 147.056C235.079 147.056 235.032 147.04 234.985 147.024C234.781 146.946 234.687 146.711 234.765 146.507C235.863 143.839 236.083 139.697 236.083 138.724C236.083 138.504 236.256 138.332 236.475 138.332C236.695 138.332 236.868 138.504 236.868 138.724C236.868 139.948 236.617 144.059 235.487 146.805C235.424 146.962 235.283 147.056 235.126 147.056Z" fill="#FCBA06"/>
<path d="M234.53 153.583C234.483 153.583 234.436 153.567 234.373 153.552C233.494 153.191 229.195 152.799 227.861 153.285C227.657 153.363 227.437 153.254 227.359 153.05C227.281 152.846 227.39 152.626 227.594 152.547C229.132 151.998 233.682 152.406 234.671 152.83C234.875 152.908 234.969 153.144 234.875 153.348C234.828 153.505 234.671 153.583 234.53 153.583Z" fill="#FCBA06"/>
<path d="M221.224 159.2C221.177 159.2 221.114 159.185 221.067 159.169C220.863 159.075 220.785 158.855 220.863 158.651C221.271 157.71 222.401 152.281 222.605 151.12C222.652 150.9 222.856 150.759 223.06 150.806C223.279 150.837 223.421 151.057 223.374 151.261C223.201 152.187 222.056 157.882 221.569 158.965C221.522 159.122 221.381 159.2 221.224 159.2Z" fill="#FCBA06"/>
<path d="M195.444 199.353C216.329 199.353 233.259 197.281 233.259 194.724C233.259 192.168 216.329 190.096 195.444 190.096C174.56 190.096 157.629 192.168 157.629 194.724C157.629 197.281 174.56 199.353 195.444 199.353Z" fill="#E9EFFF"/>
<path d="M78.3126 15.2534C78.2027 15.2534 78.0929 15.2063 78.0144 15.1121C77.2613 14.1864 76.5238 13.2449 75.8491 12.3349C75.7236 12.1623 75.755 11.9112 75.9276 11.7857C76.1002 11.6602 76.3512 11.6916 76.4767 11.8642C77.1514 12.7742 77.8732 13.7 78.6264 14.61C78.7676 14.7826 78.7362 15.018 78.5636 15.1592C78.4852 15.222 78.4067 15.2534 78.3126 15.2534Z" fill="#E9EDF7"/>
<path d="M89.0137 26.3153C88.9195 26.3153 88.8254 26.2839 88.7469 26.2211C85.9226 23.7106 83.2709 21.1059 80.8702 18.4542C80.729 18.2973 80.7447 18.0462 80.9016 17.905C81.0585 17.7638 81.3095 17.7795 81.4507 17.9364C83.8357 20.5725 86.4718 23.1614 89.2647 25.6563C89.4216 25.7975 89.4373 26.0485 89.2961 26.2054C89.2334 26.2682 89.1235 26.3153 89.0137 26.3153Z" fill="#E9EDF7"/>
<path d="M108.8 59.4699C108.58 59.4699 108.407 59.2973 108.407 59.0776C108.407 55.0608 107.34 41.0803 93.6425 30.2851C93.4071 30.0968 93.1717 29.9085 92.9364 29.7202C92.7638 29.579 92.7481 29.3436 92.8736 29.171C93.0148 28.9984 93.2502 28.9827 93.4228 29.1082C93.6582 29.2965 93.8935 29.4848 94.1289 29.6731C108.109 40.688 109.192 54.9666 109.192 59.0776C109.192 59.2973 109.004 59.4699 108.8 59.4699Z" fill="#E9EDF7"/>
<path d="M93.564 59.4701C93.3443 59.4701 93.1717 59.2975 93.1717 59.0778C93.1717 55.061 92.1048 41.0806 78.4067 30.2853C70.7183 24.213 64.1281 17.4189 59.3738 10.6091C59.2483 10.4365 59.2954 10.1855 59.468 10.0599C59.6406 9.93441 59.8916 9.98148 60.0172 10.1541C64.7244 16.9011 71.2517 23.6324 78.8931 29.6577C92.8736 40.6726 93.9563 54.9512 93.9563 59.0622C93.9563 59.2975 93.768 59.4701 93.564 59.4701Z" fill="#E9EDF7"/>
<path d="M70.828 37.9423C70.7025 37.9423 70.5927 37.8952 70.5142 37.7854C69.2747 36.1221 67.8782 34.5374 66.3562 33.0625C66.1993 32.9055 66.1993 32.6702 66.3405 32.5133C66.4974 32.3564 66.7327 32.3564 66.8897 32.4976C68.443 34.0039 69.8709 35.62 71.1418 37.3146C71.2674 37.4872 71.236 37.7383 71.0634 37.8638C70.9849 37.9266 70.9065 37.9423 70.828 37.9423Z" fill="#E9EDF7"/>
<path d="M78.3125 59.47C78.0929 59.47 77.9203 59.2974 77.9203 59.0777C77.9203 56.5986 77.4966 50.0399 73.6524 42.7594C73.5582 42.5711 73.621 42.3357 73.8093 42.2259C73.9976 42.1317 74.2329 42.1945 74.3428 42.3828C78.2812 49.8359 78.7048 56.5358 78.7048 59.0777C78.7048 59.2974 78.5322 59.47 78.3125 59.47Z" fill="#E9EDF7"/>
<path d="M63.0768 59.47C62.8572 59.47 62.6846 59.2974 62.6846 59.0778C62.6846 55.0609 61.6176 41.0805 47.9196 30.2852C45.3934 28.2925 42.9456 26.1899 40.6548 24.0246C40.4978 23.8834 40.4822 23.6323 40.6391 23.4754C40.7803 23.3185 41.0313 23.3185 41.1882 23.4597C43.4634 25.5937 45.8955 27.6962 48.406 29.6733C62.3864 40.6882 63.4691 54.9668 63.4691 59.0778C63.4691 59.2974 63.2965 59.47 63.0768 59.47Z" fill="#E9EDF7"/>
<path d="M87.0366 118.969L80.0856 111.767C78.5793 109.979 76.3042 108.959 73.8407 108.959H55.3256C51.858 108.959 48.7983 111.72 48.4845 115.109L40.9215 194.709H164.69L170.904 125.12C171.202 121.715 168.644 118.969 165.161 118.969H87.0366Z" fill="#ED9F00"/>
<path d="M121.509 72.1167C121.258 64.8519 118.34 57.7754 113.617 57.7911C112.205 57.7911 110.667 58.5599 109.035 60.3644H56.471C59.6249 62.4512 60.0956 68.3353 60.0956 72.1167C60.0956 88.9686 63.9241 110.653 70.9536 117.4H132.352C123.627 108.959 121.807 80.8094 121.509 72.1167Z" fill="#E9EDF7"/>
<path d="M113.601 57.791H52.4071C50.9479 57.7283 49.3318 58.4657 47.6215 60.38H109.019C110.667 58.5599 112.205 57.8067 113.601 57.791Z" fill="#CED3F8"/>
<path d="M104.799 79.8209H66.3562C66.3876 80.1504 66.4033 80.4799 66.4347 80.8094H104.877C104.846 80.4799 104.83 80.1504 104.799 79.8209ZM111.326 82.708H66.623C66.6543 83.0375 66.6857 83.367 66.7171 83.6965H111.404C111.389 83.367 111.357 83.0375 111.326 82.708ZM107.764 76.9338H66.1836C66.1993 77.2633 66.215 77.5928 66.2464 77.9223H107.843C107.795 77.5928 107.78 77.2633 107.764 76.9338ZM102.649 74.0624H66.0581C66.0738 74.3919 66.0738 74.7214 66.0895 75.0509H102.696C102.68 74.7057 102.665 74.3605 102.649 74.0624ZM113.13 72.1167C113.13 71.8029 113.115 71.4891 113.099 71.1596H65.9953C66.011 71.4891 66.0267 71.8029 66.0267 72.1167C66.0267 72.1324 66.0267 72.1481 66.0267 72.1481H113.13C113.13 72.1481 113.13 72.1324 113.13 72.1167ZM114.291 68.2882H65.6344C65.6972 68.6177 65.76 68.9472 65.807 69.2767H114.464C114.417 68.9472 114.354 68.6177 114.291 68.2882ZM114.213 91.3536H67.737C67.7841 91.6831 67.8468 92.0126 67.8939 92.3421H114.354C114.323 92.0126 114.26 91.6831 114.213 91.3536ZM117.351 97.1278H68.804C68.8667 97.4573 68.9452 97.7868 69.0079 98.1163H117.555C117.492 97.7868 117.414 97.4573 117.351 97.1278ZM109.835 85.5951H66.9368C66.9838 85.9246 67.0152 86.2541 67.0623 86.5836H109.945C109.914 86.2541 109.867 85.9246 109.835 85.5951ZM118.669 102.902H70.1691C70.2632 103.231 70.3573 103.561 70.4358 103.891H118.936C118.842 103.561 118.763 103.231 118.669 102.902ZM117.963 100.015H69.4316C69.51 100.344 69.5885 100.674 69.667 101.003H118.183C118.12 100.674 118.042 100.344 117.963 100.015ZM115.955 88.4822H67.3133C67.3604 88.8117 67.4075 89.1412 67.4546 89.4707H116.08C116.033 89.1412 115.986 88.796 115.955 88.4822ZM112.314 94.2407H68.2391C68.3019 94.5702 68.3646 94.8997 68.4274 95.2292H112.503C112.44 94.8997 112.377 94.5702 112.314 94.2407Z" fill="#CED3F8"/>
<path d="M65.0068 117.384L57.287 109.994C55.2942 108.174 52.7523 107.138 50.2889 107.138H31.7738C28.3061 107.138 25.9839 109.947 26.5958 113.43L40.9372 194.74H164.706L152.185 123.692C151.573 120.225 148.262 117.4 144.794 117.4H65.0068V117.384Z" fill="#FCBA06"/>
<path d="M119.548 157.569C117.335 145.063 105.379 134.895 92.8735 134.895C86.8326 134.895 81.5448 137.233 77.983 141.486C74.3428 145.832 72.9306 151.606 74.0289 157.773C76.2413 170.278 88.1977 180.446 100.719 180.446C106.76 180.446 112.048 178.108 115.609 173.856C119.234 169.509 120.63 163.735 119.548 157.569ZM114.684 173.102C111.342 177.088 106.383 179.269 100.688 179.269C88.7312 179.269 77.2769 169.525 75.1587 157.569C74.1388 151.747 75.4411 146.303 78.8617 142.239C82.2038 138.253 87.1621 136.072 92.8578 136.072C104.814 136.072 116.268 145.816 118.387 157.773C119.422 163.578 118.104 169.023 114.684 173.102Z" fill="#FFD03E"/>
<path d="M105.442 159.263L99.1969 166.842L95.337 145H93.7522L97.5651 166.638L88.7626 159.153L87.7427 160.346L98.8203 169.76L106.65 160.252L105.442 159.263Z" fill="#FFD03E"/>
<path d="M176.898 73.168C178.106 70.4221 173.006 66.6093 171.563 65.1971C169.633 63.2828 162.368 51.9541 162.368 51.9541C159.449 58.811 160.877 72.0383 167.734 75.098C166.965 76.4944 166.746 78.1733 167.232 79.8209C168.205 83.0846 171.641 84.9518 174.905 83.9789C178.168 83.0061 180.036 79.5698 179.063 76.3061C178.671 74.9881 177.902 73.9212 176.898 73.168Z" fill="#20196F"/>
<path d="M158.445 115.282C157.77 115.972 156.484 115.36 155.464 116.663C153.816 118.765 151.102 119.362 151.792 119.644C153.644 120.397 155.668 118.969 155.668 118.969H160.359L160.846 118.499L158.445 115.282Z" fill="#F8D8D0"/>
<path d="M183.77 72.399C183.441 69.6061 179.471 67.4564 176.96 68.6489C174.45 69.8571 171.578 72.5088 171.61 78.5341C171.673 94.2562 168.691 102.682 158.461 115.266C158.461 115.266 160.626 117.667 161.552 118.859C183.77 98.9164 184.868 81.7507 183.77 72.399Z" fill="#F6F6FB"/>
<path d="M176.96 68.6646C175.077 69.5747 172.991 71.285 172.08 74.6271C171.829 75.7254 171.735 77.0121 171.61 78.895C171.61 81.9233 171.5 84.6692 171.249 87.2425C172.112 91.4947 176.772 92.4518 179.392 96.3745C184.304 86.3167 184.429 77.9692 183.786 72.399C183.456 69.6217 179.487 67.4564 176.96 68.6646Z" fill="#CED3F8"/>
<path d="M161.222 118.969C160.548 118.075 158.226 115.015 158.006 114.795C158.634 113.917 159.842 112.599 160.25 112.222C160.94 112.913 164.486 116.772 164.486 116.945C164.188 117.227 162.478 118.436 161.74 118.969C161.536 118.969 161.364 118.969 161.222 118.969Z" fill="#D1D7F3"/>
<path d="M174.23 116.161C173.681 116.788 173.665 117.337 172.175 117.714C170.684 118.091 170.088 118.044 169.397 118.232C168.707 118.436 166.589 118.844 166.73 119.173C166.871 119.503 169.366 119.252 169.382 119.518C169.382 119.785 164.157 123.551 165.302 124.132C166.448 124.712 169.711 125.246 172.316 123.331C174.058 122.045 174.999 120.068 176.207 119.424C176.898 117.683 175.846 116.427 174.23 116.161Z" fill="#F7D3C9"/>
<path d="M187.583 107.798C185.747 115.376 182.64 129.043 182.076 143.588C181.479 159.122 183.503 175.644 183.503 186.832C184.821 186.832 187.348 186.832 187.348 186.832C188.462 184.055 194.487 162.166 195.272 146.867C202.929 131.177 206.13 110.543 206.13 99.7952C203.227 99.8109 187.583 107.798 187.583 107.798Z" fill="#362E94"/>
<path d="M187.363 188.244C187.363 187.475 187.363 186.832 187.363 186.832H183.519C183.472 188.15 183.221 188.84 183.08 189.389C184.068 189.782 185.528 188.793 187.363 188.244Z" fill="#F0CCC0"/>
<path d="M187.363 188.244C185.543 188.793 184.068 189.782 183.08 189.389C182.546 189.782 174.748 192.575 173.948 193.124C173.132 193.673 173.257 194.536 174.12 194.536C175.376 194.536 185.732 194.081 185.732 194.081C185.935 194.316 186.108 194.536 186.108 194.536H188.477C189.183 193.328 188.995 189.656 187.363 188.244Z" fill="#20196F"/>
<path d="M215.638 188.244C215.638 187.475 215.638 186.832 215.638 186.832H211.794C211.747 188.15 211.496 188.84 211.355 189.389C212.359 189.782 213.818 188.793 215.638 188.244Z" fill="#F0CCC0"/>
<path d="M215.638 188.244C213.818 188.793 212.343 189.782 211.355 189.389C210.821 189.782 203.023 192.575 202.223 193.124C201.407 193.673 201.532 194.536 202.395 194.536C203.65 194.536 214.006 194.081 214.006 194.081C214.21 194.316 214.383 194.536 214.383 194.536H216.752C217.474 193.328 217.27 189.656 215.638 188.244Z" fill="#20196F"/>
<path d="M207.902 97.5671C218.023 111.202 213.567 118.985 214.116 132.965C214.869 152.077 215.638 174.326 215.638 186.848C214.32 186.848 211.794 186.848 211.794 186.848C209.628 181.466 191.396 117.337 189.937 107.123C192.855 107.107 207.902 97.5671 207.902 97.5671Z" fill="url(#paint0_linear)"/>
<path d="M209.173 99.3716C204.278 105.977 187.583 107.798 187.583 107.798C188.493 87.7761 174.795 95.0096 173.712 85.0302C172.834 76.8867 172.08 75.1294 173.022 72.1638C175.689 63.8006 179.534 63.4554 186.767 66.1072C196.323 69.6062 205.565 89.9101 209.173 99.3716Z" fill="#F6F6FB"/>
<path d="M184.162 70.3595C182.185 72.3208 180.334 75.7728 182.342 81.4528C184.366 87.2113 185.527 92.0598 185.637 96.5944C187.002 98.9009 187.85 102.337 187.599 107.782C187.599 107.782 189.121 107.641 191.38 107.264C199.163 91.746 194.973 78.1735 191.835 71.6618C190.596 69.1356 186.139 68.3981 184.162 70.3595Z" fill="#CED3F8"/>
<path d="M191.819 71.7716C190.815 69.1513 186.438 68.0372 184.288 69.826C182.138 71.6147 180.02 74.8941 181.526 80.7311C185.465 95.9511 184.257 104.612 173.65 116.898C173.65 116.898 175.58 119.503 176.49 120.711C199.32 101.427 195.177 80.5585 191.819 71.7716Z" fill="white"/>
<path d="M176.49 120.915C176.49 120.915 173.461 116.647 173.226 116.396C173.885 115.549 175.125 114.262 175.548 113.901C176.223 114.607 179.659 118.577 179.643 118.75C179.251 119.095 176.49 120.915 176.49 120.915Z" fill="#D1D7F3"/>
<path d="M180.02 65.9972C177.933 63.675 177.321 60.9291 177.211 58.952C177.211 58.952 177.274 53.9781 174.873 50.6046C171.798 46.321 164.172 49.9769 162.886 52.3305C161.379 55.5785 162.54 58.1047 164.062 61.4939C164.062 61.4939 164.769 65.1185 164.878 65.3225C165.035 65.6206 165.867 65.0087 166.008 65.1185C166.134 65.2283 167.012 67.1112 168.032 67.4878C169.036 67.8644 170.606 66.5307 171.343 66.515C172.473 66.4836 173.948 66.7033 174.01 69.5904C173.681 74.0622 178.404 71.4262 180.02 65.9972Z" fill="#F7D3C9"/>
<path d="M200.308 62.8749C200.355 61.855 200.136 60.8194 199.602 59.8622C198.315 57.54 195.632 56.4887 193.169 57.1477C193.122 57.1634 192.981 57.1948 192.965 57.1948C189.921 58.1519 183.064 57.9009 179.424 53.3663C175.234 48.1255 171.924 46.0387 167.813 47.4352C163.686 48.8316 161.615 51.8756 162.195 54.2136C164.863 60.0505 167.452 60.38 169.805 59.3131C171.908 58.3559 173.697 59.3287 174.105 61.1646C174.465 62.7807 176.678 64.8833 178.263 65.9816C177.494 68.6334 178.859 74.2507 183.048 75.4431C185.888 76.2434 188.76 75.2078 190.36 72.8385C190.501 73.2464 190.674 73.6387 190.878 74.0153C192.965 77.7811 197.719 79.1462 201.501 77.0593C205.266 74.9724 206.632 70.2181 204.545 66.4367C203.572 64.7107 202.05 63.4868 200.308 62.8749Z" fill="#362E94"/>
<path d="M236.13 185.247L238.609 191.774C238.876 192.48 239.817 192.637 240.288 192.041L244.713 186.628C245.199 186.047 244.854 185.153 244.117 185.043L237.228 183.913C236.46 183.803 235.863 184.525 236.13 185.247Z" fill="#FCBA06"/>
</g>
<defs>
<linearGradient id="paint0_linear" x1="200.624" y1="100.441" x2="214.913" y2="187.127" gradientUnits="userSpaceOnUse">
<stop stop-color="#423EAF"/>
<stop offset="0.6368" stop-color="#4E4AC0"/>
<stop offset="1" stop-color="#5652CC"/>
</linearGradient>
<clipPath id="clip0">
<rect width="261" height="216.36" fill="white" transform="translate(0 0.614014)"/>
</clipPath>
</defs>
</svg>
