<svg width="144" height="73" viewBox="0 0 144 73" fill="none" xmlns="http://www.w3.org/2000/svg">
<path fill-rule="evenodd" clip-rule="evenodd" d="M15.5999 47.6385L18.5676 44.6716V32.7649L33.4062 47.6385H45.3162L48.2839 44.6716V20.8975L63.1223 35.7709V44.6716L66.0901 47.6385H77.961L80.9287 44.6716V35.7709L95.7674 20.8973V9.02959V3.09576L92.7996 0.128845H80.9287L77.961 3.09576V9.02959L72.0255 14.9634L66.0901 9.02959V3.09576L63.1223 0.128845H51.2514L48.2838 3.09564L45.3162 0.128845H33.4062L30.4385 3.09576V14.9634L15.5999 0.128845H3.72896L0.76123 3.09576V44.6716L3.72896 47.6385H15.5999ZM140.323 20.8582L143.29 17.9303V9.02959L134.387 0.128845H104.671L95.7676 9.02959V20.8973V38.7378L104.671 47.6385H134.387L143.29 38.7378V29.798L140.323 26.8311H125.484V29.798H113.613V17.9303H125.484V20.8582H140.323Z" fill="#2157E4"/>
<path d="M5.36458 21.5934C5.36458 22.5035 5.11065 23.1899 4.60279 23.6525C4.09492 24.1101 3.38593 24.3389 2.4758 24.3389H0.959754V18.9535H2.63419C3.18731 18.9535 3.66751 19.0541 4.07481 19.2552C4.48713 19.4564 4.80392 19.753 5.02517 20.1452C5.25144 20.5324 5.36458 21.0151 5.36458 21.5934ZM4.35388 21.6236C4.35388 20.9799 4.20555 20.5073 3.90887 20.2056C3.61723 19.9039 3.19234 19.753 2.63419 19.753H1.9252V23.5318H2.50597C3.73791 23.5318 4.35388 22.8957 4.35388 21.6236ZM9.69245 24.3389L9.20218 22.9133H7.17325L6.69053 24.3389H5.66475L7.64088 18.9309H8.74209L10.7182 24.3389H9.69245ZM8.48564 20.6958C8.46553 20.6254 8.43536 20.5299 8.39513 20.4092C8.35491 20.2885 8.31468 20.1653 8.27445 20.0396C8.23926 19.9089 8.2116 19.8008 8.19149 19.7153C8.16635 19.8159 8.13366 19.9315 8.09343 20.0623C8.05824 20.193 8.02304 20.3162 7.98784 20.4318C7.95264 20.5475 7.9275 20.6355 7.91241 20.6958L7.43724 22.0837H8.95328L8.48564 20.6958ZM12.827 24.3389H11.8616V19.7681H10.3154V18.9535H14.3732V19.7681H12.827V24.3389ZM17.9936 24.3389L17.5034 22.9133H15.4744L14.9917 24.3389H13.9659L15.9421 18.9309H17.0433L19.0194 24.3389H17.9936ZM16.7868 20.6958C16.7667 20.6254 16.7365 20.5299 16.6963 20.4092C16.6561 20.2885 16.6159 20.1653 16.5756 20.0396C16.5404 19.9089 16.5128 19.8008 16.4927 19.7153C16.4675 19.8159 16.4348 19.9315 16.3946 20.0623C16.3594 20.193 16.3242 20.3162 16.289 20.4318C16.2538 20.5475 16.2287 20.6355 16.2136 20.6958L15.7384 22.0837H17.2545L16.7868 20.6958ZM19.7276 24.3389V18.9535H20.6931V23.5243H22.9407V24.3389H19.7276ZM28.5393 21.6386C28.5393 22.1968 28.4463 22.6845 28.2603 23.1019C28.0793 23.5142 27.8002 23.836 27.4231 24.0673C27.0459 24.2986 26.5733 24.4143 26.0051 24.4143C25.4318 24.4143 24.9567 24.2986 24.5795 24.0673C24.2074 23.836 23.9284 23.5117 23.7423 23.0944C23.5613 22.677 23.4708 22.1893 23.4708 21.6311C23.4708 21.078 23.5613 20.5953 23.7423 20.1829C23.9284 19.7656 24.2074 19.4438 24.5795 19.2175C24.9567 18.9862 25.4343 18.8705 26.0126 18.8705C26.5808 18.8705 27.051 18.9862 27.4231 19.2175C27.8002 19.4438 28.0793 19.7656 28.2603 20.1829C28.4463 20.5953 28.5393 21.0805 28.5393 21.6386ZM24.489 21.6386C24.489 22.2471 24.6097 22.7248 24.8511 23.0717C25.0924 23.4187 25.4771 23.5922 26.0051 23.5922C26.5381 23.5922 26.9227 23.4187 27.1591 23.0717C27.4004 22.7248 27.5211 22.2471 27.5211 21.6386C27.5211 21.0302 27.4029 20.5525 27.1666 20.2056C26.9303 19.8586 26.5456 19.6851 26.0126 19.6851C25.4846 19.6851 25.0974 19.8586 24.8511 20.2056C24.6097 20.5525 24.489 21.0302 24.489 21.6386ZM31.979 19.6927C31.4862 19.6927 31.1041 19.8687 30.8326 20.2207C30.5661 20.5726 30.4328 21.0503 30.4328 21.6537C30.4328 22.2622 30.5585 22.7399 30.8099 23.0868C31.0614 23.4287 31.4485 23.5997 31.9715 23.5997C32.1978 23.5997 32.419 23.5771 32.6352 23.5318C32.8514 23.4815 33.0777 23.4162 33.314 23.3357V24.1578C33.0928 24.2484 32.869 24.3137 32.6428 24.354C32.4215 24.3942 32.1651 24.4143 31.8734 24.4143C31.3203 24.4143 30.8627 24.3012 30.5007 24.0749C30.1387 23.8436 29.8696 23.5218 29.6936 23.1094C29.5177 22.6921 29.4297 22.2043 29.4297 21.6462C29.4297 21.1031 29.5277 20.6254 29.7238 20.2131C29.9199 19.7958 30.2065 19.4689 30.5837 19.2326C30.9658 18.9963 31.4309 18.8781 31.979 18.8781C32.2506 18.8781 32.5171 18.9108 32.7785 18.9761C33.045 19.0365 33.2939 19.122 33.5252 19.2326L33.1934 20.0246C33.0023 19.9391 32.8037 19.8636 32.5975 19.7983C32.3964 19.7279 32.1902 19.6927 31.979 19.6927ZM38.6524 24.3389H37.5436L35.9446 21.9554L35.4393 22.3552V24.3389H34.4738V18.9535H35.4393V21.4878C35.5398 21.3621 35.6429 21.2339 35.7485 21.1031C35.8541 20.9724 35.9597 20.8417 36.0653 20.7109L37.521 18.9535H38.6147L36.6385 21.3219L38.6524 24.3389ZM42.4196 24.3389H39.3573V18.9535H42.4196V19.7606H40.3227V21.1333H42.2838V21.9403H40.3227V23.5243H42.4196V24.3389ZM45.0943 18.9535C45.8033 18.9535 46.3262 19.0843 46.6631 19.3457C47.005 19.6072 47.176 20.0044 47.176 20.5374C47.176 20.7989 47.1257 21.0227 47.0251 21.2087C46.9296 21.3948 46.8039 21.5507 46.648 21.6764C46.4921 21.797 46.3237 21.8951 46.1427 21.9705L47.6889 24.3389H46.6028L45.313 22.2119H44.5286V24.3389H43.5631V18.9535H45.0943ZM45.0339 19.7606H44.5286V21.4199H45.0641C45.4613 21.4199 45.7479 21.3495 45.9239 21.2087C46.105 21.0629 46.1955 20.8492 46.1955 20.5676C46.1955 20.276 46.0999 20.0698 45.9089 19.9491C45.7228 19.8234 45.4312 19.7606 45.0339 19.7606Z" fill="#2157E4"/>
<path d="M4.16675 69.7272V60.0613H6.57248C7.40303 60.0613 8.09754 60.183 8.65602 60.4265C9.22881 60.6556 9.68704 60.9921 10.0307 61.436C10.3744 61.8799 10.6178 62.4169 10.761 63.047C10.9185 63.6628 10.9973 64.3573 10.9973 65.1305C10.9973 65.9754 10.8899 66.6914 10.6751 67.2785C10.4603 67.8656 10.1739 68.3453 9.81592 68.7177C9.45793 69.0756 9.04981 69.3334 8.59158 69.4909C8.13334 69.6484 7.66079 69.7272 7.17391 69.7272H4.16675ZM0.794434 57.226V72.5625H7.41019C8.58442 72.5625 9.60112 72.3692 10.4603 71.9826C11.3338 71.5816 12.057 71.0375 12.6298 70.3501C13.2169 69.6628 13.6536 68.8465 13.94 67.9014C14.2264 66.9563 14.3696 65.9253 14.3696 64.8083C14.3696 63.5339 14.1906 62.4241 13.8326 61.479C13.489 60.5339 13.0021 59.7463 12.372 59.1162C11.7563 58.4861 11.0188 58.0136 10.1596 57.6985C9.31473 57.3835 8.39826 57.226 7.41019 57.226H0.794434Z" fill="#2157E4"/>
<path d="M20.5818 66.6341L22.5794 61.0064H22.6224L24.5555 66.6341H20.5818ZM20.904 57.226L15.1045 72.5625H18.4983L19.7011 69.1472H25.4362L26.5961 72.5625H30.0973L24.3622 57.226H20.904Z" fill="#2157E4"/>
<path d="M32.8419 60.0613V72.5625H36.2142V60.0613H40.8108V57.226H28.2452V60.0613H32.8419Z" fill="#2157E4"/>
<path d="M44.4738 66.6341L46.4714 61.0064H46.5144L48.4476 66.6341H44.4738ZM44.796 57.226L38.9965 72.5625H42.3903L43.5931 69.1472H49.3282L50.4881 72.5625H53.9893L48.2542 57.226H44.796Z" fill="#2157E4"/>
<path d="M55.3118 57.226V72.5625H66.1591V69.7272H58.6842V57.226H55.3118Z" fill="#2157E4"/>
<path d="M70.7509 64.9587C70.7509 64.2857 70.8225 63.6341 70.9657 63.004C71.1232 62.374 71.3667 61.8155 71.696 61.3286C72.0254 60.8274 72.455 60.4336 72.9848 60.1472C73.5146 59.8465 74.159 59.6962 74.918 59.6962C75.6769 59.6962 76.3213 59.8465 76.8511 60.1472C77.381 60.4336 77.8106 60.8274 78.1399 61.3286C78.4693 61.8155 78.7056 62.374 78.8488 63.004C79.0063 63.6341 79.085 64.2857 79.085 64.9587C79.085 65.6031 79.0063 66.2332 78.8488 66.8489C78.7056 67.4503 78.4693 67.9945 78.1399 68.4814C77.8106 68.9682 77.381 69.362 76.8511 69.6628C76.3213 69.9492 75.6769 70.0924 74.918 70.0924C74.159 70.0924 73.5146 69.9492 72.9848 69.6628C72.455 69.362 72.0254 68.9682 71.696 68.4814C71.3667 67.9945 71.1232 67.4503 70.9657 66.8489C70.8225 66.2332 70.7509 65.6031 70.7509 64.9587ZM67.3786 64.9587C67.3786 66.0756 67.5504 67.121 67.8941 68.0947C68.2378 69.0542 68.7318 69.8919 69.3762 70.6079C70.0206 71.3239 70.8082 71.8895 71.739 72.3048C72.6841 72.7057 73.7437 72.9062 74.918 72.9062C76.1065 72.9062 77.1662 72.7057 78.097 72.3048C79.0278 71.8895 79.8153 71.3239 80.4597 70.6079C81.1041 69.8919 81.5982 69.0542 81.9418 68.0947C82.2855 67.121 82.4574 66.0756 82.4574 64.9587C82.4574 63.8131 82.2855 62.7534 81.9418 61.7797C81.5982 60.7916 81.1041 59.9324 80.4597 59.2021C79.8153 58.4718 79.0278 57.899 78.097 57.4838C77.1662 57.0685 76.1065 56.8608 74.918 56.8608C73.7437 56.8608 72.6841 57.0685 71.739 57.4838C70.8082 57.899 70.0206 58.4718 69.3762 59.2021C68.7318 59.9324 68.2378 60.7916 67.8941 61.7797C67.5504 62.7534 67.3786 63.8131 67.3786 64.9587Z" fill="#2157E4"/>
<path d="M94.9869 62.3811H98.2518C98.1516 61.4933 97.9082 60.7057 97.5215 60.0184C97.1349 59.331 96.6409 58.7582 96.0394 58.3C95.4523 57.8274 94.7793 57.4694 94.0203 57.226C93.2757 56.9826 92.4809 56.8608 91.6361 56.8608C90.4618 56.8608 89.4022 57.0685 88.4571 57.4838C87.5263 57.899 86.7387 58.4718 86.0943 59.2021C85.4499 59.9324 84.9559 60.7916 84.6122 61.7797C84.2685 62.7534 84.0967 63.8131 84.0967 64.9587C84.0967 66.0756 84.2685 67.121 84.6122 68.0947C84.9559 69.0542 85.4499 69.8919 86.0943 70.6079C86.7387 71.3239 87.5263 71.8895 88.4571 72.3048C89.4022 72.7057 90.4618 72.9062 91.6361 72.9062C92.5812 72.9062 93.4475 72.763 94.2351 72.4766C95.0227 72.1902 95.7101 71.7749 96.2972 71.2308C96.8843 70.6866 97.3568 70.0279 97.7148 69.2546C98.0728 68.4814 98.2948 67.615 98.3807 66.6556H95.1158C94.9869 67.6866 94.6289 68.5172 94.0418 69.1472C93.469 69.7773 92.6671 70.0924 91.6361 70.0924C90.8771 70.0924 90.2327 69.9492 89.7029 69.6628C89.1731 69.362 88.7435 68.9682 88.4141 68.4814C88.0848 67.9945 87.8413 67.4503 87.6838 66.8489C87.5406 66.2332 87.469 65.6031 87.469 64.9587C87.469 64.2857 87.5406 63.6341 87.6838 63.004C87.8413 62.374 88.0848 61.8155 88.4141 61.3286C88.7435 60.8274 89.1731 60.4336 89.7029 60.1472C90.2327 59.8465 90.8771 59.6962 91.6361 59.6962C92.0513 59.6962 92.4451 59.7678 92.8175 59.911C93.2041 60.0398 93.5478 60.226 93.8485 60.4694C94.1492 60.7129 94.3998 60.9993 94.6003 61.3286C94.8008 61.6437 94.9296 61.9945 94.9869 62.3811Z" fill="#2157E4"/>
<path d="M100.684 57.226V72.5625H104.056V67.6222L105.989 65.6675L110.607 72.5625H114.839L108.266 63.2833L114.259 57.226H110.049L104.056 63.584V57.226H100.684Z" fill="#2157E4"/>
<path d="M116.185 57.226V72.5625H127.827V69.7272H119.557V65.9682H126.989V63.3477H119.557V60.0613H127.655V57.226H116.185Z" fill="#2157E4"/>
<path d="M133.486 64.1639V59.8465H137.18C137.953 59.8465 138.533 60.0184 138.92 60.362C139.307 60.6914 139.5 61.2284 139.5 61.973C139.5 62.7463 139.307 63.3048 138.92 63.6484C138.533 63.9921 137.953 64.1639 137.18 64.1639H133.486ZM130.113 57.226V72.5625H133.486V66.5697H136.858C137.703 66.5697 138.311 66.7558 138.684 67.1282C139.056 67.5005 139.299 68.0876 139.414 68.8895C139.5 69.5052 139.564 70.1496 139.607 70.8227C139.65 71.4957 139.765 72.0756 139.951 72.5625H143.323C143.166 72.3477 143.044 72.09 142.958 71.7893C142.887 71.4742 142.829 71.1449 142.786 70.8012C142.758 70.4575 142.736 70.121 142.722 69.7916C142.708 69.4623 142.693 69.1759 142.679 68.9324C142.65 68.5458 142.593 68.1592 142.507 67.7725C142.436 67.3859 142.314 67.0351 142.142 66.72C141.97 66.3907 141.748 66.1114 141.476 65.8823C141.204 65.6389 140.86 65.4599 140.445 65.3453V65.3024C141.304 64.9587 141.92 64.4575 142.292 63.7988C142.679 63.1401 142.872 62.3597 142.872 61.4575C142.872 60.8704 142.765 60.3262 142.55 59.825C142.35 59.3095 142.049 58.8585 141.648 58.4718C141.261 58.0852 140.789 57.7845 140.23 57.5697C139.686 57.3406 139.07 57.226 138.383 57.226H130.113Z" fill="#2157E4"/>
</svg>
