<svg width="155" height="84" viewBox="0 0 155 84" fill="none" xmlns="http://www.w3.org/2000/svg">
<path d="M2.56595 74.3526V57.4976H7.75211C9.23387 57.4976 10.5574 57.8333 11.7228 58.5047C12.8958 59.1684 13.8103 60.1177 14.4663 61.3525C15.1223 62.5796 15.4503 63.9764 15.4503 65.5431V66.3187C15.4503 67.8853 15.1262 69.2783 14.4779 70.4977C13.8374 71.7171 12.9305 72.6625 11.7575 73.3339C10.5844 74.0053 9.26088 74.3449 7.78684 74.3526H2.56595ZM6.03882 60.3106V71.5627H7.71738C9.07566 71.5627 10.1137 71.119 10.8314 70.2315C11.5491 69.3439 11.9157 68.0744 11.9311 66.4229V65.5315C11.9311 63.8182 11.5761 62.5217 10.8661 61.6419C10.1561 60.7544 9.1181 60.3106 7.75211 60.3106H6.03882ZM27.2465 70.8797H21.1574L19.9998 74.3526H16.307L22.5813 57.4976H25.7995L32.1085 74.3526H28.4157L27.2465 70.8797ZM22.0951 68.0667H26.3088L24.1904 61.7576L22.0951 68.0667ZM44.9813 60.3106H39.8183V74.3526H36.3454V60.3106H31.2519V57.4976H44.9813V60.3106ZM55.099 70.8797H49.0099L47.8522 74.3526H44.1594L50.4337 57.4976H53.6519L59.961 74.3526H56.2682L55.099 70.8797ZM49.9475 68.0667H54.1613L52.0428 61.7576L49.9475 68.0667ZM65.0082 71.5627H72.3823V74.3526H61.5354V57.4976H65.0082V71.5627ZM87.4893 66.3071C87.4893 67.9664 87.196 69.4211 86.6095 70.6714C86.023 71.9216 85.1818 72.8863 84.0859 73.5654C82.9977 74.2446 81.7475 74.5841 80.3352 74.5841C78.9383 74.5841 77.6919 74.2484 76.5961 73.577C75.5002 72.9056 74.6512 71.9486 74.0493 70.7061C73.4473 69.4558 73.1425 68.0204 73.1348 66.3997V65.5662C73.1348 63.907 73.4319 62.4484 74.0261 61.1904C74.6281 59.9247 75.4732 58.9562 76.5613 58.2848C77.6572 57.6056 78.9074 57.2661 80.312 57.2661C81.7166 57.2661 82.963 57.6056 84.0512 58.2848C85.147 58.9562 85.9921 59.9247 86.5864 61.1904C87.1883 62.4484 87.4893 63.9031 87.4893 65.5547V66.3071ZM83.9701 65.5431C83.9701 63.7758 83.6537 62.4329 83.0209 61.5145C82.388 60.5962 81.4851 60.137 80.312 60.137C79.1467 60.137 78.2476 60.5923 77.6148 61.503C76.9819 62.4059 76.6617 63.7333 76.6539 65.4852V66.3071C76.6539 68.0281 76.9704 69.3632 77.6032 70.3125C78.236 71.2617 79.1467 71.7364 80.3352 71.7364C81.5005 71.7364 82.3958 71.281 83.0209 70.3704C83.646 69.452 83.9624 68.1169 83.9701 66.365V65.5431ZM103.245 68.7381C103.113 70.5517 102.442 71.9795 101.23 73.0213C100.026 74.0632 98.4366 74.5841 96.4609 74.5841C94.3 74.5841 92.5983 73.8587 91.3558 72.4078C90.121 70.9492 89.5036 68.9504 89.5036 66.4113V65.381C89.5036 63.7603 89.7891 62.3326 90.3602 61.0978C90.9313 59.863 91.7455 58.9176 92.8028 58.2616C93.8678 57.5979 95.1026 57.2661 96.5072 57.2661C98.452 57.2661 100.019 57.787 101.207 58.8289C102.396 59.8707 103.083 61.3332 103.268 63.2162H99.7949C99.71 62.1281 99.4051 61.3409 98.8803 60.8547C98.3633 60.3608 97.5722 60.1138 96.5072 60.1138C95.3496 60.1138 94.4814 60.5306 93.9025 61.364C93.3314 62.1898 93.0382 63.4748 93.0227 65.2189V66.4923C93.0227 68.3137 93.2967 69.6449 93.8447 70.4861C94.4003 71.3273 95.2724 71.7479 96.4609 71.7479C97.5336 71.7479 98.3324 71.5048 98.8572 71.0186C99.3897 70.5247 99.6945 69.7645 99.7717 68.7381H103.245ZM110.804 67.5921L108.998 69.5369V74.3526H105.525V57.4976H108.998V65.1379L110.526 63.0426L114.821 57.4976H119.092L113.108 64.9874L119.266 74.3526H115.133L110.804 67.5921ZM130.715 67.048H124.047V71.5627H131.873V74.3526H120.574V57.4976H131.849V60.3106H124.047V64.3276H130.715V67.048ZM140.15 68.1825H137.383V74.3526H133.91V57.4976H140.173C142.164 57.4976 143.7 57.9413 144.78 58.8289C145.861 59.7164 146.401 60.9705 146.401 62.5911C146.401 63.741 146.15 64.7019 145.648 65.4736C145.154 66.2377 144.402 66.8473 143.391 67.3027L147.038 74.1905V74.3526H143.31L140.15 68.1825ZM137.383 65.3694H140.184C141.056 65.3694 141.732 65.1495 142.21 64.7096C142.689 64.262 142.928 63.6484 142.928 62.869C142.928 62.0741 142.7 61.4489 142.245 60.9936C141.797 60.5383 141.107 60.3106 140.173 60.3106H137.383V65.3694Z" fill="#2157E4"/>
<path d="M141.634 20.8582L144.602 17.9303V9.02959L135.699 0.128845H105.982L97.0791 9.02959V20.8973V38.7378L105.982 47.6385H135.699L144.602 38.7378V29.798L141.634 26.8311H126.795V29.798H114.925V17.9303H126.795V20.8582H141.634Z" fill="#2157E4"/>
<path d="M16.9109 47.6385L19.8786 44.6716V32.7649L34.7173 47.6385H46.6272L49.595 44.6716V3.09576L46.6272 0.128845H34.7173L31.7496 3.09576V14.9634L16.9109 0.128845H5.03999L2.07227 3.09576V44.6716L5.03999 47.6385H16.9109Z" fill="#2157E4"/>
<path d="M97.0784 3.09576L94.1107 0.128845H82.2398L79.272 3.09576V9.02959L73.3366 14.9634L67.4011 9.02959V3.09576L64.4334 0.128845H52.5625L49.5947 3.09576V20.8973L64.4334 35.7709V44.6716L67.4011 47.6385H79.272L82.2398 44.6716V35.7709L97.0784 20.8973V9.02959V3.09576Z" fill="#2157E4"/>
<path d="M6.67561 21.5934C6.67561 22.5035 6.42168 23.1899 5.91382 23.6525C5.40596 24.1101 4.69696 24.3389 3.78683 24.3389H2.27079V18.9535H3.94523C4.49834 18.9535 4.97855 19.0541 5.38585 19.2552C5.79817 19.4564 6.11495 19.753 6.3362 20.1452C6.56248 20.5324 6.67561 21.0151 6.67561 21.5934ZM5.66492 21.6236C5.66492 20.9799 5.51658 20.5073 5.21991 20.2056C4.92827 19.9039 4.50337 19.753 3.94523 19.753H3.23623V23.5318H3.817C5.04895 23.5318 5.66492 22.8957 5.66492 21.6236ZM11.0035 24.3389L10.5132 22.9133H8.48428L8.00156 24.3389H6.97578L8.95192 18.9309H10.0531L12.0293 24.3389H11.0035ZM9.79668 20.6958C9.77657 20.6254 9.7464 20.5299 9.70617 20.4092C9.66594 20.2885 9.62572 20.1653 9.58549 20.0396C9.55029 19.9089 9.52264 19.8008 9.50252 19.7153C9.47738 19.8159 9.4447 19.9315 9.40447 20.0623C9.36927 20.193 9.33407 20.3162 9.29887 20.4318C9.26368 20.5475 9.23853 20.6355 9.22345 20.6958L8.74827 22.0837H10.2643L9.79668 20.6958ZM14.138 24.3389H13.1726V19.7681H11.6264V18.9535H15.6843V19.7681H14.138V24.3389ZM19.3047 24.3389L18.8144 22.9133H16.7855L16.3027 24.3389H15.277L17.2531 18.9309H18.3543L20.3304 24.3389H19.3047ZM18.0979 20.6958C18.0777 20.6254 18.0476 20.5299 18.0073 20.4092C17.9671 20.2885 17.9269 20.1653 17.8867 20.0396C17.8515 19.9089 17.8238 19.8008 17.8037 19.7153C17.7786 19.8159 17.7459 19.9315 17.7056 20.0623C17.6704 20.193 17.6353 20.3162 17.6001 20.4318C17.5649 20.5475 17.5397 20.6355 17.5246 20.6958L17.0494 22.0837H18.5655L18.0979 20.6958ZM21.0387 24.3389V18.9535H22.0041V23.5243H24.2518V24.3389H21.0387ZM29.8504 21.6386C29.8504 22.1968 29.7574 22.6845 29.5713 23.1019C29.3903 23.5142 29.1112 23.836 28.7341 24.0673C28.357 24.2986 27.8843 24.4143 27.3161 24.4143C26.7429 24.4143 26.2677 24.2986 25.8906 24.0673C25.5185 23.836 25.2394 23.5117 25.0533 23.0944C24.8723 22.677 24.7818 22.1893 24.7818 21.6311C24.7818 21.078 24.8723 20.5953 25.0533 20.1829C25.2394 19.7656 25.5185 19.4438 25.8906 19.2175C26.2677 18.9862 26.7454 18.8705 27.3236 18.8705C27.8918 18.8705 28.362 18.9862 28.7341 19.2175C29.1112 19.4438 29.3903 19.7656 29.5713 20.1829C29.7574 20.5953 29.8504 21.0805 29.8504 21.6386ZM25.8001 21.6386C25.8001 22.2471 25.9207 22.7248 26.1621 23.0717C26.4035 23.4187 26.7881 23.5922 27.3161 23.5922C27.8491 23.5922 28.2338 23.4187 28.4701 23.0717C28.7115 22.7248 28.8321 22.2471 28.8321 21.6386C28.8321 21.0302 28.714 20.5525 28.4776 20.2056C28.2413 19.8586 27.8566 19.6851 27.3236 19.6851C26.7957 19.6851 26.4085 19.8586 26.1621 20.2056C25.9207 20.5525 25.8001 21.0302 25.8001 21.6386ZM33.2901 19.6927C32.7973 19.6927 32.4151 19.8687 32.1436 20.2207C31.8771 20.5726 31.7438 21.0503 31.7438 21.6537C31.7438 22.2622 31.8696 22.7399 32.121 23.0868C32.3724 23.4287 32.7596 23.5997 33.2825 23.5997C33.5088 23.5997 33.73 23.5771 33.9463 23.5318C34.1625 23.4815 34.3888 23.4162 34.6251 23.3357V24.1578C34.4038 24.2484 34.1801 24.3137 33.9538 24.354C33.7326 24.3942 33.4761 24.4143 33.1845 24.4143C32.6313 24.4143 32.1738 24.3012 31.8117 24.0749C31.4497 23.8436 31.1807 23.5218 31.0047 23.1094C30.8287 22.6921 30.7407 22.2043 30.7407 21.6462C30.7407 21.1031 30.8387 20.6254 31.0348 20.2131C31.231 19.7958 31.5176 19.4689 31.8947 19.2326C32.2768 18.9963 32.742 18.8781 33.2901 18.8781C33.5616 18.8781 33.8281 18.9108 34.0896 18.9761C34.3561 19.0365 34.605 19.122 34.8363 19.2326L34.5044 20.0246C34.3133 19.9391 34.1147 19.8636 33.9085 19.7983C33.7074 19.7279 33.5012 19.6927 33.2901 19.6927ZM39.9634 24.3389H38.8547L37.2557 21.9554L36.7503 22.3552V24.3389H35.7849V18.9535H36.7503V21.4878C36.8509 21.3621 36.954 21.2339 37.0595 21.1031C37.1651 20.9724 37.2707 20.8417 37.3763 20.7109L38.832 18.9535H39.9257L37.9496 21.3219L39.9634 24.3389ZM43.7306 24.3389H40.6683V18.9535H43.7306V19.7606H41.6338V21.1333H43.5948V21.9403H41.6338V23.5243H43.7306V24.3389ZM46.4053 18.9535C47.1143 18.9535 47.6372 19.0843 47.9741 19.3457C48.3161 19.6072 48.487 20.0044 48.487 20.5374C48.487 20.7989 48.4367 21.0227 48.3362 21.2087C48.2406 21.3948 48.1149 21.5507 47.9591 21.6764C47.8032 21.797 47.6347 21.8951 47.4537 21.9705L48.9999 24.3389H47.9138L46.624 22.2119H45.8396V24.3389H44.8742V18.9535H46.4053ZM46.345 19.7606H45.8396V21.4199H46.3751C46.7724 21.4199 47.059 21.3495 47.235 21.2087C47.416 21.0629 47.5065 20.8492 47.5065 20.5676C47.5065 20.276 47.411 20.0698 47.2199 19.9491C47.0338 19.8234 46.7422 19.7606 46.345 19.7606Z" fill="#2157E4"/>
</svg>
