<?xml version="1.0" encoding="UTF-8"?>
<svg width="876px" height="778px" viewBox="0 0 876 778" version="1.1" xmlns="http://www.w3.org/2000/svg" xmlns:xlink="http://www.w3.org/1999/xlink">
    <title>Artboard</title>
    <g id="Artboard" stroke="none" stroke-width="1" fill="none" fill-rule="evenodd">
        <g id="Group" transform="translate(240.000000, 38.000000)" fill="#2157E4" fill-rule="nonzero">
            <g id="logo-datalocker" transform="translate(0.552000, 0.000000)">
                <path d="M262.121,160.363 L262.121,125.2 C262.121,106.264 254.729,88.105 241.555,74.724 C228.361,61.344 210.5,53.837 191.856,53.837 L187.288,53.837 C148.489,53.837 117.023,85.775 117.023,125.2 L117.023,160.363 C99.32,161.797 81.655,163.708 64.028,166.118 L64.028,125.339 C64.048,92.146 77.006,60.307 100.101,36.813 C123.197,13.32 154.507,0.077 187.19,-0.003 L191.758,-0.003 C224.44,0.076 255.749,13.298 278.846,36.773 C301.942,60.249 314.94,92.049 314.979,125.237 L314.979,166.016 C297.471,163.667 279.866,161.795 262.124,160.361 L262.121,160.363 Z M25.684,216.434 C133.942,195.627 245.067,195.627 353.325,216.434 L355.775,216.892 C368.833,219.401 378.282,230.989 378.263029,244.47 L378.263029,436.14 C378.282,449.62 368.833,461.209 355.775,463.718 L339.013,466.924 C289.726,476.441 239.674,481.26 189.504,481.3 C139.354,481.3 89.322,476.541 40.036,467.083 L23.273,463.877 L23.273,463.857 C10.236,461.368 0.786,449.78 0.786,436.279 L0.786,244.629 C0.786,231.129 10.236,219.541 23.273,217.052 L25.684,216.434 Z M114.223,343.312 L162.413,399.903 L162.413,399.883 C164.746,402.571 168.118,404.104 171.647,404.104 C175.175,404.104 178.528,402.571 180.88,399.883 L259.065,313.029 C263.516,308.071 263.339,300.445 258.673,295.706 L244.715,281.788 C240.088,277.109 232.677,276.87 227.795,281.27 L171.232,332.402 L144.883,311.455 C139.962,307.532 132.943,307.97 128.532,312.47 L114.828,326.428 C110.397,331.068 110.122,338.355 114.22,343.313 L114.223,343.312 Z" id="Shape"></path>
            </g>
        </g>
        <text id="My-Digital-Data-Lock" font-family="HelveticaNeue-Bold, Helvetica Neue" font-size="78" font-weight="bold" fill="#000000">
            <tspan x="14" y="668">My Digital Data Locker</tspan>
        </text>
    </g>
</svg>