<?xml version="1.0" encoding="UTF-8"?>
<svg width="1210px" height="953px" viewBox="0 0 1210 953" version="1.1" xmlns="http://www.w3.org/2000/svg" xmlns:xlink="http://www.w3.org/1999/xlink">
    <!-- Generator: Sketch 63.1 (92452) - https://sketch.com -->
    <title>Artboard</title>
    <desc>Created with Sketch.</desc>
    <g id="Artboard" stroke="none" stroke-width="1" fill="none" fill-rule="evenodd">
        <g id="Group" transform="translate(407.000000, 65.000000)" fill="#2157E4" fill-rule="nonzero">
            <g id="logo-datalocker" transform="translate(0.552000, 0.000000)">
                <path d="M262.121,160.363 L262.121,125.2 C262.121,106.264 254.729,88.105 241.555,74.724 C228.361,61.344 210.5,53.837 191.856,53.837 L187.288,53.837 C148.489,53.837 117.023,85.775 117.023,125.2 L117.023,160.363 C99.32,161.797 81.655,163.708 64.028,166.118 L64.028,125.339 C64.048,92.146 77.006,60.307 100.101,36.813 C123.197,13.32 154.507,0.077 187.19,-0.003 L191.758,-0.003 C224.44,0.076 255.749,13.298 278.846,36.773 C301.942,60.249 314.94,92.049 314.979,125.237 L314.979,166.016 C297.471,163.667 279.866,161.795 262.124,160.361 L262.121,160.363 Z M25.684,216.434 C133.942,195.627 245.067,195.627 353.325,216.434 L355.775,216.892 C368.833,219.401 378.282,230.989 378.263029,244.47 L378.263029,436.14 C378.282,449.62 368.833,461.209 355.775,463.718 L339.013,466.924 C289.726,476.441 239.674,481.26 189.504,481.3 C139.354,481.3 89.322,476.541 40.036,467.083 L23.273,463.877 L23.273,463.857 C10.236,461.368 0.786,449.78 0.786,436.279 L0.786,244.629 C0.786,231.129 10.236,219.541 23.273,217.052 L25.684,216.434 Z M114.223,343.312 L162.413,399.903 L162.413,399.883 C164.746,402.571 168.118,404.104 171.647,404.104 C175.175,404.104 178.528,402.571 180.88,399.883 L259.065,313.029 C263.516,308.071 263.339,300.445 258.673,295.706 L244.715,281.788 C240.088,277.109 232.677,276.87 227.795,281.27 L171.232,332.402 L144.883,311.455 C139.962,307.532 132.943,307.97 128.532,312.47 L114.828,326.428 C110.397,331.068 110.122,338.355 114.22,343.313 L114.223,343.312 Z" id="Shape"></path>
            </g>
        </g>
        <path d="M45.8837891,729 L45.883585,676.622781 C45.8815441,675.148257 45.8641968,673.14566 45.831543,670.61499 C45.7967122,667.915609 45.7792969,665.834473 45.7792969,664.371582 L45.7792969,664.371582 L60.2514648,729 L75.8730469,729 L90.449707,664.371582 C90.449707,665.834473 90.4322917,667.915609 90.3974609,670.61499 C90.3626302,673.314372 90.3452148,675.412923 90.3452148,676.910645 L90.3452148,729 L105.339844,729 L105.339844,651.989258 L82.1948242,651.989258 L68.2973633,712.54248 L54.2954102,651.989258 L30.8891602,651.989258 L30.8891602,729 L45.8837891,729 Z M128.171387,752.040527 C134.754395,752.040527 139.143066,750.743083 141.337402,748.148193 C143.531738,745.553304 146.509766,738.857096 150.271484,728.05957 L150.271484,728.05957 L169.811523,672.051758 L153.980957,672.051758 L142.225586,714.057617 L129.791016,672.051758 L113.229004,672.051758 L134.127441,731.507812 C134.266764,731.925781 133.961995,733.075195 133.213135,734.956055 C132.464274,736.836914 131.65446,738.073405 130.783691,738.665527 C129.878092,739.29248 128.763509,739.693034 127.439941,739.867188 C126.116374,740.041341 124.723145,740.093587 123.260254,740.023926 L123.260254,740.023926 L121.379395,739.919434 L121.379395,751.831543 C122.981608,751.936035 124.183268,751.996989 124.984375,752.014404 C125.785482,752.03182 126.847819,752.040527 128.171387,752.040527 Z M242.694824,729 C254.328288,729 262.931478,724.210775 268.504395,714.632324 C272.614421,707.526855 274.669434,698.854004 274.669434,688.61377 C274.669434,684.573405 274.181803,680.324056 273.206543,675.865723 C272.231283,671.407389 270.402669,667.262533 267.720703,663.431152 C264.376953,658.694173 260.005697,655.4375 254.606934,653.661133 C251.437337,652.616211 247.466634,652.058919 242.694824,651.989258 L242.694824,651.989258 L209.518555,651.989258 L209.518555,729 L242.694824,729 Z M239.978027,715.625 L225.140137,715.625 L225.140137,665.364258 L239.978027,665.364258 C247.29248,665.364258 252.17749,667.462809 254.633057,671.659912 C257.088623,675.857015 258.316406,681.874023 258.316406,689.710938 C258.316406,695.388346 257.497884,700.282064 255.86084,704.39209 C252.865397,711.880697 247.571126,715.625 239.978027,715.625 L239.978027,715.625 Z M300.896973,665.259766 L300.896973,651.519043 L285.797852,651.519043 L285.797852,665.259766 L300.896973,665.259766 Z M300.896973,729 L300.896973,672.051758 L285.797852,672.051758 L285.797852,729 L300.896973,729 Z M338.618652,752.301758 C350.670085,752.301758 358.820475,749.097331 363.069824,742.688477 C365.542806,738.961589 366.779297,733.423503 366.779297,726.074219 L366.779297,726.074219 L366.779297,672.051758 L352.307129,672.051758 L352.307129,680.254395 C350.077962,676.248861 347.152181,673.497233 343.529785,671.999512 C341.405111,671.128743 338.914714,670.693359 336.058594,670.693359 C328.326172,670.693359 322.352702,673.575602 318.138184,679.340088 C313.923665,685.104574 311.816406,692.21875 311.816406,700.682617 C311.816406,709.459961 314.002035,716.417399 318.373291,721.554932 C322.744548,726.692464 328.587402,729.26123 335.901855,729.26123 C340.638835,729.26123 344.48763,728.129232 347.448242,725.865234 C349.085286,724.646159 350.617839,722.817546 352.045898,720.379395 L352.045898,720.379395 L352.045898,724.036621 C352.045898,729.470215 351.453776,733.336426 350.269531,735.635254 C348.458333,739.222819 344.870768,741.016602 339.506836,741.016602 C335.710286,741.016602 333.010905,740.337402 331.408691,738.979004 C330.468262,738.212728 329.789062,736.958822 329.371094,735.217285 L329.371094,735.217285 L313.174805,735.217285 C313.662435,740.894694 316.205078,745.161458 320.802734,748.017578 C325.400391,750.873698 331.33903,752.301758 338.618652,752.301758 Z M339.768066,716.774414 C334.543457,716.774414 330.921061,714.371094 328.900879,709.564453 C327.786296,706.986979 327.229004,704.043783 327.229004,700.734863 C327.229004,696.903483 327.751465,693.681641 328.796387,691.069336 C330.781738,686.158203 334.386719,683.702637 339.611328,683.702637 C343.442708,683.702637 346.499105,685.113281 348.780518,687.93457 C351.06193,690.755859 352.202637,694.865885 352.202637,700.264648 C352.202637,706.011719 351.000977,710.200114 348.597656,712.829834 C346.194336,715.459554 343.251139,716.774414 339.768066,716.774414 Z M395.984863,665.259766 L395.984863,651.519043 L380.885742,651.519043 L380.885742,665.259766 L395.984863,665.259766 Z M395.984863,729 L395.984863,672.051758 L380.885742,672.051758 L380.885742,729 L395.984863,729 Z M415.002441,726.126465 C417.579915,728.808431 422.386556,730.027507 429.422363,729.783691 L429.422363,729.783691 L436.475586,729.522461 L436.475586,718.394043 C435.987956,718.428874 435.491618,718.454997 434.986572,718.472412 C434.481527,718.489827 434.002604,718.498535 433.549805,718.498535 C430.519531,718.498535 428.708333,718.211182 428.116211,717.636475 C427.524089,717.061768 427.228027,715.607585 427.228027,713.273926 L427.228027,713.273926 L427.228027,683.180176 L436.475586,683.180176 L436.475586,672.574219 L427.228027,672.574219 L427.228027,656.691406 L412.494629,656.691406 L412.494629,672.574219 L404.553223,672.574219 L404.553223,683.180176 L412.494629,683.180176 L412.494629,718.237305 C412.494629,721.790039 413.330566,724.419759 415.002441,726.126465 Z M459.986328,730.776367 C464.026693,730.776367 467.649089,729.853353 470.853516,728.007324 C473.535482,726.439941 475.903971,724.541667 477.958984,722.3125 C478.063477,723.601237 478.202799,724.750651 478.376953,725.760742 C478.551107,726.770833 478.864583,727.850586 479.317383,729 L479.317383,729 L495.513672,729 L495.513672,726.805664 C494.538411,726.352865 493.806966,725.778158 493.319336,725.081543 C492.831706,724.384928 492.535645,723.061361 492.431152,721.11084 C492.361491,718.533366 492.32666,716.33903 492.32666,714.527832 L492.32666,714.527832 L492.32666,688.404785 C492.32666,681.543132 489.905924,676.875814 485.064453,674.402832 C480.222982,671.92985 474.684896,670.693359 468.450195,670.693359 C458.871745,670.693359 452.114583,673.201172 448.178711,678.216797 C445.705729,681.421224 444.3125,685.513835 443.999023,690.494629 L443.999023,690.494629 L458.366699,690.494629 C458.715007,688.300293 459.411621,686.558757 460.456543,685.27002 C461.919434,683.528483 464.409831,682.657715 467.927734,682.657715 C471.0625,682.657715 473.439697,683.101807 475.059326,683.98999 C476.678955,684.878174 477.48877,686.489095 477.48877,688.822754 C477.48877,690.738444 476.426432,692.149089 474.301758,693.054688 C473.117513,693.577148 471.149577,694.012533 468.397949,694.36084 L468.397949,694.36084 L463.330078,694.987793 C457.583008,695.719238 453.229167,696.938314 450.268555,698.64502 C444.869792,701.779785 442.17041,706.847656 442.17041,713.848633 C442.17041,719.247396 443.850993,723.418376 447.212158,726.361572 C450.573324,729.304769 454.83138,730.776367 459.986328,730.776367 Z M464.375,719.961426 C462.354818,719.961426 460.639404,719.395426 459.22876,718.263428 C457.818115,717.131429 457.112793,715.294108 457.112793,712.751465 C457.112793,709.895345 458.262207,707.788086 460.561035,706.429688 C461.919434,705.628581 464.166016,704.949382 467.300781,704.39209 L467.300781,704.39209 L470.644531,703.765137 C472.316406,703.45166 473.631266,703.112061 474.589111,702.746338 C475.546956,702.380615 476.496094,701.901693 477.436523,701.30957 L477.436523,701.30957 L477.436523,706.847656 C477.332031,711.828451 475.930094,715.259277 473.230713,717.140137 C470.531331,719.020996 467.579427,719.961426 464.375,719.961426 Z M520.748535,729 L520.748535,651.989258 L505.858398,651.989258 L505.858398,729 L520.748535,729 Z M599.378906,729 C611.01237,729 619.61556,724.210775 625.188477,714.632324 C629.298503,707.526855 631.353516,698.854004 631.353516,688.61377 C631.353516,684.573405 630.865885,680.324056 629.890625,675.865723 C628.915365,671.407389 627.086751,667.262533 624.404785,663.431152 C621.061035,658.694173 616.689779,655.4375 611.291016,653.661133 C608.121419,652.616211 604.150716,652.058919 599.378906,651.989258 L599.378906,651.989258 L566.202637,651.989258 L566.202637,729 L599.378906,729 Z M596.662109,715.625 L581.824219,715.625 L581.824219,665.364258 L596.662109,665.364258 C603.976562,665.364258 608.861572,667.462809 611.317139,671.659912 C613.772705,675.857015 615.000488,681.874023 615.000488,689.710938 C615.000488,695.388346 614.181966,700.282064 612.544922,704.39209 C609.549479,711.880697 604.255208,715.625 596.662109,715.625 L596.662109,715.625 Z M656.222656,730.776367 C660.263021,730.776367 663.885417,729.853353 667.089844,728.007324 C669.77181,726.439941 672.140299,724.541667 674.195312,722.3125 C674.299805,723.601237 674.439128,724.750651 674.613281,725.760742 C674.787435,726.770833 675.100911,727.850586 675.553711,729 L675.553711,729 L691.75,729 L691.75,726.805664 C690.77474,726.352865 690.043294,725.778158 689.555664,725.081543 C689.068034,724.384928 688.771973,723.061361 688.66748,721.11084 C688.597819,718.533366 688.562988,716.33903 688.562988,714.527832 L688.562988,714.527832 L688.562988,688.404785 C688.562988,681.543132 686.142253,676.875814 681.300781,674.402832 C676.45931,671.92985 670.921224,670.693359 664.686523,670.693359 C655.108073,670.693359 648.350911,673.201172 644.415039,678.216797 C641.942057,681.421224 640.548828,685.513835 640.235352,690.494629 L640.235352,690.494629 L654.603027,690.494629 C654.951335,688.300293 655.647949,686.558757 656.692871,685.27002 C658.155762,683.528483 660.646159,682.657715 664.164062,682.657715 C667.298828,682.657715 669.676025,683.101807 671.295654,683.98999 C672.915283,684.878174 673.725098,686.489095 673.725098,688.822754 C673.725098,690.738444 672.66276,692.149089 670.538086,693.054688 C669.353841,693.577148 667.385905,694.012533 664.634277,694.36084 L664.634277,694.36084 L659.566406,694.987793 C653.819336,695.719238 649.465495,696.938314 646.504883,698.64502 C641.10612,701.779785 638.406738,706.847656 638.406738,713.848633 C638.406738,719.247396 640.087321,723.418376 643.448486,726.361572 C646.809652,729.304769 651.067708,730.776367 656.222656,730.776367 Z M660.611328,719.961426 C658.591146,719.961426 656.875732,719.395426 655.465088,718.263428 C654.054443,717.131429 653.349121,715.294108 653.349121,712.751465 C653.349121,709.895345 654.498535,707.788086 656.797363,706.429688 C658.155762,705.628581 660.402344,704.949382 663.537109,704.39209 L663.537109,704.39209 L666.880859,703.765137 C668.552734,703.45166 669.867594,703.112061 670.825439,702.746338 C671.783285,702.380615 672.732422,701.901693 673.672852,701.30957 L673.672852,701.30957 L673.672852,706.847656 C673.568359,711.828451 672.166423,715.259277 669.467041,717.140137 C666.76766,719.020996 663.815755,719.961426 660.611328,719.961426 Z M706.378906,726.126465 C708.95638,728.808431 713.763021,730.027507 720.798828,729.783691 L720.798828,729.783691 L727.852051,729.522461 L727.852051,718.394043 C727.364421,718.428874 726.868083,718.454997 726.363037,718.472412 C725.857992,718.489827 725.379069,718.498535 724.92627,718.498535 C721.895996,718.498535 720.084798,718.211182 719.492676,717.636475 C718.900553,717.061768 718.604492,715.607585 718.604492,713.273926 L718.604492,713.273926 L718.604492,683.180176 L727.852051,683.180176 L727.852051,672.574219 L718.604492,672.574219 L718.604492,656.691406 L703.871094,656.691406 L703.871094,672.574219 L695.929688,672.574219 L695.929688,683.180176 L703.871094,683.180176 L703.871094,718.237305 C703.871094,721.790039 704.707031,724.419759 706.378906,726.126465 Z M751.362793,730.776367 C755.403158,730.776367 759.025553,729.853353 762.22998,728.007324 C764.911947,726.439941 767.280436,724.541667 769.335449,722.3125 C769.439941,723.601237 769.579264,724.750651 769.753418,725.760742 C769.927572,726.770833 770.241048,727.850586 770.693848,729 L770.693848,729 L786.890137,729 L786.890137,726.805664 C785.914876,726.352865 785.183431,725.778158 784.695801,725.081543 C784.208171,724.384928 783.912109,723.061361 783.807617,721.11084 C783.737956,718.533366 783.703125,716.33903 783.703125,714.527832 L783.703125,688.404785 C783.703125,681.543132 781.282389,676.875814 776.440918,674.402832 C771.599447,671.92985 766.061361,670.693359 759.82666,670.693359 C750.24821,670.693359 743.491048,673.201172 739.555176,678.216797 C737.082194,681.421224 735.688965,685.513835 735.375488,690.494629 L735.375488,690.494629 L749.743164,690.494629 C750.091471,688.300293 750.788086,686.558757 751.833008,685.27002 C753.295898,683.528483 755.786296,682.657715 759.304199,682.657715 C762.438965,682.657715 764.816162,683.101807 766.435791,683.98999 C768.05542,684.878174 768.865234,686.489095 768.865234,688.822754 C768.865234,690.738444 767.802897,692.149089 765.678223,693.054688 C764.493978,693.577148 762.526042,694.012533 759.774414,694.36084 L759.774414,694.36084 L754.706543,694.987793 C748.959473,695.719238 744.605632,696.938314 741.64502,698.64502 C736.246257,701.779785 733.546875,706.847656 733.546875,713.848633 C733.546875,719.247396 735.227458,723.418376 738.588623,726.361572 C741.949788,729.304769 746.207845,730.776367 751.362793,730.776367 Z M755.751465,719.961426 C753.731283,719.961426 752.015869,719.395426 750.605225,718.263428 C749.19458,717.131429 748.489258,715.294108 748.489258,712.751465 C748.489258,709.895345 749.638672,707.788086 751.9375,706.429688 C753.295898,705.628581 755.54248,704.949382 758.677246,704.39209 L758.677246,704.39209 L762.020996,703.765137 C763.692871,703.45166 765.007731,703.112061 765.965576,702.746338 C766.923421,702.380615 767.872559,701.901693 768.812988,701.30957 L768.812988,701.30957 L768.812988,706.847656 C768.708496,711.828451 767.306559,715.259277 764.607178,717.140137 C761.907796,719.020996 758.955892,719.961426 755.751465,719.961426 Z M882.08252,729 L882.08252,715.154785 L843.942871,715.154785 L843.942871,651.989258 L827.851074,651.989258 L827.851074,729 L882.08252,729 Z M917.609863,730.985352 C927.397298,730.985352 934.694336,728.016032 939.500977,722.077393 C944.307617,716.138753 946.710938,708.989746 946.710938,700.630371 C946.710938,692.410319 944.307617,685.287435 939.500977,679.261719 C934.694336,673.236003 927.397298,670.223145 917.609863,670.223145 C907.822428,670.223145 900.525391,673.236003 895.71875,679.261719 C890.912109,685.287435 888.508789,692.410319 888.508789,700.630371 C888.508789,708.989746 890.912109,716.138753 895.71875,722.077393 C900.525391,728.016032 907.822428,730.985352 917.609863,730.985352 Z M917.557617,718.498535 C913.203776,718.498535 909.851318,716.948568 907.500244,713.848633 C905.14917,710.748698 903.973633,706.342611 903.973633,700.630371 C903.973633,694.918132 905.14917,690.520752 907.500244,687.438232 C909.851318,684.355713 913.203776,682.814453 917.557617,682.814453 C921.911458,682.814453 925.255208,684.355713 927.588867,687.438232 C929.922526,690.520752 931.089355,694.918132 931.089355,700.630371 C931.089355,706.342611 929.922526,710.748698 927.588867,713.848633 C925.255208,716.948568 921.911458,718.498535 917.557617,718.498535 Z M980.827637,730.985352 C989.988118,730.985352 996.902018,727.728678 1001.56934,721.215332 C1004.49512,717.174967 1006.13216,712.890788 1006.48047,708.362793 L1006.48047,708.362793 L991.276855,708.362793 C990.963379,711.358236 990.075195,713.796387 988.612305,715.677246 C987.149414,717.558105 984.676432,718.498535 981.193359,718.498535 C976.282227,718.498535 972.938477,716.130046 971.162109,711.393066 C970.186849,708.850423 969.699219,705.489258 969.699219,701.30957 C969.699219,696.920898 970.186849,693.402995 971.162109,690.755859 C973.008138,685.775065 976.438965,683.284668 981.45459,683.284668 C984.972493,683.284668 987.567383,684.434082 989.239258,686.73291 C990.388672,688.439616 991.102702,690.355306 991.381348,692.47998 L991.381348,692.47998 L1006.63721,692.47998 C1005.80127,684.364421 1003.1106,678.704427 998.565186,675.5 C994.019775,672.295573 988.176921,670.693359 981.036621,670.693359 C972.642415,670.693359 966.059408,673.410156 961.287598,678.84375 C956.515788,684.277344 954.129883,691.887858 954.129883,701.675293 C954.129883,710.348145 956.289388,717.401367 960.608398,722.834961 C964.927409,728.268555 971.667155,730.985352 980.827637,730.985352 Z M1031.34961,729 L1031.34961,711.07959 L1037.51465,704.65332 L1051.15088,729 L1069.12354,729 L1048.43408,694.099609 L1068.33984,672.312988 L1049.89697,672.312988 L1031.34961,693.733887 L1031.34961,652.250488 L1016.7207,652.250488 L1016.7207,729 L1031.34961,729 Z M1099.37402,730.880859 C1108.15137,730.880859 1114.97819,728.111816 1119.85449,722.57373 C1122.98926,719.090658 1124.74821,715.659831 1125.13135,712.28125 L1125.13135,712.28125 L1109.92773,712.28125 C1109.12663,713.953125 1108.20361,715.259277 1107.15869,716.199707 C1105.243,717.941243 1102.7526,718.812012 1099.6875,718.812012 C1096.79655,718.812012 1094.32357,718.097982 1092.26855,716.669922 C1088.88997,714.371094 1087.09619,710.36556 1086.88721,704.65332 L1086.88721,704.65332 L1125.86279,704.65332 C1125.93245,699.742188 1125.77572,695.980469 1125.39258,693.368164 C1124.73079,688.909831 1123.28532,684.991374 1121.05615,681.612793 C1118.58317,677.781413 1115.4484,674.977539 1111.65186,673.201172 C1107.85531,671.424805 1103.58854,670.536621 1098.85156,670.536621 C1090.87533,670.536621 1084.3881,673.166341 1079.38989,678.425781 C1074.39168,683.685221 1071.89258,691.24349 1071.89258,701.100586 C1071.89258,711.619466 1074.66162,719.212565 1080.19971,723.879883 C1085.73779,728.547201 1092.12923,730.880859 1099.37402,730.880859 Z M1110.39795,694.831055 L1087.25293,694.831055 C1087.74056,691.138997 1088.93351,688.213216 1090.83179,686.053711 C1092.73006,683.894206 1095.40332,682.814453 1098.85156,682.814453 C1102.02116,682.814453 1104.677,683.833252 1106.81909,685.87085 C1108.96118,687.908447 1110.15413,690.895182 1110.39795,694.831055 L1110.39795,694.831055 Z M1150.73193,729 L1150.73193,701.779785 C1150.73193,697.21696 1151.30664,693.838379 1152.45605,691.644043 C1154.51107,687.743001 1158.53402,685.79248 1164.5249,685.79248 C1164.9777,685.79248 1165.56982,685.809896 1166.30127,685.844727 C1167.03271,685.879557 1167.86865,685.949219 1168.80908,686.053711 L1168.80908,686.053711 L1168.80908,670.797852 C1168.1473,670.763021 1167.72062,670.736898 1167.52905,670.719482 C1167.33748,670.702067 1167.10238,670.693359 1166.82373,670.693359 C1162.3654,670.693359 1158.743,671.860189 1155.95654,674.193848 C1154.24984,675.587077 1152.24707,678.181966 1149.94824,681.978516 L1149.94824,681.978516 L1149.94824,672.051758 L1135.7373,672.051758 L1135.7373,729 L1150.73193,729 Z" id="MyDigitalDataLocker" fill="#000000" fill-rule="nonzero"></path>
        <path d="M341.593262,863.050293 C350.183757,863.050293 356.448893,860.502767 360.388672,855.407715 C363.025065,852.001139 364.343262,848.194661 364.343262,843.988281 C364.343262,838.982096 362.876953,835.057129 359.944336,832.213379 C358.285482,830.61377 355.782389,829.177083 352.435059,827.90332 C354.715983,826.748047 356.463704,825.474284 357.678223,824.082031 C360.018392,821.445638 361.188477,818.068685 361.188477,813.951172 C361.188477,810.426107 360.24056,807.315755 358.344727,804.620117 C355.115885,800.058268 349.680176,797.777344 342.037598,797.777344 L342.037598,797.777344 L314,797.777344 L314,863.050293 L341.593262,863.050293 Z M338.749512,825.370605 L322.664551,825.370605 L322.664551,805.15332 L338.438477,805.15332 C342.289388,805.15332 345.192383,805.568034 347.147461,806.397461 C350.613281,807.878581 352.346191,810.751953 352.346191,815.017578 C352.346191,819.253581 350.71696,822.186198 347.458496,823.81543 C345.384928,824.852214 342.481934,825.370605 338.749512,825.370605 L338.749512,825.370605 Z M341.726562,855.496582 L322.664551,855.496582 L322.664551,832.524414 L340.21582,832.524414 C343.91862,832.524414 346.895671,832.983561 349.146973,833.901855 C353.382975,835.619954 355.500977,838.848796 355.500977,843.588379 C355.500977,846.402507 354.775228,848.801921 353.32373,850.786621 C351.013184,853.926595 347.147461,855.496582 341.726562,855.496582 L341.726562,855.496582 Z M385.690819,863.050293 L392.755761,843.499512 L418.571679,843.499512 L425.192284,863.050293 L434.878808,863.050293 L411.195702,797.777344 L401.198144,797.777344 L376.626366,863.050293 L385.690819,863.050293 Z M415.727929,836.30127 L395.288476,836.30127 L405.819237,807.463867 L415.727929,836.30127 Z M492.128709,863.050293 L492.128709,855.274414 L459.070115,855.274414 L459.070115,797.777344 L450.22783,797.777344 L450.22783,863.050293 L492.128709,863.050293 Z M526.939646,863.050293 L526.939646,805.553223 L548.934274,805.553223 L548.934274,797.777344 L495.969431,797.777344 L495.969431,805.553223 L517.96406,805.553223 L517.96406,863.050293 L526.939646,863.050293 Z M575.258395,863.050293 L575.258395,797.777344 L566.327242,797.777344 L566.327242,863.050293 L575.258395,863.050293 Z M605.137202,863.050293 L605.136924,824.288814 C605.133407,822.743155 605.096471,820.415519 605.026118,817.305908 L605.015288,816.821193 C604.948452,813.791081 604.915034,811.516211 604.915034,809.996582 L604.915034,807.99707 L623.666011,863.050293 L632.419429,863.050293 L651.037105,807.99707 C651.037105,811.522135 651.007482,814.825033 650.948237,817.905762 C650.888993,820.986491 650.85937,823.193359 650.85937,824.526367 L650.85937,824.526367 L650.85937,863.050293 L659.257319,863.050293 L659.257319,797.777344 L646.727046,797.777344 L628.10937,852.963867 L609.358394,797.777344 L596.694819,797.777344 L596.694819,863.050293 L605.137202,863.050293 Z M708.020404,864.960938 C718.773334,864.960938 727.052794,861.169271 732.858783,853.585938 C737.805723,847.128255 740.279193,839.02653 740.279193,829.280762 C740.279193,820.275553 738.116759,812.884766 733.791889,807.108398 C728.252501,799.702799 719.721251,796 708.198139,796 C697.178607,796 688.854714,800.028646 683.226459,808.085938 C678.842344,814.365885 676.650287,821.919596 676.650287,830.74707 C676.650287,840.522461 679.212624,848.609375 684.337299,855.007812 C690.084044,861.643229 697.978412,864.960938 708.020404,864.960938 Z M709.086811,857.051758 C700.881407,857.051758 694.949522,854.570882 691.291156,849.609131 C687.63279,844.64738 685.803607,838.552572 685.803607,831.324707 C685.803607,822.289876 687.93642,815.454508 692.202045,810.818604 C696.46767,806.182699 701.977436,803.864746 708.731342,803.864746 C715.692605,803.864746 721.180154,806.204915 725.193988,810.885254 C729.207823,815.565592 731.21474,821.741862 731.21474,829.414062 C731.21474,836.671549 729.474425,843.092204 725.993793,848.676025 C722.513162,854.259847 716.877501,857.051758 709.086811,857.051758 Z M768.025189,863.050293 L768.025189,835.057129 L788.153607,835.057129 C791.767539,835.057129 794.418743,835.457031 796.10722,836.256836 C799.069459,837.708333 800.654258,840.566895 800.861614,844.83252 L800.861614,844.83252 L801.394817,855.71875 C801.513307,858.266276 801.661419,859.984375 801.839153,860.873047 C802.016888,861.761719 802.253867,862.487467 802.550091,863.050293 L802.550091,863.050293 L813.391888,863.050293 L813.391888,861.583984 C812.029258,860.991536 811.081341,859.658529 810.548138,857.584961 C810.222291,856.370443 810.014935,854.519043 809.926067,852.030762 L809.926067,852.030762 L809.615032,843.277344 C809.46692,839.485677 808.748577,836.745605 807.460003,835.057129 C806.171429,833.368652 804.253379,832.006022 801.705853,830.969238 C804.608847,829.458496 806.867555,827.458984 808.481976,824.970703 C810.096396,822.482422 810.903607,819.283203 810.903607,815.373047 C810.903607,807.878581 807.837689,802.739095 801.705853,799.95459 C798.477011,798.503092 794.37431,797.777344 789.397747,797.777344 L789.397747,797.777344 L759.182903,797.777344 L759.182903,863.050293 L768.025189,863.050293 Z M788.464642,827.681152 L768.025189,827.681152 L768.025189,805.375488 L789.619915,805.375488 C792.641399,805.375488 795.055625,805.819824 796.862591,806.708496 C800.239544,808.396973 801.928021,811.566569 801.928021,816.217285 C801.928021,820.542155 800.720908,823.534017 798.306683,825.192871 C795.892457,826.851725 792.611777,827.681152 788.464642,827.681152 L788.464642,827.681152 Z M880.239445,863.050293 L880.239445,855.274414 L840.60468,855.274414 L840.60468,833.146484 L876.640324,833.146484 L876.640324,825.592773 L840.60468,825.592773 L840.60468,805.775391 L879.572941,805.775391 L879.572941,797.777344 L831.984563,797.777344 L831.984563,863.050293 L880.239445,863.050293 Z" id="BALTIMORE" fill="#6B6E76" fill-rule="nonzero"></path>
    </g>
</svg>