<?xml version="1.0" encoding="UTF-8"?>
<svg width="876px" height="846px" viewBox="0 0 876 846" version="1.1" xmlns="http://www.w3.org/2000/svg" xmlns:xlink="http://www.w3.org/1999/xlink">
    <title>Artboard</title>
    <g id="Artboard" stroke="none" stroke-width="1" fill="none" fill-rule="evenodd">
        <g id="Group" transform="translate(129.000000, 38.000000)" fill-rule="nonzero">
            <g id="logo-datalocker" transform="translate(111.552000, 0.000000)" fill="#2157E4">
                <path d="M262.121,160.363 L262.121,125.2 C262.121,106.264 254.729,88.105 241.555,74.724 C228.361,61.344 210.5,53.837 191.856,53.837 L187.288,53.837 C148.489,53.837 117.023,85.775 117.023,125.2 L117.023,160.363 C99.32,161.797 81.655,163.708 64.028,166.118 L64.028,125.339 C64.048,92.146 77.006,60.307 100.101,36.813 C123.197,13.32 154.507,0.077 187.19,-0.003 L191.758,-0.003 C224.44,0.076 255.749,13.298 278.846,36.773 C301.942,60.249 314.94,92.049 314.979,125.237 L314.979,166.016 C297.471,163.667 279.866,161.795 262.124,160.361 L262.121,160.363 Z M25.684,216.434 C133.942,195.627 245.067,195.627 353.325,216.434 L355.775,216.892 C368.833,219.401 378.282,230.989 378.263029,244.47 L378.263029,436.14 C378.282,449.62 368.833,461.209 355.775,463.718 L339.013,466.924 C289.726,476.441 239.674,481.26 189.504,481.3 C139.354,481.3 89.322,476.541 40.036,467.083 L23.273,463.877 L23.273,463.857 C10.236,461.368 0.786,449.78 0.786,436.279 L0.786,244.629 C0.786,231.129 10.236,219.541 23.273,217.052 L25.684,216.434 Z M114.223,343.312 L162.413,399.903 L162.413,399.883 C164.746,402.571 168.118,404.104 171.647,404.104 C175.175,404.104 178.528,402.571 180.88,399.883 L259.065,313.029 C263.516,308.071 263.339,300.445 258.673,295.706 L244.715,281.788 C240.088,277.109 232.677,276.87 227.795,281.27 L171.232,332.402 L144.883,311.455 C139.962,307.532 132.943,307.97 128.532,312.47 L114.828,326.428 C110.397,331.068 110.122,338.355 114.22,343.313 L114.223,343.312 Z" id="Shape"></path>
            </g>
            <path d="M68.796,756.136 C77.42,756.136 85.3253333,754.829333 92.512,752.216 C99.6986667,749.602667 105.970667,745.813333 111.328,740.848 C116.685333,735.882667 120.997333,729.872 124.264,722.816 C127.530667,715.76 129.556,707.854667 130.34,699.1 L100.548,699.1 C99.372,708.508 96.138,716.086667 90.846,721.836 C85.554,727.585333 78.204,730.46 68.796,730.46 C61.8706667,730.46 55.9906667,729.120667 51.156,726.442 C46.3213333,723.763333 42.4013333,720.202667 39.396,715.76 C36.3906667,711.317333 34.202,706.319333 32.83,700.766 C31.458,695.212667 30.772,689.496 30.772,683.616 C30.772,677.474667 31.458,671.529333 32.83,665.78 C34.202,660.030667 36.3906667,654.902 39.396,650.394 C42.4013333,645.886 46.3213333,642.292667 51.156,639.614 C55.9906667,636.935333 61.8706667,635.596 68.796,635.596 C72.5853333,635.596 76.2113333,636.216667 79.674,637.458 C83.1366667,638.699333 86.24,640.430667 88.984,642.652 C91.728,644.873333 94.0146667,647.454 95.844,650.394 C97.6733333,653.334 98.8493333,656.568 99.372,660.096 L129.164,660.096 C128.249333,651.994667 126.028,644.808 122.5,638.536 C118.972,632.264 114.496667,627.004667 109.074,622.758 C103.651333,618.511333 97.51,615.277333 90.65,613.056 C83.79,610.834667 76.5053333,609.724 68.796,609.724 C58.0813333,609.724 48.4446667,611.618667 39.886,615.408 C31.3273333,619.197333 24.108,624.424 18.228,631.088 C12.348,637.752 7.84,645.559333 4.704,654.51 C1.568,663.460667 0,673.162667 0,683.616 C0,693.808 1.568,703.314 4.704,712.134 C7.84,720.954 12.348,728.630667 18.228,735.164 C24.108,741.697333 31.3273333,746.826 39.886,750.55 C48.4446667,754.274 58.0813333,756.136 68.796,756.136 Z M176.988,635.988 L176.988,613.056 L149.156,613.056 L149.156,635.988 L176.988,635.988 Z M176.988,753 L176.988,651.668 L149.156,651.668 L149.156,753 L176.988,753 Z M254.996,753 L289.296,651.668 L261.66,651.668 L240.296,720.856 L239.904,720.856 L218.54,651.668 L189.336,651.668 L224.028,753 L254.996,753 Z M329.476,635.988 L329.476,613.056 L301.644,613.056 L301.644,635.988 L329.476,635.988 Z M329.476,753 L329.476,651.668 L301.644,651.668 L301.644,753 L329.476,753 Z M385.336,753 L385.336,670.288 L404.544,670.288 L404.544,651.668 L385.336,651.668 L385.336,645.592 C385.336,641.410667 386.152667,638.438 387.786,636.674 C389.419333,634.91 392.130667,634.028 395.92,634.028 C399.448,634.028 402.845333,634.224 406.112,634.616 L406.112,613.84 C403.76,613.709333 401.342667,613.546 398.86,613.35 C396.377333,613.154 393.894667,613.056 391.412,613.056 C380.044,613.056 371.550667,615.930667 365.932,621.68 C360.313333,627.429333 357.504,634.812 357.504,643.828 L357.504,651.668 L340.844,651.668 L340.844,670.288 L357.504,670.288 L357.504,753 L385.336,753 Z M449.232,635.988 L449.232,613.056 L421.4,613.056 L421.4,635.988 L449.232,635.988 Z M449.232,753 L449.232,651.668 L421.4,651.668 L421.4,753 L449.232,753 Z M499.8,753 L499.8,613.056 L471.968,613.056 L471.968,753 L499.8,753 Z M568.596,755.548 C580.094667,755.548 589.894667,752.934667 597.996,747.708 C606.097333,742.481333 612.108,733.792 616.028,721.64 L591.528,721.64 C590.613333,724.776 588.130667,727.748667 584.08,730.558 C580.029333,733.367333 575.194667,734.772 569.576,734.772 C561.736,734.772 555.725333,732.746667 551.544,728.696 C547.362667,724.645333 545.076,718.112 544.684,709.096 L617.792,709.096 C618.314667,701.256 617.661333,693.742667 615.832,686.556 C614.002667,679.369333 611.03,672.966667 606.914,667.348 C602.798,661.729333 597.538667,657.254 591.136,653.922 C584.733333,650.59 577.22,648.924 568.596,648.924 C560.886667,648.924 553.863333,650.296 547.526,653.04 C541.188667,655.784 535.733333,659.540667 531.16,664.31 C526.586667,669.079333 523.058667,674.730667 520.576,681.264 C518.093333,687.797333 516.852,694.853333 516.852,702.432 C516.852,710.272 518.060667,717.458667 520.478,723.992 C522.895333,730.525333 526.325333,736.144 530.768,740.848 C535.210667,745.552 540.633333,749.178 547.036,751.726 C553.438667,754.274 560.625333,755.548 568.596,755.548 Z M589.96,691.456 L544.684,691.456 C544.814667,689.496 545.239333,687.274667 545.958,684.792 C546.676667,682.309333 547.918,679.957333 549.682,677.736 C551.446,675.514667 553.798,673.652667 556.738,672.15 C559.678,670.647333 563.369333,669.896 567.812,669.896 C574.606667,669.896 579.67,671.725333 583.002,675.384 C586.334,679.042667 588.653333,684.4 589.96,691.456 Z" id="Civifle" fill="#000000"></path>
        </g>
    </g>
</svg>