<svg width="293" height="172" viewBox="0 0 293 172" fill="none" xmlns="http://www.w3.org/2000/svg">
<path d="M162.28 78.4849C161.542 79.2425 160.136 78.571 159.021 80.0002C157.22 82.3075 154.253 82.9619 155.008 83.2718C157.031 84.0983 159.244 82.5314 159.244 82.5314H164.372L164.904 82.0148L162.28 78.4849Z" fill="#F8D0D0"/>
<path d="M189.963 31.4279C189.603 28.3629 185.263 26.0039 182.519 27.3125C179.775 28.6384 176.636 31.5484 176.67 38.1606C176.739 55.4143 173.48 64.6611 162.297 78.4709C162.297 78.4709 164.664 81.1054 165.676 82.4141C189.963 60.5112 191.164 41.6734 189.963 31.4279Z" fill="#F6F8FB"/>
<path d="M182.519 27.3123C180.461 28.311 178.18 30.1879 177.185 33.8556C176.91 35.061 176.807 36.473 176.67 38.5393C176.67 41.8626 176.55 44.8759 176.276 47.6999C177.219 52.3663 182.313 53.4167 185.178 57.7215C190.546 46.684 190.683 37.5233 189.98 31.4105C189.62 28.3627 185.28 25.9864 182.519 27.3123Z" fill="#CEE4F8"/>
<path d="M165.316 82.5337C164.578 81.5522 162.04 78.1944 161.8 77.9534C162.486 76.9891 163.807 75.5427 164.253 75.1294C165.007 75.887 168.883 80.123 168.883 80.3124C168.558 80.6223 166.688 81.9482 165.882 82.5337C165.659 82.5337 165.47 82.5337 165.316 82.5337Z" fill="#D1E7F3"/>
<path d="M217.011 77.6243C223.735 52.9491 246.821 46.9568 274.401 58.8553C263.887 79.8973 238.245 95.7217 217.011 77.6243Z" fill="#2E4394"/>
<path d="M217.011 78.0528C216.822 78.0528 216.651 77.9323 216.599 77.7257C216.531 77.5018 216.668 77.2608 216.908 77.1919C221.591 75.9521 229.292 73.197 237.422 70.2697C247.318 66.7226 258.536 62.7105 267.146 60.3859C267.369 60.317 267.609 60.4548 267.678 60.6958C267.746 60.9197 267.609 61.1608 267.369 61.2296C258.793 63.537 247.593 67.5491 237.713 71.0963C229.549 74.0235 221.848 76.7786 217.114 78.0356C217.08 78.0528 217.045 78.0528 217.011 78.0528Z" fill="#192B6F"/>
<path d="M206.325 59.6802C202.655 55.0654 197.406 40.6874 207.457 32.6288C212.003 28.9783 213.409 28.2895 215.724 28.6683C217.234 28.9094 218.366 29.8909 219.481 29.0988C221.505 27.6352 216.033 20.0587 222.842 14.032C229.652 8.00523 235.037 11.8623 236.855 10.2093C238.674 8.55625 237.096 5.04352 241.143 3.47657C245.191 1.90962 247.884 8.53903 253.356 7.24758C259.05 5.90448 268.998 5.78395 270.25 11.2252C271.519 16.6493 267.06 17.4758 265.516 20.9713C263.972 24.4668 266.734 35.1256 258.312 37.0885C249.942 39.0515 246.563 38.5522 245.174 49.2626C243.785 59.9729 234.094 64.691 228.948 63.5373C223.803 62.3836 225.038 65.1904 227.662 66.8262C230.286 68.462 226.033 70.58 222.225 69.9429C218.452 69.2885 210.922 65.4831 206.325 59.6802Z" fill="#7DA0FB"/>
<path d="M204.661 62.5754C204.593 62.5754 204.507 62.5582 204.455 62.5238C204.25 62.4032 204.181 62.145 204.301 61.9383C218.983 36.4022 243.047 20.4744 260.679 14.086C260.902 13.9999 261.142 14.1205 261.228 14.3443C261.314 14.5682 261.194 14.8092 260.971 14.8953C243.493 21.232 219.618 37.0393 205.039 62.3688C204.953 62.4893 204.816 62.5754 204.661 62.5754Z" fill="#6789E9"/>
<path d="M246.066 21.7977H246.049C245.809 21.7804 245.637 21.591 245.637 21.35C245.706 20.0241 245.208 14.2728 243.665 11.2767C243.562 11.0701 243.647 10.8118 243.853 10.6912C244.059 10.5879 244.316 10.674 244.436 10.8807C246.066 14.0662 246.563 19.9552 246.495 21.3844C246.477 21.6082 246.289 21.7977 246.066 21.7977Z" fill="#6789E9"/>
<path d="M257.352 24.0006C257.249 24.0006 257.146 23.9662 257.078 23.8973C255.98 22.933 251.709 20.2985 249.737 19.713C249.514 19.6441 249.376 19.4031 249.445 19.1792C249.514 18.9554 249.754 18.8176 249.977 18.8865C252.069 19.4891 256.46 22.2098 257.626 23.2429C257.798 23.3979 257.832 23.6734 257.678 23.8456C257.592 23.9489 257.472 24.0006 257.352 24.0006Z" fill="#6789E9"/>
<path d="M231.058 32.0449C231.041 32.0449 231.024 32.0449 231.007 32.0449C230.767 32.0104 230.612 31.8038 230.629 31.5627C230.818 30.1335 231.367 25.7599 228.365 20.0431C228.262 19.8364 228.331 19.5781 228.554 19.4576C228.76 19.3543 229.017 19.4232 229.137 19.647C232.259 25.6049 231.676 30.1852 231.487 31.6833C231.453 31.8727 231.264 32.0449 231.058 32.0449Z" fill="#6789E9"/>
<path d="M246.992 32.3196C246.924 32.3196 246.838 32.3024 246.769 32.2507C244.334 30.7354 238.519 27.8598 236.684 27.7565C236.444 27.7393 236.272 27.5498 236.272 27.3088C236.289 27.0677 236.478 26.8955 236.718 26.8955C238.759 26.9988 244.762 29.9778 247.215 31.5103C247.421 31.6308 247.472 31.9063 247.352 32.0957C247.284 32.2335 247.147 32.3196 246.992 32.3196Z" fill="#6789E9"/>
<path d="M228.297 45.4045C228.228 45.4045 228.143 45.3873 228.074 45.3357C227.731 45.129 227.371 44.888 226.993 44.6469C225.107 43.4243 222.774 41.8918 220.493 41.5991C220.253 41.5646 220.098 41.358 220.116 41.1169C220.15 40.8759 220.356 40.7209 220.596 40.7381C223.066 41.0653 225.501 42.6495 227.457 43.9237C227.834 44.1647 228.194 44.4058 228.52 44.6124C228.726 44.733 228.777 45.0085 228.657 45.1979C228.589 45.3357 228.434 45.4045 228.297 45.4045Z" fill="#6789E9"/>
<path d="M215.176 47.5608C215.141 47.5608 215.107 47.5608 215.073 47.5436C214.85 47.4747 214.713 47.2509 214.764 47.0098C215.433 44.4613 214.901 39.3817 213.581 35.6795C213.495 35.4557 213.615 35.2146 213.838 35.1285C214.061 35.0424 214.301 35.1629 214.387 35.3868C215.759 39.2095 216.291 44.5302 215.587 47.2164C215.536 47.4403 215.364 47.5608 215.176 47.5608Z" fill="#6789E9"/>
<path d="M182.451 32.2487C183.771 29.2353 178.197 25.051 176.619 23.5013C174.509 21.4006 166.568 8.96826 166.568 8.96826C163.378 16.4931 164.939 31.0089 172.434 34.3667C171.593 35.8992 171.353 37.7416 171.885 39.5497C172.948 43.1313 176.705 45.1803 180.272 44.1128C183.84 43.0452 185.881 39.2741 184.817 35.6925C184.389 34.2633 183.548 33.0924 182.451 32.2487Z" fill="#192B6F"/>
<path d="M194.13 70.2545C192.124 78.5714 188.727 93.5693 188.11 109.532C187.458 126.579 189.671 144.71 189.671 156.988C191.112 156.988 193.873 156.988 193.873 156.988C195.091 153.94 201.677 129.919 202.535 113.13C210.905 95.9112 214.404 73.2678 214.404 61.4727C211.231 61.4899 194.13 70.2545 194.13 70.2545Z" fill="#2E4394"/>
<path d="M193.89 158.538C193.89 157.694 193.89 156.988 193.89 156.988H189.688C189.636 158.435 189.362 159.192 189.207 159.795C190.288 160.225 191.883 159.141 193.89 158.538Z" fill="#F0C2C0"/>
<path d="M193.89 158.539C191.901 159.141 190.288 160.226 189.208 159.796C188.625 160.226 180.1 163.291 179.225 163.894C178.333 164.496 178.471 165.443 179.414 165.443C180.786 165.443 192.106 164.944 192.106 164.944C192.329 165.202 192.518 165.443 192.518 165.443H195.108C195.88 164.118 195.674 160.088 193.89 158.539Z" fill="#192B6F"/>
<path d="M224.798 158.538C224.798 157.694 224.798 156.988 224.798 156.988H220.595C220.544 158.435 220.269 159.192 220.115 159.795C221.213 160.225 222.808 159.141 224.798 158.538Z" fill="#F0C2C0"/>
<path d="M224.798 158.536C222.809 159.139 221.196 160.224 220.116 159.793C219.533 160.224 211.008 163.289 210.133 163.891C209.241 164.494 209.379 165.441 210.322 165.441C211.694 165.441 223.014 164.942 223.014 164.942C223.237 165.2 223.426 165.441 223.426 165.441H226.016C226.805 164.115 226.582 160.086 224.798 158.536Z" fill="#192B6F"/>
<path d="M216.342 59.0278C227.405 73.9914 222.534 82.5321 223.134 97.8745C223.958 118.847 224.798 143.264 224.798 157.005C223.357 157.005 220.596 157.005 220.596 157.005C218.229 151.099 198.299 80.7241 196.703 69.5144C199.894 69.4971 216.342 59.0278 216.342 59.0278Z" fill="url(#paint0_linear)"/>
<path d="M217.732 61.0053C212.38 68.2546 194.131 70.252 194.131 70.252C195.126 48.2802 180.152 56.2183 178.969 45.2669C178.008 36.3301 177.185 34.4015 178.214 31.1471C181.13 21.9692 185.332 21.5904 193.239 24.5005C203.684 28.3403 213.787 50.6221 217.732 61.0053Z" fill="#F6F8FB"/>
<path d="M185.863 24.3827C183.582 21.8342 182.913 18.8209 182.793 16.6512C182.793 16.6512 182.862 11.1927 180.237 7.49059C176.876 2.78973 168.54 6.80182 167.133 9.3847C165.487 12.9491 166.756 15.7214 168.42 19.4407C168.42 19.4407 169.192 23.4184 169.312 23.6422C169.483 23.9694 170.392 23.2979 170.547 23.4184C170.684 23.5389 171.644 25.6052 172.759 26.0185C173.857 26.4318 175.572 24.9681 176.378 24.9509C177.613 24.9165 179.226 25.1575 179.294 28.3259C178.934 33.2334 184.097 30.3577 185.863 24.3827Z" fill="#F7CAC9"/>
<path d="M59.0593 166.28L87.343 166.154L137.322 165.809V49.958H87.343H59.0593V166.28Z" fill="#2E4394"/>
<path d="M87.3431 49.958H165.605V166.162H87.3431V49.958Z" fill="#A8BDF2"/>
<path d="M114.984 143.318H137.964V146.22H114.984V143.318Z" fill="#767676"/>
<path d="M117.757 132.996V120.741H135.113V132.996H117.757Z" fill="#767676"/>
<path d="M118.037 121.067H134.75V132.677H118.037V121.067Z" fill="#E6E6E6"/>
<path d="M114.985 89.1401H137.965V92.0425H114.985V89.1401Z" fill="#686868"/>
<path d="M117.839 78.8956V66.6411H135.195V78.8956H117.839Z" fill="#686868"/>
<path d="M118.038 67.0493H134.751V78.6588H118.038V67.0493Z" fill="#FFFFF6"/>
<path d="M92.3671 53.5044H160.582C161.227 53.5044 161.749 54.0268 161.749 54.6712V102.484C161.749 103.129 161.227 103.651 160.582 103.651H92.3671C91.7227 103.651 91.2003 103.129 91.2003 102.484V54.6712C91.2003 54.0268 91.7227 53.5044 92.3671 53.5044Z" fill="#7DA0FB"/>
<path d="M116.436 89.1392H136.514C137.315 89.1392 137.965 89.7889 137.965 90.5904C137.965 91.3918 137.315 92.0415 136.514 92.0415H116.436C115.634 92.0415 114.984 91.3918 114.984 90.5904C114.984 89.7889 115.634 89.1392 116.436 89.1392Z" fill="#E9FAFF"/>
<path d="M117.839 78.3127V67.225C117.839 66.9028 118.101 66.6416 118.423 66.6416H134.612C134.934 66.6416 135.195 66.9028 135.195 67.225V78.3127C135.195 78.6349 134.934 78.8961 134.612 78.8961H118.423C118.101 78.8961 117.839 78.6349 117.839 78.3127Z" fill="#E5E5E5"/>
<path d="M90.9177 156.169L90.9177 108.526C90.9177 107.882 91.4401 107.359 92.0845 107.359L160.942 107.359C161.587 107.359 162.109 107.882 162.109 108.526V156.169C162.109 156.813 161.587 157.336 160.942 157.336H92.0845C91.4401 157.336 90.9177 156.813 90.9177 156.169Z" fill="#202F66"/>
<path d="M180.909 84.8088C180.699 78.7052 178.256 72.7598 174.304 72.773C173.122 72.773 171.835 73.4189 170.47 74.9349H126.48C129.12 76.6882 129.514 81.6318 129.514 84.8088C129.514 98.9671 132.718 117.186 138.6 122.854H189.982C182.681 115.762 181.158 92.112 180.909 84.8088Z" fill="#FFB43E"/>
<path d="M174.29 72.7716H123.079C121.858 72.7189 120.505 73.3385 119.074 74.9468H170.456C171.835 73.4044 173.122 72.7716 174.29 72.7716Z" fill="#ED8C2B"/>
<path d="M166.924 91.2655H134.753C134.779 91.5423 134.792 91.8192 134.818 92.096H166.99C166.963 91.8192 166.95 91.5423 166.924 91.2655ZM172.386 93.6911H134.976C135.002 93.9679 135.028 94.2448 135.055 94.5216H172.452C172.439 94.2448 172.413 93.9679 172.386 93.6911ZM169.406 88.853H134.608C134.621 89.1299 134.635 89.4067 134.661 89.6836H169.471C169.432 89.3935 169.419 89.1167 169.406 88.853ZM165.125 86.4274H134.503C134.516 86.7043 134.516 86.9811 134.529 87.2579H165.164C165.151 86.9679 165.138 86.6911 165.125 86.4274ZM173.897 84.8059C173.897 84.5423 173.883 84.2786 173.87 84.0018H134.451C134.464 84.2786 134.477 84.5423 134.477 84.8059C134.477 84.8191 134.477 84.8323 134.477 84.8323H173.897C173.897 84.8191 173.897 84.8191 173.897 84.8059ZM174.868 81.5762H134.149C134.201 81.853 134.254 82.1298 134.293 82.4067H175.013C174.973 82.143 174.921 81.853 174.868 81.5762ZM174.803 100.968H135.908C135.948 101.245 136 101.522 136.04 101.798H174.921C174.894 101.522 174.842 101.245 174.803 100.968ZM177.429 105.806H136.801C136.854 106.083 136.919 106.36 136.972 106.637H177.599C177.547 106.36 177.481 106.083 177.429 105.806ZM171.139 96.1167H135.239C135.278 96.3936 135.304 96.6704 135.344 96.9472H171.231C171.205 96.6704 171.165 96.3936 171.139 96.1167ZM178.532 110.657H137.944C138.022 110.934 138.101 111.211 138.167 111.488H178.755C178.676 111.211 178.611 110.934 178.532 110.657ZM177.941 108.232H137.326C137.392 108.508 137.458 108.785 137.523 109.062H178.125C178.072 108.785 178.007 108.508 177.941 108.232ZM176.26 98.5424H135.554C135.593 98.8192 135.632 99.096 135.672 99.3729H176.365C176.326 99.096 176.286 98.8192 176.26 98.5424ZM173.214 103.38H136.328C136.381 103.657 136.433 103.934 136.486 104.211H173.371C173.319 103.947 173.266 103.657 173.214 103.38Z" fill="#ED8C2B"/>
<path d="M91.0394 118.488H123.341V156.057H91.0394V118.488Z" fill="#2E4394"/>
<path d="M121.894 118.488H123.341V156.057H121.894V118.488Z" fill="#2E4394"/>
<path d="M123.924 107.683H193.306C193.628 107.683 193.889 107.944 193.889 108.266V157.246C193.889 157.568 193.628 157.83 193.306 157.83H123.924C123.602 157.83 123.341 157.568 123.341 157.246V108.266C123.341 107.944 123.602 107.683 123.924 107.683Z" fill="#7DA0FB"/>
<path d="M148.576 143.318H168.654C169.456 143.318 170.105 143.968 170.105 144.77C170.105 145.571 169.456 146.221 168.654 146.221H148.576C147.775 146.221 147.125 145.571 147.125 144.77C147.125 143.968 147.775 143.318 148.576 143.318Z" fill="#E9FAFF"/>
<path d="M150.301 131.608V120.52C150.301 120.198 150.562 119.937 150.885 119.937H167.074C167.396 119.937 167.657 120.198 167.657 120.52V131.608C167.657 131.93 167.396 132.191 167.074 132.191H150.885C150.562 132.191 150.301 131.93 150.301 131.608Z" fill="#E5E5E5"/>
<path d="M56.4869 131.576C43.7088 132.403 37.1054 122.381 38.2202 107.28C49.9006 108.864 61.5639 118.49 56.4869 131.576Z" fill="#CEE4F8"/>
<path d="M63.142 149.021C42.8686 158.216 25.974 145.973 18.5988 120.73C38.5635 116.08 63.4336 124.587 63.142 149.021Z" fill="#7DA0FB"/>
<path d="M63.1424 149.453C63.0567 149.453 62.9709 149.418 62.8851 149.366C59.4376 146.887 53.3144 143.236 46.8139 139.362C38.9241 134.661 29.988 129.323 23.6246 124.795C23.436 124.657 23.3845 124.381 23.5217 124.192C23.659 124.002 23.9334 123.951 24.1221 124.089C30.4511 128.6 39.3872 133.921 47.2598 138.622C53.7604 142.496 59.9179 146.164 63.3825 148.66C63.5712 148.798 63.6227 149.074 63.4855 149.263C63.4168 149.384 63.2796 149.453 63.1424 149.453Z" fill="#5272CC"/>
<path d="M62.7991 151C63.0221 163.845 52.731 170.01 37.7747 168.184C39.8843 156.527 50.0211 145.283 62.7991 151Z" fill="#3E5BAF"/>
<path d="M179.51 79.1201C178.91 79.8089 178.893 80.4116 177.263 80.8248C175.634 81.2381 174.982 81.1864 174.228 81.3931C173.473 81.6169 171.157 82.0646 171.312 82.4262C171.466 82.7878 174.193 82.5123 174.21 82.805C174.21 83.0978 168.499 87.2304 169.751 87.8675C171.003 88.5046 174.571 89.0901 177.418 86.9893C179.322 85.5773 180.351 83.4077 181.671 82.7017C182.426 80.8076 181.277 79.4301 179.51 79.1201Z" fill="#F7CAC9"/>
<path d="M190.367 28.8743C188.206 31.0267 186.182 34.8149 188.377 41.0483C190.59 47.3677 191.859 52.6885 191.979 57.6649C193.471 60.1961 194.397 63.9671 194.123 69.9422C194.123 69.9422 195.787 69.7872 198.256 69.3739C206.764 52.3441 202.184 37.4495 198.754 30.3035C197.399 27.5312 192.528 26.7046 190.367 28.8743Z" fill="#CEE4F8"/>
<path d="M198.736 30.4242C197.639 27.5486 192.853 26.326 190.503 28.289C188.154 30.252 185.838 33.8508 187.485 40.2564C191.79 56.959 190.469 66.4641 178.875 79.9467C178.875 79.9467 180.984 82.8051 181.979 84.131C206.935 62.9513 202.407 40.0669 198.736 30.4242Z" fill="white"/>
<path d="M181.979 84.3376C181.979 84.3376 178.669 79.654 178.412 79.3785C179.132 78.4486 180.487 77.0367 180.95 76.6406C181.688 77.4155 185.444 81.772 185.427 81.9614C184.998 82.3402 181.979 84.3376 181.979 84.3376Z" fill="#D1E7F3"/>
<path d="M208.016 20.6453C208.068 19.526 207.828 18.3896 207.244 17.3392C205.838 14.7907 202.905 13.637 200.212 14.3603C200.161 14.3775 200.006 14.4119 199.989 14.4119C196.662 15.4623 189.166 15.1868 185.187 10.2104C180.608 4.45918 176.989 2.16902 172.495 3.70154C167.984 5.23405 165.72 8.57458 166.355 11.1403C169.27 17.5458 172.1 17.9074 174.673 16.7365C176.972 15.6861 178.927 16.7537 179.373 18.7684C179.767 20.542 182.186 22.8493 183.918 24.0547C183.078 26.9647 184.57 33.1292 189.149 34.4379C192.254 35.3161 195.393 34.1796 197.142 31.5795C197.296 32.0272 197.485 32.4577 197.708 32.8709C199.989 37.0036 205.186 38.5016 209.32 36.2115C213.436 33.9213 214.928 28.7039 212.647 24.554C211.584 22.6599 209.92 21.3168 208.016 20.6453Z" fill="#2E4394"/>
<defs>
<linearGradient id="paint0_linear" x1="208.386" y1="62.187" x2="224.125" y2="157.297" gradientUnits="userSpaceOnUse">
<stop stop-color="#3E5BAF"/>
<stop offset="0.6368" stop-color="#4A69C0"/>
<stop offset="1" stop-color="#5272CC"/>
</linearGradient>
</defs>
</svg>
